{"glyphs":{"0":{"ha":1054,"x_min":0,"x_max":0,"o":"m 528 993 b 56 490 231 993 56 789 b 528 -14 56 190 231 -14 b 999 490 824 -14 999 190 b 528 993 999 789 824 993 z m 528 799 b 667 761 582 799 629 786 l 293 363 b 278 490 283 400 278 442 b 528 799 278 692 371 799 z m 528 181 b 388 219 474 181 426 193 l 761 618 b 776 490 771 581 776 538 b 528 181 776 288 685 181 z "},"1":{"ha":806,"x_min":0,"x_max":0,"o":"m 42 590 l 119 389 b 486 924 421 482 469 671 l 542 924 l 500 799 l 500 0 l 722 0 l 722 979 l 290 979 b 42 590 290 756 222 661 z "},"2":{"ha":967,"x_min":0,"x_max":0,"o":"m 56 531 l 278 531 b 521 799 278 718 353 799 b 689 674 647 799 689 736 b 69 389 689 457 169 403 l 69 0 l 911 0 l 911 194 l 264 194 l 125 153 l 125 208 b 911 664 583 293 911 335 b 518 993 911 878 750 993 b 56 531 261 993 56 860 z "},"3":{"ha":989,"x_min":0,"x_max":0,"o":"m 42 374 b 499 -14 42 79 247 -14 b 919 265 733 -14 919 72 b 674 476 919 439 799 460 l 674 532 b 906 728 799 553 906 581 b 499 993 906 907 733 993 b 56 647 247 993 56 900 l 278 647 b 499 799 278 760 325 799 b 683 700 642 799 683 765 b 563 601 683 636 646 601 l 426 601 l 426 407 l 563 407 b 697 293 646 407 697 371 b 499 181 697 214 642 181 b 264 374 325 181 264 219 z "},"4":{"ha":965,"x_min":0,"x_max":0,"o":"m 910 360 l 803 360 l 803 576 l 581 576 l 581 360 l 264 360 l 125 318 l 125 374 b 685 979 472 446 669 656 l 463 979 b 69 569 446 747 303 606 l 69 165 l 581 165 l 581 0 l 803 0 l 803 165 l 910 165 z "},"5":{"ha":1017,"x_min":0,"x_max":0,"o":"m 56 360 b 517 -14 56 93 258 -14 b 947 369 775 -14 947 100 b 636 715 947 594 808 715 b 343 493 499 715 396 646 l 297 519 l 339 644 l 339 785 l 869 785 l 869 979 l 117 979 l 117 561 l 367 417 b 569 521 422 488 488 521 b 725 364 674 521 725 468 b 517 181 725 242 674 181 b 278 360 343 181 278 242 z "},"6":{"ha":1004,"x_min":0,"x_max":0,"o":"m 69 482 b 517 -14 69 143 247 -14 b 963 357 794 -14 963 139 b 575 715 963 581 818 715 b 226 454 392 715 243 618 l 171 454 l 226 579 b 554 799 268 763 376 814 l 883 771 l 883 965 l 554 993 b 69 482 204 1022 69 788 z m 292 343 b 522 521 292 458 360 521 b 740 357 672 521 740 471 b 517 181 740 226 669 181 b 292 343 361 181 292 258 z "},"7":{"ha":846,"x_min":0,"x_max":0,"o":"m 158 0 l 394 0 b 804 658 394 361 511 539 l 804 979 l 42 979 l 42 785 l 624 785 l 749 826 l 749 771 b 158 0 389 664 158 424 z "},"8":{"ha":957,"x_min":0,"x_max":0,"o":"m 28 275 b 479 -14 28 68 210 -14 b 929 275 747 -14 929 68 b 642 511 929 432 790 494 l 642 567 b 874 767 751 576 874 618 b 479 993 874 944 671 993 b 83 767 286 993 83 944 b 315 567 83 618 206 576 l 315 511 b 28 275 167 494 28 446 z m 306 717 b 479 799 306 775 360 799 b 651 717 597 799 651 775 b 479 635 651 657 597 635 b 306 717 360 635 306 657 z m 250 310 b 479 440 250 396 318 440 b 707 310 639 440 707 396 b 479 181 707 222 639 181 b 250 310 318 181 250 222 z "},"9":{"ha":1004,"x_min":0,"x_max":0,"o":"m 935 497 b 488 993 935 836 757 993 b 42 622 210 993 42 840 b 429 264 42 399 186 264 b 778 525 613 264 761 361 l 833 525 l 778 400 b 450 181 736 217 628 165 l 121 208 l 121 14 l 450 -14 b 935 497 800 -43 935 192 z m 713 636 b 482 458 713 521 644 458 b 264 622 332 458 264 508 b 488 799 264 753 335 799 b 713 636 643 799 713 721 z "}," ":{"ha":389,"x_min":0,"x_max":0,"o":""},"A":{"ha":1079,"x_min":0,"x_max":0,"o":"m 826 0 l 1051 0 l 768 979 l 310 979 l 28 0 l 253 0 l 340 314 l 738 314 z m 394 508 l 511 924 l 567 924 l 683 508 z "},"Á":{"ha":1079,"x_min":0,"x_max":0,"o":"m 815 1168 l 778 1326 l 236 1207 l 274 1049 z m 826 0 l 1051 0 l 768 979 l 310 979 l 28 0 l 253 0 l 340 314 l 738 314 z m 394 508 l 511 924 l 567 924 l 683 508 z "},"Ă":{"ha":1079,"x_min":0,"x_max":0,"o":"m 540 1049 b 794 1325 728 1049 794 1183 l 628 1325 b 540 1201 628 1228 594 1201 b 453 1325 486 1201 453 1228 l 286 1325 b 540 1049 286 1183 353 1049 z m 826 0 l 1051 0 l 768 979 l 310 979 l 28 0 l 253 0 l 340 314 l 738 314 z m 394 508 l 511 924 l 567 924 l 683 508 z "},"Â":{"ha":1079,"x_min":0,"x_max":0,"o":"m 540 1160 l 722 1033 l 840 1144 l 540 1354 l 240 1144 l 358 1033 z m 826 0 l 1051 0 l 768 979 l 310 979 l 28 0 l 253 0 l 340 314 l 738 314 z m 394 508 l 511 924 l 567 924 l 683 508 z "},"Ä":{"ha":1079,"x_min":0,"x_max":0,"o":"m 358 1049 b 499 1160 447 1049 499 1088 b 358 1271 499 1231 447 1271 b 221 1160 269 1271 221 1231 b 358 1049 221 1088 269 1049 z m 719 1049 b 860 1160 808 1049 860 1088 b 719 1271 860 1231 808 1271 b 582 1160 631 1271 582 1231 b 719 1049 582 1088 631 1049 z m 826 0 l 1051 0 l 768 979 l 310 979 l 28 0 l 253 0 l 340 314 l 738 314 z m 394 508 l 511 924 l 567 924 l 683 508 z "},"À":{"ha":1079,"x_min":0,"x_max":0,"o":"m 843 1207 l 301 1326 l 264 1168 l 806 1049 z m 826 0 l 1051 0 l 768 979 l 310 979 l 28 0 l 253 0 l 340 314 l 738 314 z m 394 508 l 511 924 l 567 924 l 683 508 z "},"Ā":{"ha":1079,"x_min":0,"x_max":0,"o":"m 839 1278 l 242 1278 l 242 1111 l 839 1114 z m 826 0 l 1051 0 l 768 979 l 310 979 l 28 0 l 253 0 l 340 314 l 738 314 z m 394 508 l 511 924 l 567 924 l 683 508 z "},"Ą":{"ha":1079,"x_min":0,"x_max":0,"o":"m 999 -110 l 1051 0 l 1051 1 l 768 979 l 310 979 l 28 0 l 253 0 l 340 314 l 738 314 l 826 0 l 897 0 l 813 -131 b 931 -278 767 -200 832 -286 l 1188 -257 l 1188 -90 z m 394 508 l 511 924 l 567 924 l 683 508 z "},"Å":{"ha":1079,"x_min":0,"x_max":0,"o":"m 539 1049 b 758 1219 674 1049 758 1106 b 539 1390 758 1333 674 1390 b 321 1219 404 1390 321 1333 b 539 1049 321 1104 404 1049 z m 539 1264 b 592 1219 568 1264 592 1253 b 539 1174 592 1185 569 1174 b 488 1219 510 1174 488 1185 b 539 1264 488 1253 510 1264 z m 826 0 l 1051 0 l 768 979 l 310 979 l 28 0 l 253 0 l 340 314 l 738 314 z m 394 508 l 511 924 l 567 924 l 683 508 z "},"Ã":{"ha":1079,"x_min":0,"x_max":0,"o":"m 433 1208 b 661 1097 494 1208 533 1097 b 865 1361 789 1097 865 1200 l 699 1361 b 647 1264 699 1278 678 1264 b 419 1375 586 1264 547 1375 b 215 1111 292 1375 215 1272 l 382 1111 b 433 1208 382 1194 403 1208 z m 826 0 l 1051 0 l 768 979 l 310 979 l 28 0 l 253 0 l 340 314 l 738 314 z m 394 508 l 511 924 l 567 924 l 683 508 z "},"Æ":{"ha":1533,"x_min":0,"x_max":0,"o":"m 1478 785 l 1478 979 l 532 979 l 28 0 l 263 0 l 429 325 l 779 325 l 779 0 l 1478 0 l 1478 194 l 1001 194 l 1001 393 l 1408 393 l 1408 588 l 1001 588 l 1001 785 z m 529 519 l 738 924 l 779 924 l 779 519 z "},"B":{"ha":974,"x_min":0,"x_max":0,"o":"m 83 0 l 444 0 b 904 260 700 0 904 38 b 597 488 904 468 746 482 l 597 543 b 832 739 701 551 832 556 b 428 979 832 932 700 979 l 83 979 z m 306 607 l 306 785 l 456 785 b 610 696 546 785 610 785 b 456 607 610 607 546 607 z m 306 194 l 306 413 l 472 413 b 682 303 604 413 682 413 b 472 194 682 194 604 194 z "},"C":{"ha":1125,"x_min":0,"x_max":0,"o":"m 69 490 b 572 -14 69 204 261 -14 b 1056 379 846 -14 1026 136 l 833 379 b 575 181 811 250 708 181 b 292 490 404 181 292 288 b 575 799 292 692 404 799 b 833 601 708 799 811 731 l 1056 601 b 572 993 1026 843 846 993 b 69 490 261 993 69 775 z "},"Ć":{"ha":1125,"x_min":0,"x_max":0,"o":"m 265 1207 l 303 1049 l 844 1168 l 807 1326 z m 69 490 b 572 -14 69 204 261 -14 b 1056 379 846 -14 1026 136 l 833 379 b 575 181 811 250 708 181 b 292 490 404 181 292 288 b 575 799 292 692 404 799 b 833 601 708 799 811 731 l 1056 601 b 572 993 1026 843 846 993 b 69 490 261 993 69 775 z "},"Č":{"ha":1125,"x_min":0,"x_max":0,"o":"m 869 1251 l 751 1363 l 569 1236 l 388 1363 l 269 1251 l 569 1042 z m 69 490 b 572 -14 69 204 261 -14 b 1056 379 846 -14 1026 136 l 833 379 b 575 181 811 250 708 181 b 292 490 404 181 292 288 b 575 799 292 692 404 799 b 833 601 708 799 811 731 l 1056 601 b 572 993 1026 843 846 993 b 69 490 261 993 69 775 z "},"Ç":{"ha":1125,"x_min":0,"x_max":0,"o":"m 575 181 b 292 490 404 181 292 288 b 575 799 292 692 404 799 b 833 601 708 799 811 731 l 1056 601 b 572 993 1026 843 846 993 b 69 490 261 993 69 775 b 474 -6 69 236 221 35 l 439 -82 l 510 -136 b 618 -111 565 -117 593 -111 b 650 -135 638 -111 650 -121 b 429 -167 650 -172 578 -167 l 429 -292 b 817 -142 626 -292 817 -278 b 697 -56 817 -72 754 -56 b 568 -83 651 -56 601 -68 l 633 -11 b 1056 379 872 10 1029 154 l 833 379 b 575 181 811 250 708 181 z "},"Ċ":{"ha":1125,"x_min":0,"x_max":0,"o":"m 568 1049 b 708 1160 657 1049 708 1088 b 568 1271 708 1231 657 1271 b 431 1160 479 1271 431 1231 b 568 1049 431 1088 479 1049 z m 69 490 b 572 -14 69 204 261 -14 b 1056 379 846 -14 1026 136 l 833 379 b 575 181 811 250 708 181 b 292 490 404 181 292 288 b 575 799 292 692 404 799 b 833 601 708 799 811 731 l 1056 601 b 572 993 1026 843 846 993 b 69 490 261 993 69 775 z "},"D":{"ha":1047,"x_min":0,"x_max":0,"o":"m 444 979 l 83 979 l 83 0 l 444 0 b 978 490 706 0 978 68 b 444 979 978 911 706 979 z m 444 194 l 306 194 l 306 785 l 444 785 b 756 490 618 785 756 771 b 444 194 756 208 618 194 z "},"Ð":{"ha":1158,"x_min":0,"x_max":0,"o":"m 556 979 l 194 979 l 194 590 l 69 590 l 69 424 l 194 424 l 194 0 l 556 0 b 1089 490 817 0 1089 68 b 556 979 1089 911 817 979 z m 556 194 l 417 194 l 417 424 l 622 424 l 622 590 l 417 590 l 417 785 l 556 785 b 867 490 729 785 867 771 b 556 194 867 208 729 194 z "},"Ď":{"ha":1047,"x_min":0,"x_max":0,"o":"m 735 1251 l 617 1363 l 435 1236 l 253 1363 l 135 1251 l 435 1042 z m 444 979 l 83 979 l 83 0 l 444 0 b 978 490 706 0 978 68 b 444 979 978 911 706 979 z m 444 194 l 306 194 l 306 785 l 444 785 b 756 490 618 785 756 771 b 444 194 756 208 618 194 z "},"Đ":{"ha":1158,"x_min":0,"x_max":0,"o":"m 556 979 l 194 979 l 194 590 l 69 590 l 69 424 l 194 424 l 194 0 l 556 0 b 1089 490 817 0 1089 68 b 556 979 1089 911 817 979 z m 556 194 l 417 194 l 417 424 l 622 424 l 622 590 l 417 590 l 417 785 l 556 785 b 867 490 729 785 867 771 b 556 194 867 208 729 194 z "},"E":{"ha":838,"x_min":0,"x_max":0,"o":"m 83 0 l 782 0 l 782 194 l 306 194 l 306 393 l 713 393 l 713 588 l 306 588 l 306 785 l 782 785 l 782 979 l 83 979 z "},"É":{"ha":838,"x_min":0,"x_max":0,"o":"m 129 1207 l 167 1049 l 708 1168 l 671 1326 z m 83 0 l 782 0 l 782 194 l 306 194 l 306 393 l 713 393 l 713 588 l 306 588 l 306 785 l 782 785 l 782 979 l 83 979 z "},"Ě":{"ha":838,"x_min":0,"x_max":0,"o":"m 733 1251 l 615 1363 l 433 1236 l 251 1363 l 133 1251 l 433 1042 z m 83 0 l 782 0 l 782 194 l 306 194 l 306 393 l 713 393 l 713 588 l 306 588 l 306 785 l 782 785 l 782 979 l 83 979 z "},"Ê":{"ha":838,"x_min":0,"x_max":0,"o":"m 733 1144 l 433 1354 l 133 1144 l 251 1033 l 433 1160 l 615 1033 z m 83 0 l 782 0 l 782 194 l 306 194 l 306 393 l 713 393 l 713 588 l 306 588 l 306 785 l 782 785 l 782 979 l 83 979 z "},"Ë":{"ha":838,"x_min":0,"x_max":0,"o":"m 251 1049 b 392 1160 340 1049 392 1088 b 251 1271 392 1231 340 1271 b 114 1160 163 1271 114 1231 b 251 1049 114 1088 163 1049 z m 613 1049 b 753 1160 701 1049 753 1088 b 613 1271 753 1231 701 1271 b 475 1160 524 1271 475 1231 b 613 1049 475 1088 524 1049 z m 83 0 l 782 0 l 782 194 l 306 194 l 306 393 l 713 393 l 713 588 l 306 588 l 306 785 l 782 785 l 782 979 l 83 979 z "},"Ė":{"ha":838,"x_min":0,"x_max":0,"o":"m 432 1049 b 572 1160 521 1049 572 1088 b 432 1271 572 1231 521 1271 b 294 1160 343 1271 294 1231 b 432 1049 294 1088 343 1049 z m 83 0 l 782 0 l 782 194 l 306 194 l 306 393 l 713 393 l 713 588 l 306 588 l 306 785 l 782 785 l 782 979 l 83 979 z "},"È":{"ha":838,"x_min":0,"x_max":0,"o":"m 736 1207 l 194 1326 l 157 1168 l 699 1049 z m 83 0 l 782 0 l 782 194 l 306 194 l 306 393 l 713 393 l 713 588 l 306 588 l 306 785 l 782 785 l 782 979 l 83 979 z "},"Ē":{"ha":838,"x_min":0,"x_max":0,"o":"m 135 1278 l 135 1111 l 732 1114 l 732 1278 z m 83 0 l 782 0 l 782 194 l 306 194 l 306 393 l 713 393 l 713 588 l 306 588 l 306 785 l 782 785 l 782 979 l 83 979 z "},"Ę":{"ha":838,"x_min":0,"x_max":0,"o":"m 782 785 l 782 979 l 83 979 l 83 0 l 478 0 l 393 -131 b 511 -278 347 -200 413 -286 l 768 -257 l 768 -90 l 579 -110 l 632 0 l 782 0 l 782 194 l 306 194 l 306 393 l 713 393 l 713 588 l 306 588 l 306 785 z "},"F":{"ha":838,"x_min":0,"x_max":0,"o":"m 83 0 l 306 0 l 306 306 l 750 333 l 750 531 l 306 503 l 306 785 l 782 785 l 782 979 l 83 979 z "},"G":{"ha":1235,"x_min":0,"x_max":0,"o":"m 69 490 b 524 -14 69 190 231 -14 b 915 490 793 -14 914 183 l 971 490 l 929 338 l 929 0 l 1151 0 l 1151 428 b 1033 546 1151 504 1110 546 l 522 546 l 522 379 l 749 379 b 532 181 749 247 665 181 b 292 490 371 181 292 274 b 563 799 292 706 392 799 b 806 629 710 799 783 744 l 1028 629 b 563 993 999 843 808 993 b 69 490 279 993 69 789 z "},"Ğ":{"ha":1235,"x_min":0,"x_max":0,"o":"m 817 1325 l 650 1325 b 563 1201 650 1228 617 1201 b 475 1325 508 1201 475 1228 l 308 1325 b 563 1049 308 1183 375 1049 b 817 1325 750 1049 817 1183 z m 69 490 b 524 -14 69 190 231 -14 b 915 490 793 -14 914 183 l 971 490 l 929 338 l 929 0 l 1151 0 l 1151 428 b 1033 546 1151 504 1110 546 l 522 546 l 522 379 l 749 379 b 532 181 749 247 665 181 b 292 490 371 181 292 274 b 563 799 292 706 392 799 b 806 629 710 799 783 744 l 1028 629 b 563 993 999 843 808 993 b 69 490 279 993 69 789 z "},"Ģ":{"ha":1235,"x_min":0,"x_max":0,"o":"m 69 490 b 524 -14 69 190 231 -14 b 915 490 793 -14 914 183 l 971 490 l 929 338 l 929 0 l 1151 0 l 1151 428 b 1033 546 1151 504 1110 546 l 522 546 l 522 379 l 749 379 b 532 181 749 247 665 181 b 292 490 371 181 292 274 b 563 799 292 706 392 799 b 806 629 710 799 783 744 l 1028 629 b 563 993 999 843 808 993 b 69 490 279 993 69 789 z m 440 -68 l 354 -306 l 513 -357 l 599 -119 z "},"Ġ":{"ha":1235,"x_min":0,"x_max":0,"o":"m 561 1049 b 701 1160 650 1049 701 1088 b 561 1271 701 1231 650 1271 b 424 1160 472 1271 424 1231 b 561 1049 424 1088 472 1049 z m 69 490 b 524 -14 69 190 231 -14 b 915 490 793 -14 914 183 l 971 490 l 929 338 l 929 0 l 1151 0 l 1151 428 b 1033 546 1151 504 1110 546 l 522 546 l 522 379 l 749 379 b 532 181 749 247 665 181 b 292 490 371 181 292 274 b 563 799 292 706 392 799 b 806 629 710 799 783 744 l 1028 629 b 563 993 999 843 808 993 b 69 490 279 993 69 789 z "},"H":{"ha":1103,"x_min":0,"x_max":0,"o":"m 797 979 l 797 574 l 306 574 l 306 979 l 83 979 l 83 0 l 306 0 l 306 379 l 797 379 l 797 0 l 1019 0 l 1019 979 z "},"Ħ":{"ha":1186,"x_min":0,"x_max":0,"o":"m 1144 868 l 1061 868 l 1061 979 l 839 979 l 839 868 l 347 868 l 347 979 l 125 979 l 125 868 l 42 868 l 42 701 l 125 701 l 125 0 l 347 0 l 347 379 l 839 379 l 839 0 l 1061 0 l 1061 701 l 1144 701 z m 839 574 l 347 574 l 347 701 l 839 701 z "},"I":{"ha":806,"x_min":0,"x_max":0,"o":"m 736 785 l 736 979 l 69 979 l 69 785 l 292 785 l 292 194 l 69 194 l 69 0 l 736 0 l 736 194 l 514 194 l 514 785 z "},"Í":{"ha":806,"x_min":0,"x_max":0,"o":"m 678 1168 l 640 1326 l 99 1207 l 136 1049 z m 736 785 l 736 979 l 69 979 l 69 785 l 292 785 l 292 194 l 69 194 l 69 0 l 736 0 l 736 194 l 514 194 l 514 785 z "},"Î":{"ha":806,"x_min":0,"x_max":0,"o":"m 403 1160 l 585 1033 l 703 1144 l 403 1354 l 103 1144 l 221 1033 z m 736 785 l 736 979 l 69 979 l 69 785 l 292 785 l 292 194 l 69 194 l 69 0 l 736 0 l 736 194 l 514 194 l 514 785 z "},"Ï":{"ha":806,"x_min":0,"x_max":0,"o":"m 221 1049 b 361 1160 310 1049 361 1088 b 221 1271 361 1231 310 1271 b 83 1160 132 1271 83 1231 b 221 1049 83 1088 132 1049 z m 582 1049 b 722 1160 671 1049 722 1088 b 582 1271 722 1231 671 1271 b 444 1160 493 1271 444 1231 b 582 1049 444 1088 493 1049 z m 736 785 l 736 979 l 69 979 l 69 785 l 292 785 l 292 194 l 69 194 l 69 0 l 736 0 l 736 194 l 514 194 l 514 785 z "},"İ":{"ha":806,"x_min":0,"x_max":0,"o":"m 401 1049 b 542 1160 490 1049 542 1088 b 401 1271 542 1231 490 1271 b 264 1160 313 1271 264 1231 b 401 1049 264 1088 313 1049 z m 736 785 l 736 979 l 69 979 l 69 785 l 292 785 l 292 194 l 69 194 l 69 0 l 736 0 l 736 194 l 514 194 l 514 785 z "},"Ì":{"ha":806,"x_min":0,"x_max":0,"o":"m 706 1207 l 164 1326 l 126 1168 l 668 1049 z m 736 785 l 736 979 l 69 979 l 69 785 l 292 785 l 292 194 l 69 194 l 69 0 l 736 0 l 736 194 l 514 194 l 514 785 z "},"Ī":{"ha":806,"x_min":0,"x_max":0,"o":"m 701 1278 l 104 1278 l 104 1111 l 701 1114 z m 736 785 l 736 979 l 69 979 l 69 785 l 292 785 l 292 194 l 69 194 l 69 0 l 736 0 l 736 194 l 514 194 l 514 785 z "},"Į":{"ha":806,"x_min":0,"x_max":0,"o":"m 736 785 l 736 979 l 69 979 l 69 785 l 292 785 l 292 194 l 69 194 l 69 0 l 444 0 l 360 -131 b 478 -278 314 -200 379 -286 l 735 -257 l 735 -90 l 546 -110 l 599 0 l 736 0 l 736 194 l 514 194 l 514 785 z "},"J":{"ha":743,"x_min":0,"x_max":0,"o":"m 276 -14 b 674 375 590 -32 674 99 l 674 875 b 556 993 674 951 632 996 l 157 979 l 157 785 l 451 799 l 451 450 b 276 181 451 282 439 171 l 28 194 l 28 0 z "},"K":{"ha":1068,"x_min":0,"x_max":0,"o":"m 1040 979 l 715 979 l 306 632 l 306 979 l 83 979 l 83 0 l 306 0 l 306 346 l 715 0 l 1040 0 l 450 489 z "},"Ķ":{"ha":1068,"x_min":0,"x_max":0,"o":"m 1040 979 l 715 979 l 306 632 l 306 979 l 83 979 l 83 0 l 306 0 l 306 346 l 715 0 l 1040 0 l 450 489 z m 340 -306 l 499 -357 l 585 -119 l 426 -68 z "},"L":{"ha":810,"x_min":0,"x_max":0,"o":"m 203 -14 l 782 0 l 782 194 l 306 181 l 306 979 l 83 979 l 83 103 b 203 -14 83 26 126 -15 z "},"Ĺ":{"ha":819,"x_min":0,"x_max":0,"o":"m 83 1207 l 121 1049 l 663 1168 l 625 1326 z m 213 -14 l 792 0 l 792 194 l 315 181 l 315 979 l 93 979 l 93 103 b 213 -14 93 26 136 -15 z "},"Ľ":{"ha":824,"x_min":0,"x_max":0,"o":"m 468 1076 l 468 632 l 635 632 l 635 1076 z m 203 -14 l 782 0 l 782 194 l 306 181 l 306 979 l 83 979 l 83 103 b 203 -14 83 26 126 -15 z "},"Ļ":{"ha":810,"x_min":0,"x_max":0,"o":"m 203 -14 l 782 0 l 782 194 l 306 181 l 306 979 l 83 979 l 83 103 b 203 -14 83 26 126 -15 z m 374 -68 l 288 -306 l 446 -357 l 532 -119 z "},"Ł":{"ha":939,"x_min":0,"x_max":0,"o":"m 421 181 l 421 475 l 701 551 l 660 710 l 421 644 l 421 979 l 199 979 l 199 585 l 56 546 l 97 388 l 199 415 l 199 103 b 318 -14 199 26 242 -15 l 897 0 l 897 194 z "},"M":{"ha":1383,"x_min":0,"x_max":0,"o":"m 83 0 l 306 0 l 306 785 l 264 924 l 319 924 l 476 0 l 907 0 l 1064 924 l 1119 924 l 1078 785 l 1078 0 l 1300 0 l 1300 979 l 863 979 l 719 56 l 664 56 l 521 979 l 83 979 z "},"N":{"ha":1136,"x_min":0,"x_max":0,"o":"m 83 0 l 306 0 l 306 785 l 264 924 l 319 924 l 615 0 l 1053 0 l 1053 979 l 831 979 l 831 194 l 872 56 l 817 56 l 521 979 l 83 979 z "},"Ń":{"ha":1136,"x_min":0,"x_max":0,"o":"m 292 1207 l 329 1049 l 871 1168 l 833 1326 z m 83 0 l 306 0 l 306 785 l 264 924 l 319 924 l 615 0 l 1053 0 l 1053 979 l 831 979 l 831 194 l 872 56 l 817 56 l 521 979 l 83 979 z "},"Ň":{"ha":1136,"x_min":0,"x_max":0,"o":"m 896 1251 l 778 1363 l 596 1236 l 414 1363 l 296 1251 l 596 1042 z m 83 0 l 306 0 l 306 785 l 264 924 l 319 924 l 615 0 l 1053 0 l 1053 979 l 831 979 l 831 194 l 872 56 l 817 56 l 521 979 l 83 979 z "},"Ņ":{"ha":1136,"x_min":0,"x_max":0,"o":"m 83 0 l 306 0 l 306 785 l 264 924 l 319 924 l 615 0 l 1053 0 l 1053 979 l 831 979 l 831 194 l 872 56 l 817 56 l 521 979 l 83 979 z m 481 -68 l 394 -306 l 553 -357 l 639 -119 z "},"Ŋ":{"ha":1136,"x_min":0,"x_max":0,"o":"m 831 979 l 831 194 l 872 56 l 817 56 l 521 979 l 83 979 l 83 0 l 306 0 l 306 785 l 264 924 l 319 924 l 615 0 l 831 0 l 831 -82 l 590 -74 l 590 -268 l 933 -278 b 1053 -161 1010 -281 1053 -239 l 1053 979 z "},"Ñ":{"ha":1136,"x_min":0,"x_max":0,"o":"m 271 1111 l 438 1111 b 489 1208 438 1194 458 1208 b 717 1097 550 1208 589 1097 b 921 1361 844 1097 921 1200 l 754 1361 b 703 1264 754 1278 733 1264 b 475 1375 642 1264 603 1375 b 271 1111 347 1375 271 1272 z m 83 0 l 306 0 l 306 785 l 264 924 l 319 924 l 615 0 l 1053 0 l 1053 979 l 831 979 l 831 194 l 872 56 l 817 56 l 521 979 l 83 979 z "},"O":{"ha":1138,"x_min":0,"x_max":0,"o":"m 69 490 b 569 -14 69 204 258 -14 b 1068 490 879 -14 1068 204 b 569 993 1068 775 879 993 b 69 490 258 993 69 775 z m 292 490 b 569 799 292 678 385 799 b 846 490 754 799 846 678 b 569 181 846 301 754 181 b 292 490 385 181 292 301 z "},"Ó":{"ha":1138,"x_min":0,"x_max":0,"o":"m 265 1207 l 303 1049 l 844 1168 l 807 1326 z m 69 490 b 569 -14 69 204 258 -14 b 1068 490 879 -14 1068 204 b 569 993 1068 775 879 993 b 69 490 258 993 69 775 z m 292 490 b 569 799 292 678 385 799 b 846 490 754 799 846 678 b 569 181 846 301 754 181 b 292 490 385 181 292 301 z "},"Ô":{"ha":1138,"x_min":0,"x_max":0,"o":"m 869 1144 l 569 1354 l 269 1144 l 388 1033 l 569 1160 l 751 1033 z m 69 490 b 569 -14 69 204 258 -14 b 1068 490 879 -14 1068 204 b 569 993 1068 775 879 993 b 69 490 258 993 69 775 z m 292 490 b 569 799 292 678 385 799 b 846 490 754 799 846 678 b 569 181 846 301 754 181 b 292 490 385 181 292 301 z "},"Ö":{"ha":1138,"x_min":0,"x_max":0,"o":"m 388 1049 b 528 1160 476 1049 528 1088 b 388 1271 528 1231 476 1271 b 250 1160 299 1271 250 1231 b 388 1049 250 1088 299 1049 z m 749 1049 b 889 1160 838 1049 889 1088 b 749 1271 889 1231 838 1271 b 611 1160 660 1271 611 1231 b 749 1049 611 1088 660 1049 z m 69 490 b 569 -14 69 204 258 -14 b 1068 490 879 -14 1068 204 b 569 993 1068 775 879 993 b 69 490 258 993 69 775 z m 292 490 b 569 799 292 678 385 799 b 846 490 754 799 846 678 b 569 181 846 301 754 181 b 292 490 385 181 292 301 z "},"Ò":{"ha":1138,"x_min":0,"x_max":0,"o":"m 872 1207 l 331 1326 l 293 1168 l 835 1049 z m 69 490 b 569 -14 69 204 258 -14 b 1068 490 879 -14 1068 204 b 569 993 1068 775 879 993 b 69 490 258 993 69 775 z m 292 490 b 569 799 292 678 385 799 b 846 490 754 799 846 678 b 569 181 846 301 754 181 b 292 490 385 181 292 301 z "},"Ő":{"ha":1138,"x_min":0,"x_max":0,"o":"m 247 1157 l 364 1049 l 642 1283 l 525 1392 z m 594 1157 l 711 1049 l 989 1283 l 872 1392 z m 69 490 b 569 -14 69 204 258 -14 b 1068 490 879 -14 1068 204 b 569 993 1068 775 879 993 b 69 490 258 993 69 775 z m 292 490 b 569 799 292 678 385 799 b 846 490 754 799 846 678 b 569 181 846 301 754 181 b 292 490 385 181 292 301 z "},"Ō":{"ha":1138,"x_min":0,"x_max":0,"o":"m 271 1278 l 271 1111 l 868 1114 l 868 1278 z m 69 490 b 569 -14 69 204 258 -14 b 1068 490 879 -14 1068 204 b 569 993 1068 775 879 993 b 69 490 258 993 69 775 z m 292 490 b 569 799 292 678 385 799 b 846 490 754 799 846 678 b 569 181 846 301 754 181 b 292 490 385 181 292 301 z "},"Ø":{"ha":1138,"x_min":0,"x_max":0,"o":"m 883 894 l 947 1006 l 828 1075 l 761 961 b 569 993 704 982 640 993 b 69 490 258 993 69 775 b 256 85 69 321 136 175 l 190 -28 l 307 -96 l 374 19 b 569 -14 432 -3 497 -14 b 1068 490 879 -14 1068 204 b 883 894 1068 660 1001 804 z m 292 490 b 569 799 292 678 385 799 b 661 788 603 799 633 794 l 360 267 b 292 490 314 319 292 397 z m 569 181 b 475 193 535 181 503 185 l 778 714 b 846 490 824 660 846 583 b 569 181 846 301 754 181 z "},"Õ":{"ha":1138,"x_min":0,"x_max":0,"o":"m 244 1111 l 411 1111 b 463 1208 411 1194 432 1208 b 690 1097 524 1208 563 1097 b 894 1361 818 1097 894 1200 l 728 1361 b 676 1264 728 1278 707 1264 b 449 1375 615 1264 576 1375 b 244 1111 321 1375 244 1272 z m 69 490 b 569 -14 69 204 258 -14 b 1068 490 879 -14 1068 204 b 569 993 1068 775 879 993 b 69 490 258 993 69 775 z m 292 490 b 569 799 292 678 385 799 b 846 490 754 799 846 678 b 569 181 846 301 754 181 b 292 490 385 181 292 301 z "},"Œ":{"ha":1614,"x_min":0,"x_max":0,"o":"m 1558 785 l 1558 979 l 860 979 l 860 911 b 569 993 782 964 683 993 b 69 490 258 993 69 775 b 569 -14 69 204 258 -14 b 860 68 683 -14 782 15 l 860 0 l 1558 0 l 1558 194 l 1082 194 l 1082 393 l 1489 393 l 1489 588 l 1082 588 l 1082 785 z m 569 181 b 292 490 385 181 292 301 b 569 799 292 678 385 799 b 846 490 754 799 846 678 b 569 181 846 301 754 181 z "},"P":{"ha":926,"x_min":0,"x_max":0,"o":"m 435 979 l 83 979 l 83 0 l 306 0 l 306 292 l 435 292 b 871 636 682 292 871 339 b 435 979 871 932 682 979 z m 449 486 l 306 486 l 306 785 l 449 785 b 649 636 581 785 649 771 b 449 486 649 500 581 486 z "},"Þ":{"ha":926,"x_min":0,"x_max":0,"o":"m 435 833 l 306 833 l 306 979 l 83 979 l 83 0 l 306 0 l 306 146 l 435 146 b 871 490 682 146 871 193 b 435 833 871 786 682 833 z m 449 340 l 306 340 l 306 639 l 449 639 b 649 490 581 639 649 639 b 449 340 649 340 581 340 z "},"Q":{"ha":1160,"x_min":0,"x_max":0,"o":"m 772 -42 b 1096 490 939 49 1096 213 b 583 993 1096 789 893 993 b 69 490 272 993 69 775 b 503 0 69 190 272 0 b 749 71 635 0 699 29 l 779 21 b 288 -90 629 -64 428 -76 l 306 -271 b 1271 -264 653 -221 888 -211 l 1271 -69 b 772 -42 1050 -40 913 -31 z m 583 181 b 292 490 399 181 292 301 b 583 799 292 678 399 799 b 874 490 768 799 874 678 b 583 181 874 301 768 181 z "},"R":{"ha":994,"x_min":0,"x_max":0,"o":"m 83 0 l 306 0 l 306 344 l 689 344 l 689 0 l 911 0 l 911 313 b 793 431 911 389 869 431 l 650 431 l 650 486 b 899 706 768 500 899 544 b 463 979 899 925 696 979 l 83 979 z m 306 539 l 306 785 l 463 785 b 676 661 594 785 676 785 b 463 539 676 539 594 539 z "},"Ŕ":{"ha":994,"x_min":0,"x_max":0,"o":"m 172 1207 l 210 1049 l 751 1168 l 714 1326 z m 83 0 l 306 0 l 306 344 l 689 344 l 689 0 l 911 0 l 911 313 b 793 431 911 389 869 431 l 650 431 l 650 486 b 899 706 768 500 899 544 b 463 979 899 925 696 979 l 83 979 z m 306 539 l 306 785 l 463 785 b 676 661 594 785 676 785 b 463 539 676 539 594 539 z "},"Ř":{"ha":994,"x_min":0,"x_max":0,"o":"m 776 1251 l 658 1363 l 476 1236 l 294 1363 l 176 1251 l 476 1042 z m 83 0 l 306 0 l 306 344 l 689 344 l 689 0 l 911 0 l 911 313 b 793 431 911 389 869 431 l 650 431 l 650 486 b 899 706 768 500 899 544 b 463 979 899 925 696 979 l 83 979 z m 306 539 l 306 785 l 463 785 b 676 661 594 785 676 785 b 463 539 676 539 594 539 z "},"Ŗ":{"ha":994,"x_min":0,"x_max":0,"o":"m 83 0 l 306 0 l 306 344 l 689 344 l 689 0 l 911 0 l 911 313 b 793 431 911 389 869 431 l 650 431 l 650 486 b 899 706 768 500 899 544 b 463 979 899 925 696 979 l 83 979 z m 306 539 l 306 785 l 463 785 b 676 661 594 785 676 785 b 463 539 676 539 594 539 z m 431 -68 l 344 -306 l 503 -357 l 589 -119 z "},"S":{"ha":988,"x_min":0,"x_max":0,"o":"m 946 269 b 489 613 946 474 669 551 b 308 726 332 665 308 682 b 471 799 308 776 371 799 b 683 646 592 799 683 765 l 906 646 b 471 993 906 840 771 993 b 86 735 218 993 86 901 b 461 418 86 543 254 488 b 724 267 604 369 724 338 b 533 181 724 214 676 181 b 264 378 339 181 264 228 l 42 378 b 526 -14 42 131 174 -14 b 946 269 828 -14 946 101 z "},"Ś":{"ha":988,"x_min":0,"x_max":0,"o":"m 190 1207 l 228 1049 l 769 1168 l 732 1326 z m 946 269 b 489 613 946 474 669 551 b 308 726 332 665 308 682 b 471 799 308 776 371 799 b 683 646 592 799 683 765 l 906 646 b 471 993 906 840 771 993 b 86 735 218 993 86 901 b 461 418 86 543 254 488 b 724 267 604 369 724 338 b 533 181 724 214 676 181 b 264 378 339 181 264 228 l 42 378 b 526 -14 42 131 174 -14 b 946 269 828 -14 946 101 z "},"Š":{"ha":988,"x_min":0,"x_max":0,"o":"m 794 1251 l 676 1363 l 494 1236 l 313 1363 l 194 1251 l 494 1042 z m 946 269 b 489 613 946 474 669 551 b 308 726 332 665 308 682 b 471 799 308 776 371 799 b 683 646 592 799 683 765 l 906 646 b 471 993 906 840 771 993 b 86 735 218 993 86 901 b 461 418 86 543 254 488 b 724 267 604 369 724 338 b 533 181 724 214 676 181 b 264 378 339 181 264 228 l 42 378 b 526 -14 42 131 174 -14 b 946 269 828 -14 946 101 z "},"Ş":{"ha":988,"x_min":0,"x_max":0,"o":"m 946 269 b 489 613 946 474 669 551 b 308 726 332 665 308 682 b 471 799 308 776 371 799 b 683 646 592 799 683 765 l 906 646 b 471 993 906 840 771 993 b 86 735 218 993 86 901 b 461 418 86 543 254 488 b 724 267 604 369 724 338 b 533 181 724 214 676 181 b 264 378 339 181 264 228 l 42 378 b 406 -7 42 161 143 24 l 371 -82 l 442 -136 b 550 -111 497 -117 525 -111 b 582 -135 569 -111 582 -121 b 361 -167 582 -172 510 -167 l 361 -292 b 749 -142 558 -292 749 -278 b 629 -56 749 -72 686 -56 b 500 -83 583 -56 533 -68 l 563 -14 b 946 269 838 -4 946 108 z "},"Ș":{"ha":988,"x_min":0,"x_max":0,"o":"m 946 269 b 489 613 946 474 669 551 b 308 726 332 665 308 682 b 471 799 308 776 371 799 b 683 646 592 799 683 765 l 906 646 b 471 993 906 840 771 993 b 86 735 218 993 86 901 b 461 418 86 543 254 488 b 724 267 604 369 724 338 b 533 181 724 214 676 181 b 264 378 339 181 264 228 l 42 378 b 526 -14 42 131 174 -14 b 946 269 828 -14 946 101 z m 407 -68 l 321 -306 l 479 -357 l 565 -119 z "},"ẞ":{"ha":988,"x_min":0,"x_max":0,"o":"m 383 0 l 556 -14 b 946 254 828 -36 946 54 b 500 454 946 507 686 574 l 489 507 l 832 647 b 479 993 832 890 633 993 b 83 654 260 993 83 863 l 83 0 l 306 0 l 306 621 b 479 799 306 758 374 799 b 610 696 574 799 610 760 l 406 617 l 474 342 b 724 286 578 435 724 425 b 556 182 724 207 674 174 l 383 194 z "},"T":{"ha":946,"x_min":0,"x_max":0,"o":"m 904 979 l 42 979 l 42 785 l 363 785 l 363 0 l 585 0 l 585 785 l 904 785 z "},"Ŧ":{"ha":946,"x_min":0,"x_max":0,"o":"m 904 785 l 904 979 l 42 979 l 42 785 l 363 785 l 363 549 l 153 549 l 153 382 l 363 382 l 363 0 l 585 0 l 585 382 l 792 382 l 792 549 l 585 549 l 585 785 z "},"Ť":{"ha":946,"x_min":0,"x_max":0,"o":"m 774 1251 l 656 1363 l 474 1236 l 292 1363 l 174 1251 l 474 1042 z m 904 979 l 42 979 l 42 785 l 363 785 l 363 0 l 585 0 l 585 785 l 904 785 z "},"Ţ":{"ha":946,"x_min":0,"x_max":0,"o":"m 585 0 l 585 785 l 904 785 l 904 979 l 42 979 l 42 785 l 363 785 l 363 0 l 388 0 l 350 -82 l 421 -136 b 529 -111 476 -117 504 -111 b 561 -135 549 -111 561 -121 b 340 -167 561 -172 489 -167 l 340 -292 b 728 -142 538 -292 728 -278 b 608 -56 728 -72 665 -56 b 479 -83 563 -56 513 -68 l 554 0 z "},"Ț":{"ha":946,"x_min":0,"x_max":0,"o":"m 904 979 l 42 979 l 42 785 l 363 785 l 363 0 l 585 0 l 585 785 l 904 785 z m 300 -306 l 458 -357 l 544 -119 l 386 -68 z "},"U":{"ha":996,"x_min":0,"x_max":0,"o":"m 56 364 b 497 -14 56 119 207 -14 b 940 364 788 -14 940 119 l 940 979 l 718 979 l 718 463 b 497 181 718 288 701 181 b 278 463 293 181 278 288 l 278 979 l 56 979 z "},"Ú":{"ha":996,"x_min":0,"x_max":0,"o":"m 193 1207 l 231 1049 l 772 1168 l 735 1326 z m 56 364 b 497 -14 56 119 207 -14 b 940 364 788 -14 940 119 l 940 979 l 718 979 l 718 463 b 497 181 718 288 701 181 b 278 463 293 181 278 288 l 278 979 l 56 979 z "},"Û":{"ha":996,"x_min":0,"x_max":0,"o":"m 797 1144 l 497 1354 l 197 1144 l 315 1033 l 497 1160 l 679 1033 z m 56 364 b 497 -14 56 119 207 -14 b 940 364 788 -14 940 119 l 940 979 l 718 979 l 718 463 b 497 181 718 288 701 181 b 278 463 293 181 278 288 l 278 979 l 56 979 z "},"Ü":{"ha":996,"x_min":0,"x_max":0,"o":"m 315 1049 b 456 1160 404 1049 456 1088 b 315 1271 456 1231 404 1271 b 178 1160 226 1271 178 1231 b 315 1049 178 1088 226 1049 z m 676 1049 b 817 1160 765 1049 817 1088 b 676 1271 817 1231 765 1271 b 539 1160 588 1271 539 1231 b 676 1049 539 1088 588 1049 z m 56 364 b 497 -14 56 119 207 -14 b 940 364 788 -14 940 119 l 940 979 l 718 979 l 718 463 b 497 181 718 288 701 181 b 278 463 293 181 278 288 l 278 979 l 56 979 z "},"Ù":{"ha":996,"x_min":0,"x_max":0,"o":"m 800 1207 l 258 1326 l 221 1168 l 763 1049 z m 56 364 b 497 -14 56 119 207 -14 b 940 364 788 -14 940 119 l 940 979 l 718 979 l 718 463 b 497 181 718 288 701 181 b 278 463 293 181 278 288 l 278 979 l 56 979 z "},"Ű":{"ha":996,"x_min":0,"x_max":0,"o":"m 175 1157 l 292 1049 l 569 1283 l 453 1392 z m 522 1157 l 639 1049 l 917 1283 l 800 1392 z m 56 364 b 497 -14 56 119 207 -14 b 940 364 788 -14 940 119 l 940 979 l 718 979 l 718 463 b 497 181 718 288 701 181 b 278 463 293 181 278 288 l 278 979 l 56 979 z "},"Ū":{"ha":996,"x_min":0,"x_max":0,"o":"m 199 1278 l 199 1111 l 796 1114 l 796 1278 z m 56 364 b 497 -14 56 119 207 -14 b 940 364 788 -14 940 119 l 940 979 l 718 979 l 718 463 b 497 181 718 288 701 181 b 278 463 293 181 278 288 l 278 979 l 56 979 z "},"Ų":{"ha":996,"x_min":0,"x_max":0,"o":"m 718 979 l 718 463 b 497 181 718 288 701 181 b 278 463 293 181 278 288 l 278 979 l 56 979 l 56 364 b 479 -14 56 125 200 -8 l 403 -131 b 521 -278 357 -200 422 -286 l 778 -257 l 778 -90 l 589 -110 l 640 -1 b 940 364 838 38 940 164 l 940 979 z "},"Ů":{"ha":996,"x_min":0,"x_max":0,"o":"m 496 1049 b 715 1219 631 1049 715 1106 b 496 1390 715 1333 631 1390 b 278 1219 361 1390 278 1333 b 496 1049 278 1104 361 1049 z m 496 1174 b 444 1219 467 1174 444 1185 b 496 1264 444 1253 467 1264 b 549 1219 525 1264 549 1253 b 496 1174 549 1185 526 1174 z m 56 364 b 497 -14 56 119 207 -14 b 940 364 788 -14 940 119 l 940 979 l 718 979 l 718 463 b 497 181 718 288 701 181 b 278 463 293 181 278 288 l 278 979 l 56 979 z "},"V":{"ha":1079,"x_min":0,"x_max":0,"o":"m 28 979 l 310 0 l 768 0 l 1051 979 l 826 979 l 567 56 l 511 56 l 253 979 z "},"W":{"ha":1622,"x_min":0,"x_max":0,"o":"m 28 979 l 196 0 l 657 0 l 783 924 l 839 924 l 965 0 l 1426 0 l 1594 979 l 1379 979 l 1224 56 l 1168 56 l 1047 979 l 575 979 l 454 56 l 399 56 l 243 979 z "},"Ẃ":{"ha":1622,"x_min":0,"x_max":0,"o":"m 507 1207 l 544 1049 l 1086 1168 l 1049 1326 z m 28 979 l 196 0 l 657 0 l 783 924 l 839 924 l 965 0 l 1426 0 l 1594 979 l 1379 979 l 1224 56 l 1168 56 l 1047 979 l 575 979 l 454 56 l 399 56 l 243 979 z "},"Ŵ":{"ha":1622,"x_min":0,"x_max":0,"o":"m 1111 1144 l 811 1354 l 511 1144 l 629 1033 l 811 1160 l 993 1033 z m 28 979 l 196 0 l 657 0 l 783 924 l 839 924 l 965 0 l 1426 0 l 1594 979 l 1379 979 l 1224 56 l 1168 56 l 1047 979 l 575 979 l 454 56 l 399 56 l 243 979 z "},"Ẅ":{"ha":1622,"x_min":0,"x_max":0,"o":"m 629 1049 b 769 1160 718 1049 769 1088 b 629 1271 769 1231 718 1271 b 492 1160 540 1271 492 1231 b 629 1049 492 1088 540 1049 z m 990 1049 b 1131 1160 1079 1049 1131 1088 b 990 1271 1131 1231 1079 1271 b 853 1160 901 1271 853 1231 b 990 1049 853 1088 901 1049 z m 28 979 l 196 0 l 657 0 l 783 924 l 839 924 l 965 0 l 1426 0 l 1594 979 l 1379 979 l 1224 56 l 1168 56 l 1047 979 l 575 979 l 454 56 l 399 56 l 243 979 z "},"Ẁ":{"ha":1622,"x_min":0,"x_max":0,"o":"m 1114 1207 l 572 1326 l 535 1168 l 1076 1049 z m 28 979 l 196 0 l 657 0 l 783 924 l 839 924 l 965 0 l 1426 0 l 1594 979 l 1379 979 l 1224 56 l 1168 56 l 1047 979 l 575 979 l 454 56 l 399 56 l 243 979 z "},"X":{"ha":1096,"x_min":0,"x_max":0,"o":"m 28 0 l 283 0 l 547 376 l 813 0 l 1068 0 l 736 463 l 736 518 l 1068 979 l 813 979 l 547 604 l 283 979 l 28 979 l 358 518 l 358 463 z "},"Y":{"ha":1004,"x_min":0,"x_max":0,"o":"m 739 979 l 529 571 l 529 446 l 474 446 l 474 571 l 265 979 l 28 979 l 390 315 l 390 0 l 613 0 l 613 315 l 976 979 z "},"Ý":{"ha":1004,"x_min":0,"x_max":0,"o":"m 197 1207 l 235 1049 l 776 1168 l 739 1326 z m 739 979 l 529 571 l 529 446 l 474 446 l 474 571 l 265 979 l 28 979 l 390 315 l 390 0 l 613 0 l 613 315 l 976 979 z "},"Ŷ":{"ha":1004,"x_min":0,"x_max":0,"o":"m 801 1144 l 501 1354 l 201 1144 l 319 1033 l 501 1160 l 683 1033 z m 739 979 l 529 571 l 529 446 l 474 446 l 474 571 l 265 979 l 28 979 l 390 315 l 390 0 l 613 0 l 613 315 l 976 979 z "},"Ÿ":{"ha":1004,"x_min":0,"x_max":0,"o":"m 319 1049 b 460 1160 408 1049 460 1088 b 319 1271 460 1231 408 1271 b 182 1160 231 1271 182 1231 b 319 1049 182 1088 231 1049 z m 681 1049 b 821 1160 769 1049 821 1088 b 681 1271 821 1231 769 1271 b 543 1160 592 1271 543 1231 b 681 1049 543 1088 592 1049 z m 739 979 l 529 571 l 529 446 l 474 446 l 474 571 l 265 979 l 28 979 l 390 315 l 390 0 l 613 0 l 613 315 l 976 979 z "},"Ỳ":{"ha":1004,"x_min":0,"x_max":0,"o":"m 804 1207 l 263 1326 l 225 1168 l 767 1049 z m 739 979 l 529 571 l 529 446 l 474 446 l 474 571 l 265 979 l 28 979 l 390 315 l 390 0 l 613 0 l 613 315 l 976 979 z "},"Z":{"ha":926,"x_min":0,"x_max":0,"o":"m 56 0 l 871 0 l 871 194 l 236 194 l 111 153 l 111 208 l 871 569 l 871 979 l 56 979 l 56 785 l 690 785 l 815 826 l 815 771 l 56 410 z "},"Ź":{"ha":926,"x_min":0,"x_max":0,"o":"m 160 1207 l 197 1049 l 739 1168 l 701 1326 z m 56 0 l 871 0 l 871 194 l 236 194 l 111 153 l 111 208 l 871 569 l 871 979 l 56 979 l 56 785 l 690 785 l 815 826 l 815 771 l 56 410 z "},"Ž":{"ha":926,"x_min":0,"x_max":0,"o":"m 764 1251 l 646 1363 l 464 1236 l 282 1363 l 164 1251 l 464 1042 z m 56 0 l 871 0 l 871 194 l 236 194 l 111 153 l 111 208 l 871 569 l 871 979 l 56 979 l 56 785 l 690 785 l 815 826 l 815 771 l 56 410 z "},"Ż":{"ha":926,"x_min":0,"x_max":0,"o":"m 463 1049 b 603 1160 551 1049 603 1088 b 463 1271 603 1231 551 1271 b 325 1160 374 1271 325 1231 b 463 1049 325 1088 374 1049 z m 56 0 l 871 0 l 871 194 l 236 194 l 111 153 l 111 208 l 871 569 l 871 979 l 56 979 l 56 785 l 690 785 l 815 826 l 815 771 l 56 410 z "},"a":{"ha":894,"x_min":0,"x_max":0,"o":"m 56 192 b 311 -14 56 119 93 -14 b 601 201 507 -14 575 85 l 657 201 l 622 118 l 622 104 b 726 0 622 38 660 0 l 881 0 l 881 194 l 779 194 l 779 392 b 417 715 779 622 610 715 b 69 433 221 715 69 611 l 278 433 b 417 535 278 497 328 535 b 557 443 513 535 557 500 l 336 413 b 56 192 128 383 56 313 z m 278 233 b 378 293 278 274 311 283 l 557 318 b 354 181 557 232 476 181 b 278 233 317 181 278 193 z "},"á":{"ha":894,"x_min":0,"x_max":0,"o":"m 126 929 l 164 771 l 706 890 l 668 1049 z m 56 192 b 311 -14 56 119 93 -14 b 601 201 507 -14 575 85 l 657 201 l 622 118 l 622 104 b 726 0 622 38 660 0 l 881 0 l 881 194 l 779 194 l 779 392 b 417 715 779 622 610 715 b 69 433 221 715 69 611 l 278 433 b 417 535 278 497 328 535 b 557 443 513 535 557 500 l 336 413 b 56 192 128 383 56 313 z m 278 233 b 378 293 278 274 311 283 l 557 318 b 354 181 557 232 476 181 b 278 233 317 181 278 193 z "},"ă":{"ha":894,"x_min":0,"x_max":0,"o":"m 685 1047 l 518 1047 b 431 924 518 950 485 924 b 343 1047 376 924 343 950 l 176 1047 b 431 771 176 906 243 771 b 685 1047 618 771 685 906 z m 56 192 b 311 -14 56 119 93 -14 b 601 201 507 -14 575 85 l 657 201 l 622 118 l 622 104 b 726 0 622 38 660 0 l 881 0 l 881 194 l 779 194 l 779 392 b 417 715 779 622 610 715 b 69 433 221 715 69 611 l 278 433 b 417 535 278 497 328 535 b 557 443 513 535 557 500 l 336 413 b 56 192 128 383 56 313 z m 278 233 b 378 293 278 274 311 283 l 557 318 b 354 181 557 232 476 181 b 278 233 317 181 278 193 z "},"â":{"ha":894,"x_min":0,"x_max":0,"o":"m 731 867 l 431 1076 l 131 867 l 249 756 l 431 882 l 613 756 z m 56 192 b 311 -14 56 119 93 -14 b 601 201 507 -14 575 85 l 657 201 l 622 118 l 622 104 b 726 0 622 38 660 0 l 881 0 l 881 194 l 779 194 l 779 392 b 417 715 779 622 610 715 b 69 433 221 715 69 611 l 278 433 b 417 535 278 497 328 535 b 557 443 513 535 557 500 l 336 413 b 56 192 128 383 56 313 z m 278 233 b 378 293 278 274 311 283 l 557 318 b 354 181 557 232 476 181 b 278 233 317 181 278 193 z "},"ä":{"ha":894,"x_min":0,"x_max":0,"o":"m 249 771 b 389 882 338 771 389 810 b 249 993 389 953 338 993 b 111 882 160 993 111 953 b 249 771 111 810 160 771 z m 610 771 b 750 882 699 771 750 810 b 610 993 750 953 699 993 b 472 882 521 993 472 953 b 610 771 472 810 521 771 z m 56 192 b 311 -14 56 119 93 -14 b 601 201 507 -14 575 85 l 657 201 l 622 118 l 622 104 b 726 0 622 38 660 0 l 881 0 l 881 194 l 779 194 l 779 392 b 417 715 779 622 610 715 b 69 433 221 715 69 611 l 278 433 b 417 535 278 497 328 535 b 557 443 513 535 557 500 l 336 413 b 56 192 128 383 56 313 z m 278 233 b 378 293 278 274 311 283 l 557 318 b 354 181 557 232 476 181 b 278 233 317 181 278 193 z "},"à":{"ha":894,"x_min":0,"x_max":0,"o":"m 733 929 l 192 1049 l 154 890 l 696 771 z m 56 192 b 311 -14 56 119 93 -14 b 601 201 507 -14 575 85 l 657 201 l 622 118 l 622 104 b 726 0 622 38 660 0 l 881 0 l 881 194 l 779 194 l 779 392 b 417 715 779 622 610 715 b 69 433 221 715 69 611 l 278 433 b 417 535 278 497 328 535 b 557 443 513 535 557 500 l 336 413 b 56 192 128 383 56 313 z m 278 233 b 378 293 278 274 311 283 l 557 318 b 354 181 557 232 476 181 b 278 233 317 181 278 193 z "},"ā":{"ha":894,"x_min":0,"x_max":0,"o":"m 132 1000 l 132 833 l 729 836 l 729 1000 z m 56 192 b 311 -14 56 119 93 -14 b 601 201 507 -14 575 85 l 657 201 l 622 118 l 622 104 b 726 0 622 38 660 0 l 881 0 l 881 194 l 779 194 l 779 392 b 417 715 779 622 610 715 b 69 433 221 715 69 611 l 278 433 b 417 535 278 497 328 535 b 557 443 513 535 557 500 l 336 413 b 56 192 128 383 56 313 z m 278 233 b 378 293 278 274 311 283 l 557 318 b 354 181 557 232 476 181 b 278 233 317 181 278 193 z "},"ą":{"ha":894,"x_min":0,"x_max":0,"o":"m 828 -110 l 881 0 l 881 194 l 779 194 l 779 392 b 417 715 779 622 610 715 b 69 433 221 715 69 611 l 278 433 b 417 535 278 497 328 535 b 557 443 513 535 557 500 l 336 413 b 56 192 128 383 56 313 b 311 -14 56 119 93 -14 b 601 201 507 -14 575 85 l 657 201 l 622 118 l 622 104 b 726 0 622 38 660 0 l 642 -131 b 760 -278 596 -200 661 -286 l 1017 -257 l 1017 -90 z m 354 181 b 278 233 317 181 278 193 b 378 293 278 274 311 283 l 557 318 b 354 181 557 232 476 181 z "},"å":{"ha":894,"x_min":0,"x_max":0,"o":"m 429 771 b 649 942 564 771 649 828 b 429 1113 649 1056 564 1113 b 211 942 294 1113 211 1056 b 429 771 211 826 294 771 z m 429 896 b 378 942 400 896 378 907 b 429 986 378 975 400 986 b 482 942 458 986 482 975 b 429 896 482 907 460 896 z m 56 192 b 311 -14 56 119 93 -14 b 601 201 507 -14 575 85 l 657 201 l 622 118 l 622 104 b 726 0 622 38 660 0 l 881 0 l 881 194 l 779 194 l 779 392 b 417 715 779 622 610 715 b 69 433 221 715 69 611 l 278 433 b 417 535 278 497 328 535 b 557 443 513 535 557 500 l 336 413 b 56 192 128 383 56 313 z m 278 233 b 378 293 278 274 311 283 l 557 318 b 354 181 557 232 476 181 b 278 233 317 181 278 193 z "},"ã":{"ha":894,"x_min":0,"x_max":0,"o":"m 106 833 l 272 833 b 324 931 272 917 293 931 b 551 819 385 931 424 819 b 756 1083 679 819 756 922 l 589 1083 b 538 986 589 1000 568 986 b 310 1097 476 986 438 1097 b 106 833 182 1097 106 994 z m 56 192 b 311 -14 56 119 93 -14 b 601 201 507 -14 575 85 l 657 201 l 622 118 l 622 104 b 726 0 622 38 660 0 l 881 0 l 881 194 l 779 194 l 779 392 b 417 715 779 622 610 715 b 69 433 221 715 69 611 l 278 433 b 417 535 278 497 328 535 b 557 443 513 535 557 500 l 336 413 b 56 192 128 383 56 313 z m 278 233 b 378 293 278 274 311 283 l 557 318 b 354 181 557 232 476 181 b 278 233 317 181 278 193 z "},"æ":{"ha":1446,"x_min":0,"x_max":0,"o":"m 1168 247 b 1018 167 1154 194 1096 167 b 833 304 892 167 833 224 l 1365 304 l 1365 374 b 994 715 1365 586 1213 715 b 693 581 864 715 757 667 b 417 715 636 675 535 715 b 69 433 221 715 69 611 l 278 433 b 417 535 278 497 328 535 b 557 443 513 535 557 500 l 336 413 b 56 192 128 383 56 313 b 311 -14 56 119 93 -14 b 601 201 493 -14 575 85 l 654 201 b 1018 -14 706 76 824 -14 b 1390 247 1261 -14 1376 146 z m 994 535 b 1157 429 1118 535 1157 482 l 833 429 b 994 535 833 482 871 535 z m 354 181 b 278 229 317 181 278 188 b 378 293 278 274 311 283 l 557 318 b 354 181 557 232 476 181 z "},"b":{"ha":956,"x_min":0,"x_max":0,"o":"m 83 0 l 306 0 l 306 43 l 264 168 l 319 168 b 596 -14 356 75 422 -14 b 900 351 799 -14 900 153 b 596 715 900 550 799 715 b 319 533 422 715 356 626 l 264 533 l 306 658 l 306 1021 l 83 1021 z m 306 351 b 492 521 306 469 372 521 b 678 351 611 521 678 469 b 492 181 678 233 611 181 b 306 351 372 181 306 233 z "},"c":{"ha":871,"x_min":0,"x_max":0,"o":"m 56 351 b 439 -14 56 117 215 -14 b 815 290 631 -14 806 90 l 593 290 b 439 181 585 228 528 181 b 278 351 333 181 278 243 b 439 521 278 458 333 521 b 593 411 528 521 585 474 l 815 411 b 439 715 806 611 631 715 b 56 351 215 715 56 585 z "},"ć":{"ha":871,"x_min":0,"x_max":0,"o":"m 135 929 l 172 771 l 714 890 l 676 1049 z m 56 351 b 439 -14 56 117 215 -14 b 815 290 631 -14 806 90 l 593 290 b 439 181 585 228 528 181 b 278 351 333 181 278 243 b 439 521 278 458 333 521 b 593 411 528 521 585 474 l 815 411 b 439 715 806 611 631 715 b 56 351 215 715 56 585 z "},"č":{"ha":871,"x_min":0,"x_max":0,"o":"m 739 974 l 621 1085 l 439 958 l 257 1085 l 139 974 l 439 764 z m 56 351 b 439 -14 56 117 215 -14 b 815 290 631 -14 806 90 l 593 290 b 439 181 585 228 528 181 b 278 351 333 181 278 243 b 439 521 278 458 333 521 b 593 411 528 521 585 474 l 815 411 b 439 715 806 611 631 715 b 56 351 215 715 56 585 z "},"ç":{"ha":871,"x_min":0,"x_max":0,"o":"m 439 181 b 278 351 333 181 278 243 b 439 521 278 458 333 521 b 593 411 528 521 585 474 l 815 411 b 439 715 806 611 631 715 b 56 351 215 715 56 585 b 347 -6 56 150 172 25 l 313 -82 l 383 -136 b 492 -111 439 -117 467 -111 b 524 -135 511 -111 524 -121 b 303 -167 524 -172 451 -167 l 303 -292 b 690 -142 500 -292 690 -278 b 571 -56 690 -72 628 -56 b 442 -83 525 -56 475 -68 l 508 -10 b 815 290 671 13 807 115 l 593 290 b 439 181 585 228 528 181 z "},"ċ":{"ha":871,"x_min":0,"x_max":0,"o":"m 438 771 b 578 882 526 771 578 810 b 438 993 578 953 526 993 b 300 882 349 993 300 953 b 438 771 300 810 349 771 z m 56 351 b 439 -14 56 117 215 -14 b 815 290 631 -14 806 90 l 593 290 b 439 181 585 228 528 181 b 278 351 333 181 278 243 b 439 521 278 458 333 521 b 593 411 528 521 585 474 l 815 411 b 439 715 806 611 631 715 b 56 351 215 715 56 585 z "},"d":{"ha":956,"x_min":0,"x_max":0,"o":"m 872 0 l 872 1021 l 650 1021 l 650 658 l 692 533 l 636 533 b 360 715 600 626 533 715 b 56 351 157 715 56 550 b 360 -14 56 153 157 -14 b 636 168 533 -14 600 75 l 692 168 l 650 43 l 650 0 z m 650 351 b 464 181 650 233 583 181 b 278 351 344 181 278 233 b 464 521 278 469 344 521 b 650 351 583 521 650 469 z "},"ð":{"ha":976,"x_min":0,"x_max":0,"o":"m 707 917 l 826 993 l 679 1058 l 578 993 b 233 1079 478 1038 361 1065 l 233 885 b 374 861 283 878 331 871 l 282 803 l 429 738 l 544 811 b 792 511 688 753 774 660 l 833 386 l 778 386 b 443 715 761 576 654 715 b 56 350 200 715 56 553 b 483 -14 56 139 219 -14 b 921 443 753 -14 921 157 b 707 917 921 661 842 814 z m 489 181 b 278 350 349 181 278 244 b 489 521 278 472 349 521 b 699 350 629 521 699 472 b 489 181 699 244 629 181 z "},"ď":{"ha":1206,"x_min":0,"x_max":0,"o":"m 997 1076 l 997 632 l 1164 632 l 1164 1076 z m 872 0 l 872 1021 l 650 1021 l 650 658 l 692 533 l 636 533 b 360 715 600 626 533 715 b 56 351 157 715 56 550 b 360 -14 56 153 157 -14 b 636 168 533 -14 600 75 l 692 168 l 650 43 l 650 0 z m 650 351 b 464 181 650 233 583 181 b 278 351 344 181 278 233 b 464 521 278 469 344 521 b 650 351 583 521 650 469 z "},"đ":{"ha":997,"x_min":0,"x_max":0,"o":"m 956 954 l 872 954 l 872 1021 l 650 1021 l 650 954 l 456 954 l 456 788 l 650 788 l 650 658 l 692 533 l 636 533 b 360 715 600 626 533 715 b 56 351 157 715 56 550 b 360 -14 56 153 157 -14 b 636 168 533 -14 600 75 l 692 168 l 650 43 l 650 0 l 872 0 l 872 788 l 956 788 z m 464 181 b 278 351 344 181 278 233 b 464 521 278 469 344 521 b 650 351 583 521 650 469 b 464 181 650 233 583 181 z "},"e":{"ha":876,"x_min":0,"x_max":0,"o":"m 56 360 b 449 -14 56 161 179 -14 b 821 247 692 -14 807 146 l 599 247 b 449 167 585 194 526 167 b 264 304 322 167 264 224 l 796 304 l 796 374 b 425 715 796 586 643 715 b 56 360 207 715 56 582 z m 264 429 b 425 535 264 482 301 535 b 588 429 549 535 588 482 z "},"é":{"ha":876,"x_min":0,"x_max":0,"o":"m 135 929 l 172 771 l 714 890 l 676 1049 z m 56 360 b 449 -14 56 161 179 -14 b 821 247 692 -14 807 146 l 599 247 b 449 167 585 194 526 167 b 264 304 322 167 264 224 l 796 304 l 796 374 b 425 715 796 586 643 715 b 56 360 207 715 56 582 z m 264 429 b 425 535 264 482 301 535 b 588 429 549 535 588 482 z "},"ě":{"ha":876,"x_min":0,"x_max":0,"o":"m 739 974 l 621 1085 l 439 958 l 257 1085 l 139 974 l 439 764 z m 56 360 b 449 -14 56 161 179 -14 b 821 247 692 -14 807 146 l 599 247 b 449 167 585 194 526 167 b 264 304 322 167 264 224 l 796 304 l 796 374 b 425 715 796 586 643 715 b 56 360 207 715 56 582 z m 264 429 b 425 535 264 482 301 535 b 588 429 549 535 588 482 z "},"ê":{"ha":876,"x_min":0,"x_max":0,"o":"m 739 867 l 439 1076 l 139 867 l 257 756 l 439 882 l 621 756 z m 56 360 b 449 -14 56 161 179 -14 b 821 247 692 -14 807 146 l 599 247 b 449 167 585 194 526 167 b 264 304 322 167 264 224 l 796 304 l 796 374 b 425 715 796 586 643 715 b 56 360 207 715 56 582 z m 264 429 b 425 535 264 482 301 535 b 588 429 549 535 588 482 z "},"ë":{"ha":876,"x_min":0,"x_max":0,"o":"m 257 771 b 397 882 346 771 397 810 b 257 993 397 953 346 993 b 119 882 168 993 119 953 b 257 771 119 810 168 771 z m 618 771 b 758 882 707 771 758 810 b 618 993 758 953 707 993 b 481 882 529 993 481 953 b 618 771 481 810 529 771 z m 56 360 b 449 -14 56 161 179 -14 b 821 247 692 -14 807 146 l 599 247 b 449 167 585 194 526 167 b 264 304 322 167 264 224 l 796 304 l 796 374 b 425 715 796 586 643 715 b 56 360 207 715 56 582 z m 264 429 b 425 535 264 482 301 535 b 588 429 549 535 588 482 z "},"ė":{"ha":876,"x_min":0,"x_max":0,"o":"m 438 771 b 578 882 526 771 578 810 b 438 993 578 953 526 993 b 300 882 349 993 300 953 b 438 771 300 810 349 771 z m 56 360 b 449 -14 56 161 179 -14 b 821 247 692 -14 807 146 l 599 247 b 449 167 585 194 526 167 b 264 304 322 167 264 224 l 796 304 l 796 374 b 425 715 796 586 643 715 b 56 360 207 715 56 582 z m 264 429 b 425 535 264 482 301 535 b 588 429 549 535 588 482 z "},"è":{"ha":876,"x_min":0,"x_max":0,"o":"m 742 929 l 200 1049 l 163 890 l 704 771 z m 56 360 b 449 -14 56 161 179 -14 b 821 247 692 -14 807 146 l 599 247 b 449 167 585 194 526 167 b 264 304 322 167 264 224 l 796 304 l 796 374 b 425 715 796 586 643 715 b 56 360 207 715 56 582 z m 264 429 b 425 535 264 482 301 535 b 588 429 549 535 588 482 z "},"ē":{"ha":876,"x_min":0,"x_max":0,"o":"m 140 1000 l 140 833 l 738 836 l 738 1000 z m 56 360 b 449 -14 56 161 179 -14 b 821 247 692 -14 807 146 l 599 247 b 449 167 585 194 526 167 b 264 304 322 167 264 224 l 796 304 l 796 374 b 425 715 796 586 643 715 b 56 360 207 715 56 582 z m 264 429 b 425 535 264 482 301 535 b 588 429 549 535 588 482 z "},"ę":{"ha":876,"x_min":0,"x_max":0,"o":"m 821 247 l 599 247 b 449 167 585 194 526 167 b 264 304 322 167 264 224 l 796 304 l 796 374 b 425 715 796 586 643 715 b 56 360 207 715 56 582 b 403 -12 56 172 165 7 l 325 -131 b 443 -278 279 -200 344 -286 l 700 -257 l 700 -90 l 511 -110 l 563 -1 b 821 247 728 39 810 164 z m 425 535 b 588 429 549 535 588 482 l 264 429 b 425 535 264 482 301 535 z "},"f":{"ha":653,"x_min":0,"x_max":0,"o":"m 492 826 l 639 826 l 639 1021 l 519 1021 b 175 726 285 1021 175 915 l 175 701 l 42 701 l 42 507 l 175 507 l 175 194 l 42 194 l 42 0 l 600 0 l 600 194 l 397 194 l 397 507 l 600 507 l 600 701 l 397 701 l 397 719 b 492 826 397 797 426 826 z "},"g":{"ha":981,"x_min":0,"x_max":0,"o":"m 906 701 b 729 640 843 701 771 694 b 451 715 656 694 558 715 b 56 442 231 715 56 626 b 583 265 56 211 326 174 l 583 210 b 151 146 456 179 311 163 l 175 21 b 642 0 390 57 642 103 b 101 -83 642 -76 556 -83 l 101 -278 b 865 -47 622 -278 865 -254 b 557 133 865 101 717 143 b 874 414 750 199 874 282 b 854 494 874 451 863 483 b 919 507 874 507 899 507 l 967 507 l 967 701 z m 465 335 b 278 428 332 335 278 368 b 465 521 278 486 332 521 b 651 428 599 521 651 486 b 465 335 651 368 599 335 z "},"ğ":{"ha":981,"x_min":0,"x_max":0,"o":"m 465 771 b 719 1047 653 771 719 906 l 553 1047 b 465 924 553 950 519 924 b 378 1047 411 924 378 950 l 211 1047 b 465 771 211 906 278 771 z m 906 701 b 729 640 843 701 771 694 b 451 715 656 694 558 715 b 56 442 231 715 56 626 b 583 265 56 211 326 174 l 583 210 b 151 146 456 179 311 163 l 175 21 b 642 0 390 57 642 103 b 101 -83 642 -76 556 -83 l 101 -278 b 865 -47 622 -278 865 -254 b 557 133 865 101 717 143 b 874 414 750 199 874 282 b 854 494 874 451 863 483 b 919 507 874 507 899 507 l 967 507 l 967 701 z m 465 335 b 278 428 332 335 278 368 b 465 521 278 486 332 521 b 651 428 599 521 651 486 b 465 335 651 368 599 335 z "},"ģ":{"ha":981,"x_min":0,"x_max":0,"o":"m 632 1072 l 471 1115 l 369 814 l 531 771 z m 906 701 b 729 640 843 701 771 694 b 451 715 656 694 558 715 b 56 442 231 715 56 626 b 583 265 56 211 326 174 l 583 210 b 151 146 456 179 311 163 l 175 21 b 642 0 390 57 642 103 b 101 -83 642 -76 556 -83 l 101 -278 b 865 -47 622 -278 865 -254 b 557 133 865 101 717 143 b 874 414 750 199 874 282 b 854 494 874 451 863 483 b 919 507 874 507 899 507 l 967 507 l 967 701 z m 465 335 b 278 428 332 335 278 368 b 465 521 278 486 332 521 b 651 428 599 521 651 486 b 465 335 651 368 599 335 z "},"ġ":{"ha":981,"x_min":0,"x_max":0,"o":"m 464 771 b 604 882 553 771 604 810 b 464 993 604 953 553 993 b 326 882 375 993 326 953 b 464 771 326 810 375 771 z m 906 701 b 729 640 843 701 771 694 b 451 715 656 694 558 715 b 56 442 231 715 56 626 b 583 265 56 211 326 174 l 583 210 b 151 146 456 179 311 163 l 175 21 b 642 0 390 57 642 103 b 101 -83 642 -76 556 -83 l 101 -278 b 865 -47 622 -278 865 -254 b 557 133 865 101 717 143 b 874 414 750 199 874 282 b 854 494 874 451 863 483 b 919 507 874 507 899 507 l 967 507 l 967 701 z m 465 335 b 278 428 332 335 278 368 b 465 521 278 486 332 521 b 651 428 599 521 651 486 b 465 335 651 368 599 335 z "},"h":{"ha":942,"x_min":0,"x_max":0,"o":"m 585 715 b 319 492 435 715 347 617 l 264 492 l 306 617 l 306 1021 l 83 1021 l 83 0 l 306 0 l 306 260 b 506 521 306 457 385 521 b 650 344 613 521 650 472 l 650 0 l 872 0 l 872 379 b 585 715 872 596 764 715 z "},"ħ":{"ha":997,"x_min":0,"x_max":0,"o":"m 640 715 b 375 492 490 715 403 617 l 319 492 l 361 617 l 361 788 l 556 788 l 556 954 l 361 954 l 361 1021 l 139 1021 l 139 954 l 56 954 l 56 788 l 139 788 l 139 0 l 361 0 l 361 260 b 561 521 361 457 440 521 b 706 344 668 521 706 472 l 706 0 l 928 0 l 928 379 b 640 715 928 596 819 715 z "},"i":{"ha":694,"x_min":0,"x_max":0,"o":"m 343 771 b 476 882 425 771 476 810 b 343 993 476 953 425 993 b 213 882 261 993 213 953 b 343 771 213 810 261 771 z m 56 0 l 667 0 l 667 194 l 468 194 l 468 599 b 347 715 468 676 425 719 l 83 701 l 83 507 l 254 515 l 254 194 l 56 194 z "},"ı":{"ha":694,"x_min":0,"x_max":0,"o":"m 56 0 l 667 0 l 667 194 l 468 194 l 468 599 b 347 715 468 676 425 719 l 83 701 l 83 507 l 254 515 l 254 194 l 56 194 z "},"í":{"ha":721,"x_min":0,"x_max":0,"o":"m 56 929 l 93 771 l 635 890 l 597 1049 z m 82 0 l 693 0 l 693 194 l 494 194 l 494 599 b 374 715 494 676 451 719 l 110 701 l 110 507 l 281 515 l 281 194 l 82 194 z "},"î":{"ha":717,"x_min":0,"x_max":0,"o":"m 642 867 l 342 1076 l 42 867 l 160 756 l 342 882 l 524 756 z m 78 0 l 689 0 l 689 194 l 490 194 l 490 599 b 369 715 490 676 447 719 l 106 701 l 106 507 l 276 515 l 276 194 l 78 194 z "},"ï":{"ha":721,"x_min":0,"x_max":0,"o":"m 178 771 b 318 882 267 771 318 810 b 178 993 318 953 267 993 b 40 882 89 993 40 953 b 178 771 40 810 89 771 z m 539 771 b 679 882 628 771 679 810 b 539 993 679 953 628 993 b 401 882 450 993 401 953 b 539 771 401 810 450 771 z m 82 0 l 693 0 l 693 194 l 494 194 l 494 599 b 374 715 494 676 451 719 l 110 701 l 110 507 l 281 515 l 281 194 l 82 194 z "},"ì":{"ha":694,"x_min":0,"x_max":0,"o":"m 622 929 l 81 1049 l 43 890 l 585 771 z m 56 0 l 667 0 l 667 194 l 468 194 l 468 599 b 347 715 468 676 425 719 l 83 701 l 83 507 l 254 515 l 254 194 l 56 194 z "},"ī":{"ha":715,"x_min":0,"x_max":0,"o":"m 56 1000 l 56 833 l 653 836 l 653 1000 z m 76 0 l 688 0 l 688 194 l 489 194 l 489 599 b 368 715 489 676 446 719 l 104 701 l 104 507 l 275 515 l 275 194 l 76 194 z "},"į":{"ha":694,"x_min":0,"x_max":0,"o":"m 318 771 b 458 882 407 771 458 810 b 318 993 458 953 407 993 b 181 882 229 993 181 953 b 318 771 181 810 229 771 z m 667 0 l 667 194 l 468 194 l 468 599 b 347 715 468 676 425 719 l 83 701 l 83 507 l 254 515 l 254 194 l 56 194 l 56 0 l 363 0 l 278 -131 b 396 -278 232 -200 297 -286 l 653 -257 l 653 -90 l 464 -110 l 517 0 z "},"j":{"ha":482,"x_min":0,"x_max":0,"o":"m 286 771 b 419 882 368 771 419 810 b 286 993 419 953 368 993 b 156 882 204 993 156 953 b 286 771 156 810 204 771 z m 14 -278 l 264 -278 l 392 -53 b 415 42 410 -19 415 6 l 415 596 b 296 711 415 672 372 714 l 14 701 l 14 507 l 185 515 l 185 58 b 161 -36 185 22 179 -7 z "},"k":{"ha":929,"x_min":0,"x_max":0,"o":"m 635 0 l 888 0 l 650 360 l 758 410 b 846 549 819 439 846 482 l 846 701 l 624 701 l 626 575 l 306 428 l 306 1021 l 83 1021 l 83 0 l 306 0 l 306 199 l 460 271 z "},"ķ":{"ha":929,"x_min":0,"x_max":0,"o":"m 650 360 l 758 410 b 846 549 819 439 846 482 l 846 701 l 624 701 l 626 575 l 306 428 l 306 1021 l 83 1021 l 83 0 l 306 0 l 306 199 l 460 271 l 635 0 l 888 0 z m 292 -306 l 450 -357 l 536 -119 l 378 -68 z "},"l":{"ha":681,"x_min":0,"x_max":0,"o":"m 42 0 l 653 0 l 653 194 l 458 194 l 458 914 b 338 1031 458 992 415 1033 l 69 1021 l 69 826 l 236 835 l 236 194 l 42 194 z "},"ĺ":{"ha":711,"x_min":0,"x_max":0,"o":"m 39 1249 l 76 1090 l 618 1210 l 581 1368 z m 72 0 l 683 0 l 683 194 l 489 194 l 489 914 b 368 1031 489 992 446 1033 l 100 1021 l 100 826 l 267 835 l 267 194 l 72 194 z "},"ľ":{"ha":750,"x_min":0,"x_max":0,"o":"m 556 1076 l 556 632 l 722 632 l 722 1076 z m 42 0 l 653 0 l 653 194 l 458 194 l 458 914 b 338 1031 458 992 415 1033 l 69 1021 l 69 826 l 236 835 l 236 194 l 42 194 z "},"ļ":{"ha":681,"x_min":0,"x_max":0,"o":"m 42 0 l 653 0 l 653 194 l 458 194 l 458 914 b 338 1031 458 992 415 1033 l 69 1021 l 69 826 l 236 835 l 236 194 l 42 194 z m 253 -68 l 167 -306 l 325 -357 l 411 -119 z "},"ł":{"ha":681,"x_min":0,"x_max":0,"o":"m 458 194 l 458 451 l 636 500 l 594 660 l 458 622 l 458 914 b 338 1031 458 992 415 1033 l 69 1021 l 69 826 l 236 835 l 236 563 l 58 514 l 100 354 l 236 392 l 236 194 l 42 194 l 42 0 l 653 0 l 653 194 z "},"m":{"ha":1325,"x_min":0,"x_max":0,"o":"m 1022 715 b 796 506 886 715 824 631 l 756 506 b 547 715 735 628 679 715 b 319 506 411 715 347 631 l 264 506 l 306 631 l 306 701 l 83 701 l 83 0 l 306 0 l 306 246 b 454 521 306 415 333 521 b 558 350 536 521 558 483 l 558 0 l 781 0 l 781 246 b 929 521 781 415 808 521 b 1033 350 1011 521 1033 483 l 1033 0 l 1256 0 l 1256 365 b 1022 715 1256 554 1201 715 z "},"n":{"ha":942,"x_min":0,"x_max":0,"o":"m 506 521 b 650 344 613 521 650 472 l 650 0 l 872 0 l 872 379 b 585 715 872 596 764 715 b 319 492 435 715 347 617 l 264 492 l 306 617 l 306 701 l 83 701 l 83 0 l 306 0 l 306 260 b 506 521 306 457 385 521 z "},"ń":{"ha":942,"x_min":0,"x_max":0,"o":"m 194 929 l 232 771 l 774 890 l 736 1049 z m 506 521 b 650 344 613 521 650 472 l 650 0 l 872 0 l 872 379 b 585 715 872 596 764 715 b 319 492 435 715 347 617 l 264 492 l 306 617 l 306 701 l 83 701 l 83 0 l 306 0 l 306 260 b 506 521 306 457 385 521 z "},"ň":{"ha":942,"x_min":0,"x_max":0,"o":"m 799 974 l 681 1085 l 499 958 l 317 1085 l 199 974 l 499 764 z m 506 521 b 650 344 613 521 650 472 l 650 0 l 872 0 l 872 379 b 585 715 872 596 764 715 b 319 492 435 715 347 617 l 264 492 l 306 617 l 306 701 l 83 701 l 83 0 l 306 0 l 306 260 b 506 521 306 457 385 521 z "},"ņ":{"ha":942,"x_min":0,"x_max":0,"o":"m 506 521 b 650 344 613 521 650 472 l 650 0 l 872 0 l 872 379 b 585 715 872 596 764 715 b 319 492 435 715 347 617 l 264 492 l 306 617 l 306 701 l 83 701 l 83 0 l 306 0 l 306 260 b 506 521 306 457 385 521 z m 397 -68 l 311 -306 l 469 -357 l 556 -119 z "},"ŋ":{"ha":942,"x_min":0,"x_max":0,"o":"m 585 715 b 319 492 435 715 347 617 l 264 492 l 306 617 l 306 701 l 83 701 l 83 0 l 306 0 l 306 260 b 506 521 306 457 385 521 b 650 344 613 521 650 472 l 650 -82 l 410 -74 l 410 -268 l 753 -278 b 872 -161 829 -281 872 -239 l 872 379 b 585 715 872 596 764 715 z "},"ñ":{"ha":942,"x_min":0,"x_max":0,"o":"m 174 833 l 340 833 b 392 931 340 917 361 931 b 619 819 453 931 492 819 b 824 1083 747 819 824 922 l 657 1083 b 606 986 657 1000 636 986 b 378 1097 544 986 506 1097 b 174 833 250 1097 174 994 z m 506 521 b 650 344 613 521 650 472 l 650 0 l 872 0 l 872 379 b 585 715 872 596 764 715 b 319 492 435 715 347 617 l 264 492 l 306 617 l 306 701 l 83 701 l 83 0 l 306 0 l 306 260 b 506 521 306 457 385 521 z "},"o":{"ha":901,"x_min":0,"x_max":0,"o":"m 56 351 b 451 -14 56 106 231 -14 b 846 351 671 -14 846 106 b 451 715 846 596 671 715 b 56 351 231 715 56 596 z m 278 351 b 451 521 278 468 346 521 b 624 351 556 521 624 468 b 451 181 624 233 556 181 b 278 351 346 181 278 233 z "},"ó":{"ha":901,"x_min":0,"x_max":0,"o":"m 147 929 l 185 771 l 726 890 l 689 1049 z m 56 351 b 451 -14 56 106 231 -14 b 846 351 671 -14 846 106 b 451 715 846 596 671 715 b 56 351 231 715 56 596 z m 278 351 b 451 521 278 468 346 521 b 624 351 556 521 624 468 b 451 181 624 233 556 181 b 278 351 346 181 278 233 z "},"ô":{"ha":901,"x_min":0,"x_max":0,"o":"m 751 867 l 451 1076 l 151 867 l 269 756 l 451 882 l 633 756 z m 56 351 b 451 -14 56 106 231 -14 b 846 351 671 -14 846 106 b 451 715 846 596 671 715 b 56 351 231 715 56 596 z m 278 351 b 451 521 278 468 346 521 b 624 351 556 521 624 468 b 451 181 624 233 556 181 b 278 351 346 181 278 233 z "},"ö":{"ha":901,"x_min":0,"x_max":0,"o":"m 269 771 b 410 882 358 771 410 810 b 269 993 410 953 358 993 b 132 882 181 993 132 953 b 269 771 132 810 181 771 z m 631 771 b 771 882 719 771 771 810 b 631 993 771 953 719 993 b 493 882 542 993 493 953 b 631 771 493 810 542 771 z m 56 351 b 451 -14 56 106 231 -14 b 846 351 671 -14 846 106 b 451 715 846 596 671 715 b 56 351 231 715 56 596 z m 278 351 b 451 521 278 468 346 521 b 624 351 556 521 624 468 b 451 181 624 233 556 181 b 278 351 346 181 278 233 z "},"ò":{"ha":901,"x_min":0,"x_max":0,"o":"m 754 929 l 213 1049 l 175 890 l 717 771 z m 56 351 b 451 -14 56 106 231 -14 b 846 351 671 -14 846 106 b 451 715 846 596 671 715 b 56 351 231 715 56 596 z m 278 351 b 451 521 278 468 346 521 b 624 351 556 521 624 468 b 451 181 624 233 556 181 b 278 351 346 181 278 233 z "},"ő":{"ha":901,"x_min":0,"x_max":0,"o":"m 129 879 l 246 771 l 524 1006 l 407 1114 z m 476 879 l 593 771 l 871 1006 l 754 1114 z m 56 351 b 451 -14 56 106 231 -14 b 846 351 671 -14 846 106 b 451 715 846 596 671 715 b 56 351 231 715 56 596 z m 278 351 b 451 521 278 468 346 521 b 624 351 556 521 624 468 b 451 181 624 233 556 181 b 278 351 346 181 278 233 z "},"ō":{"ha":901,"x_min":0,"x_max":0,"o":"m 153 1000 l 153 833 l 750 836 l 750 1000 z m 56 351 b 451 -14 56 106 231 -14 b 846 351 671 -14 846 106 b 451 715 846 596 671 715 b 56 351 231 715 56 596 z m 278 351 b 451 521 278 468 346 521 b 624 351 556 521 624 468 b 451 181 624 233 556 181 b 278 351 346 181 278 233 z "},"ø":{"ha":901,"x_min":0,"x_max":0,"o":"m 701 649 l 739 713 l 619 781 l 575 703 b 451 717 536 713 494 717 b 56 353 231 717 56 597 b 200 56 56 214 111 115 l 163 -10 l 279 -76 l 325 1 b 451 -12 364 -8 407 -12 b 846 353 671 -12 846 107 b 701 649 846 492 790 589 z m 278 353 b 451 522 278 469 346 522 l 469 522 l 308 242 b 278 353 289 269 278 306 z m 451 182 b 431 183 444 182 438 182 l 593 463 b 624 353 613 436 624 399 b 451 182 624 235 556 182 z "},"õ":{"ha":901,"x_min":0,"x_max":0,"o":"m 126 833 l 293 833 b 344 931 293 917 314 931 b 572 819 406 931 444 819 b 776 1083 700 819 776 922 l 610 1083 b 558 986 610 1000 589 986 b 331 1097 497 986 458 1097 b 126 833 203 1097 126 994 z m 56 351 b 451 -14 56 106 231 -14 b 846 351 671 -14 846 106 b 451 715 846 596 671 715 b 56 351 231 715 56 596 z m 278 351 b 451 521 278 468 346 521 b 624 351 556 521 624 468 b 451 181 624 233 556 181 b 278 351 346 181 278 233 z "},"œ":{"ha":1500,"x_min":0,"x_max":0,"o":"m 1222 247 b 1072 167 1208 194 1150 167 b 888 304 946 167 888 224 l 1419 304 l 1419 374 b 1049 715 1419 586 1267 715 b 760 597 926 715 825 674 b 451 715 688 676 576 715 b 56 351 231 715 56 596 b 451 -14 56 106 231 -14 b 764 110 579 -14 693 26 b 1072 -14 829 35 931 -14 b 1444 247 1315 -14 1431 146 z m 1049 535 b 1211 429 1172 535 1211 482 l 888 429 b 1049 535 888 482 925 535 z m 451 181 b 278 351 346 181 278 233 b 451 521 278 468 346 521 b 624 351 556 521 624 468 b 451 181 624 233 556 181 z "},"p":{"ha":956,"x_min":0,"x_max":0,"o":"m 83 701 l 83 -264 l 306 -264 l 306 43 l 264 168 l 319 168 b 596 -14 356 75 422 -14 b 900 350 799 -14 900 151 b 596 715 900 549 799 715 b 319 533 422 715 356 626 l 264 533 l 306 658 l 306 701 z m 306 350 b 492 521 306 469 372 521 b 678 350 611 521 678 469 b 492 181 678 231 611 181 b 306 350 372 181 306 231 z "},"þ":{"ha":956,"x_min":0,"x_max":0,"o":"m 596 715 b 319 533 422 715 356 626 l 264 533 l 306 658 l 306 1021 l 83 1021 l 83 -264 l 306 -264 l 306 43 l 264 168 l 319 168 b 596 -14 356 75 422 -14 b 900 350 799 -14 900 151 b 596 715 900 549 799 715 z m 492 181 b 306 350 372 181 306 231 b 492 521 306 469 372 521 b 678 350 611 521 678 469 b 492 181 678 231 611 181 z "},"q":{"ha":956,"x_min":0,"x_max":0,"o":"m 872 701 l 650 701 l 650 658 l 692 533 l 636 533 b 360 715 600 626 533 715 b 56 350 157 715 56 549 b 360 -14 56 151 157 -14 b 636 168 533 -14 600 75 l 692 168 l 650 43 l 650 -264 l 872 -264 z m 650 350 b 464 181 650 231 583 181 b 278 350 344 181 278 231 b 464 521 278 469 344 521 b 650 350 583 521 650 469 z "},"r":{"ha":676,"x_min":0,"x_max":0,"o":"m 83 0 l 306 0 l 306 515 l 663 507 l 663 701 l 203 713 b 83 596 126 714 83 672 z "},"ŕ":{"ha":693,"x_min":0,"x_max":0,"o":"m 83 929 l 121 771 l 663 890 l 625 1049 z m 100 0 l 322 0 l 322 515 l 679 507 l 679 701 l 219 713 b 100 596 143 714 100 672 z "},"ř":{"ha":697,"x_min":0,"x_max":0,"o":"m 683 974 l 565 1085 l 383 958 l 201 1085 l 83 974 l 383 764 z m 96 0 l 318 0 l 318 515 l 675 507 l 675 701 l 215 713 b 96 596 139 714 96 672 z "},"ŗ":{"ha":661,"x_min":0,"x_max":0,"o":"m 68 0 l 290 0 l 290 515 l 647 507 l 647 701 l 188 713 b 68 596 111 714 68 672 z m 93 -68 l 7 -306 l 165 -357 l 251 -119 z "},"s":{"ha":765,"x_min":0,"x_max":0,"o":"m 738 193 b 476 418 738 339 613 374 b 296 508 365 454 296 475 b 378 549 296 536 325 549 b 492 461 454 549 492 511 l 714 461 b 379 715 714 597 617 715 b 74 518 186 715 74 643 b 364 283 74 361 233 326 b 515 200 476 246 515 236 b 418 153 515 167 478 153 b 264 254 301 153 264 200 l 42 254 b 411 -14 42 90 153 -14 b 738 193 653 -14 738 75 z "},"ś":{"ha":765,"x_min":0,"x_max":0,"o":"m 86 929 l 124 771 l 665 890 l 628 1049 z m 738 193 b 476 418 738 339 613 374 b 296 508 365 454 296 475 b 378 549 296 536 325 549 b 492 461 454 549 492 511 l 714 461 b 379 715 714 597 617 715 b 74 518 186 715 74 643 b 364 283 74 361 233 326 b 515 200 476 246 515 236 b 418 153 515 167 478 153 b 264 254 301 153 264 200 l 42 254 b 411 -14 42 90 153 -14 b 738 193 653 -14 738 75 z "},"š":{"ha":765,"x_min":0,"x_max":0,"o":"m 690 974 l 572 1085 l 390 958 l 208 1085 l 90 974 l 390 764 z m 738 193 b 476 418 738 339 613 374 b 296 508 365 454 296 475 b 378 549 296 536 325 549 b 492 461 454 549 492 511 l 714 461 b 379 715 714 597 617 715 b 74 518 186 715 74 643 b 364 283 74 361 233 326 b 515 200 476 246 515 236 b 418 153 515 167 478 153 b 264 254 301 153 264 200 l 42 254 b 411 -14 42 90 153 -14 b 738 193 653 -14 738 75 z "},"ş":{"ha":765,"x_min":0,"x_max":0,"o":"m 738 193 b 476 418 738 339 613 374 b 296 508 365 454 296 475 b 378 549 296 536 325 549 b 492 461 454 549 492 511 l 714 461 b 379 715 714 597 617 715 b 74 518 186 715 74 643 b 364 283 74 361 233 326 b 515 200 476 246 515 236 b 418 153 515 167 478 153 b 264 254 301 153 264 200 l 42 254 b 301 -7 42 115 121 19 l 267 -82 l 338 -136 b 446 -111 393 -117 421 -111 b 478 -135 465 -111 478 -121 b 257 -167 478 -172 406 -167 l 257 -292 b 644 -142 454 -292 644 -278 b 525 -56 644 -72 582 -56 b 396 -83 479 -56 429 -68 l 460 -12 b 738 193 664 -1 738 83 z "},"ș":{"ha":765,"x_min":0,"x_max":0,"o":"m 738 193 b 476 418 738 339 613 374 b 296 508 365 454 296 475 b 378 549 296 536 325 549 b 492 461 454 549 492 511 l 714 461 b 379 715 714 597 617 715 b 74 518 186 715 74 643 b 364 283 74 361 233 326 b 515 200 476 246 515 236 b 418 153 515 167 478 153 b 264 254 301 153 264 200 l 42 254 b 411 -14 42 90 153 -14 b 738 193 653 -14 738 75 z m 303 -68 l 217 -306 l 375 -357 l 461 -119 z "},"ß":{"ha":936,"x_min":0,"x_max":0,"o":"m 383 0 l 583 -14 b 908 244 761 -26 908 54 b 657 542 908 489 657 421 b 794 788 657 640 794 663 b 465 993 794 890 696 993 b 83 657 253 993 83 907 l 83 0 l 306 0 l 306 629 b 465 799 306 763 374 799 b 572 742 546 799 572 779 b 435 528 572 675 435 657 b 686 272 435 353 686 410 b 556 182 686 194 646 175 l 383 194 z "},"t":{"ha":703,"x_min":0,"x_max":0,"o":"m 403 181 l 403 507 l 633 507 l 633 701 l 403 701 l 403 903 l 181 833 l 181 701 l 14 701 l 14 507 l 181 507 l 181 104 b 299 -14 181 28 222 -17 l 661 0 l 661 194 z "},"ŧ":{"ha":703,"x_min":0,"x_max":0,"o":"m 403 181 l 403 281 l 606 281 l 606 447 l 403 447 l 403 507 l 633 507 l 633 701 l 403 701 l 403 903 l 181 833 l 181 701 l 14 701 l 14 507 l 181 507 l 181 447 l 42 447 l 42 281 l 181 281 l 181 104 b 299 -14 181 28 222 -17 l 661 0 l 661 194 z "},"ť":{"ha":703,"x_min":0,"x_max":0,"o":"m 494 1021 l 494 771 l 661 771 l 661 1021 z m 403 507 l 633 507 l 633 701 l 403 701 l 403 903 l 181 833 l 181 701 l 14 701 l 14 507 l 181 507 l 181 104 b 299 -14 181 28 222 -17 l 661 0 l 661 194 l 403 181 z "},"ţ":{"ha":703,"x_min":0,"x_max":0,"o":"m 556 -56 b 426 -83 510 -56 460 -68 l 496 -7 l 661 0 l 661 194 l 403 181 l 403 507 l 633 507 l 633 701 l 403 701 l 403 903 l 181 833 l 181 701 l 14 701 l 14 507 l 181 507 l 181 104 b 299 -14 181 28 222 -17 l 329 -12 l 297 -82 l 368 -136 b 476 -111 424 -117 451 -111 b 508 -135 496 -111 508 -121 b 288 -167 508 -172 436 -167 l 288 -292 b 675 -142 485 -292 675 -278 b 556 -56 675 -72 613 -56 z "},"ț":{"ha":703,"x_min":0,"x_max":0,"o":"m 403 181 l 403 507 l 633 507 l 633 701 l 403 701 l 403 903 l 181 833 l 181 701 l 14 701 l 14 507 l 181 507 l 181 104 b 299 -14 181 28 222 -17 l 661 0 l 661 194 z m 247 -306 l 406 -357 l 492 -119 l 333 -68 z "},"u":{"ha":928,"x_min":0,"x_max":0,"o":"m 436 181 b 292 357 329 181 292 229 l 292 701 l 69 701 l 69 322 b 357 -14 69 106 178 -14 b 622 210 507 -14 594 85 l 678 210 l 636 85 l 636 0 l 858 0 l 858 701 l 636 701 l 636 442 b 436 181 636 244 557 181 z "},"ú":{"ha":928,"x_min":0,"x_max":0,"o":"m 160 929 l 197 771 l 739 890 l 701 1049 z m 436 181 b 292 357 329 181 292 229 l 292 701 l 69 701 l 69 322 b 357 -14 69 106 178 -14 b 622 210 507 -14 594 85 l 678 210 l 636 85 l 636 0 l 858 0 l 858 701 l 636 701 l 636 442 b 436 181 636 244 557 181 z "},"û":{"ha":928,"x_min":0,"x_max":0,"o":"m 764 867 l 464 1076 l 164 867 l 282 756 l 464 882 l 646 756 z m 436 181 b 292 357 329 181 292 229 l 292 701 l 69 701 l 69 322 b 357 -14 69 106 178 -14 b 622 210 507 -14 594 85 l 678 210 l 636 85 l 636 0 l 858 0 l 858 701 l 636 701 l 636 442 b 436 181 636 244 557 181 z "},"ü":{"ha":928,"x_min":0,"x_max":0,"o":"m 282 771 b 422 882 371 771 422 810 b 282 993 422 953 371 993 b 144 882 193 993 144 953 b 282 771 144 810 193 771 z m 643 771 b 783 882 732 771 783 810 b 643 993 783 953 732 993 b 506 882 554 993 506 953 b 643 771 506 810 554 771 z m 436 181 b 292 357 329 181 292 229 l 292 701 l 69 701 l 69 322 b 357 -14 69 106 178 -14 b 622 210 507 -14 594 85 l 678 210 l 636 85 l 636 0 l 858 0 l 858 701 l 636 701 l 636 442 b 436 181 636 244 557 181 z "},"ù":{"ha":928,"x_min":0,"x_max":0,"o":"m 767 929 l 225 1049 l 188 890 l 729 771 z m 436 181 b 292 357 329 181 292 229 l 292 701 l 69 701 l 69 322 b 357 -14 69 106 178 -14 b 622 210 507 -14 594 85 l 678 210 l 636 85 l 636 0 l 858 0 l 858 701 l 636 701 l 636 442 b 436 181 636 244 557 181 z "},"ű":{"ha":928,"x_min":0,"x_max":0,"o":"m 142 879 l 258 771 l 536 1006 l 419 1114 z m 489 879 l 606 771 l 883 1006 l 767 1114 z m 436 181 b 292 357 329 181 292 229 l 292 701 l 69 701 l 69 322 b 357 -14 69 106 178 -14 b 622 210 507 -14 594 85 l 678 210 l 636 85 l 636 0 l 858 0 l 858 701 l 636 701 l 636 442 b 436 181 636 244 557 181 z "},"ū":{"ha":928,"x_min":0,"x_max":0,"o":"m 165 1000 l 165 833 l 763 836 l 763 1000 z m 436 181 b 292 357 329 181 292 229 l 292 701 l 69 701 l 69 322 b 357 -14 69 106 178 -14 b 622 210 507 -14 594 85 l 678 210 l 636 85 l 636 0 l 858 0 l 858 701 l 636 701 l 636 442 b 436 181 636 244 557 181 z "},"ų":{"ha":928,"x_min":0,"x_max":0,"o":"m 806 -110 l 858 0 l 858 701 l 636 701 l 636 442 b 436 181 636 244 557 181 b 292 357 329 181 292 229 l 292 701 l 69 701 l 69 322 b 357 -14 69 106 178 -14 b 622 210 507 -14 594 85 l 678 210 l 636 85 l 636 0 l 704 0 l 619 -131 b 738 -278 574 -200 639 -286 l 994 -257 l 994 -90 z "},"ů":{"ha":928,"x_min":0,"x_max":0,"o":"m 463 771 b 682 942 597 771 682 828 b 463 1113 682 1056 597 1113 b 244 942 328 1113 244 1056 b 463 771 244 826 328 771 z m 463 896 b 411 942 433 896 411 907 b 463 986 411 975 433 986 b 515 942 492 986 515 975 b 463 896 515 907 493 896 z m 436 181 b 292 357 329 181 292 229 l 292 701 l 69 701 l 69 322 b 357 -14 69 106 178 -14 b 622 210 507 -14 594 85 l 678 210 l 636 85 l 636 0 l 858 0 l 858 701 l 636 701 l 636 442 b 436 181 636 244 557 181 z "},"v":{"ha":843,"x_min":0,"x_max":0,"o":"m 610 701 l 450 56 l 394 56 l 233 701 l 14 701 l 193 0 l 651 0 l 829 701 z "},"w":{"ha":1317,"x_min":0,"x_max":0,"o":"m 14 701 l 113 0 l 576 0 l 631 646 l 686 646 l 740 0 l 1204 0 l 1303 701 l 1092 701 l 1000 56 l 944 56 l 890 701 l 426 701 l 372 56 l 317 56 l 226 701 z "},"ẃ":{"ha":1317,"x_min":0,"x_max":0,"o":"m 354 929 l 392 771 l 933 890 l 896 1049 z m 14 701 l 113 0 l 576 0 l 631 646 l 686 646 l 740 0 l 1204 0 l 1303 701 l 1092 701 l 1000 56 l 944 56 l 890 701 l 426 701 l 372 56 l 317 56 l 226 701 z "},"ŵ":{"ha":1317,"x_min":0,"x_max":0,"o":"m 958 867 l 658 1076 l 358 867 l 476 756 l 658 882 l 840 756 z m 14 701 l 113 0 l 576 0 l 631 646 l 686 646 l 740 0 l 1204 0 l 1303 701 l 1092 701 l 1000 56 l 944 56 l 890 701 l 426 701 l 372 56 l 317 56 l 226 701 z "},"ẅ":{"ha":1317,"x_min":0,"x_max":0,"o":"m 476 771 b 617 882 565 771 617 810 b 476 993 617 953 565 993 b 339 882 388 993 339 953 b 476 771 339 810 388 771 z m 838 771 b 978 882 926 771 978 810 b 838 993 978 953 926 993 b 700 882 749 993 700 953 b 838 771 700 810 749 771 z m 14 701 l 113 0 l 576 0 l 631 646 l 686 646 l 740 0 l 1204 0 l 1303 701 l 1092 701 l 1000 56 l 944 56 l 890 701 l 426 701 l 372 56 l 317 56 l 226 701 z "},"ẁ":{"ha":1317,"x_min":0,"x_max":0,"o":"m 961 929 l 419 1049 l 382 890 l 924 771 z m 14 701 l 113 0 l 576 0 l 631 646 l 686 646 l 740 0 l 1204 0 l 1303 701 l 1092 701 l 1000 56 l 944 56 l 890 701 l 426 701 l 372 56 l 317 56 l 226 701 z "},"x":{"ha":936,"x_min":0,"x_max":0,"o":"m 42 0 l 306 0 l 468 226 l 631 0 l 894 0 l 628 324 l 628 379 l 894 701 l 631 701 l 468 476 l 306 701 l 42 701 l 308 379 l 308 324 z "},"y":{"ha":933,"x_min":0,"x_max":0,"o":"m 654 701 l 501 315 l 501 204 l 446 204 l 446 315 l 292 701 l 42 701 l 363 42 l 363 -92 l 122 -87 l 122 -282 l 465 -292 b 585 -175 542 -294 585 -253 l 585 42 l 906 701 z "},"ý":{"ha":933,"x_min":0,"x_max":0,"o":"m 749 890 l 711 1049 l 169 929 l 207 771 z m 654 701 l 501 315 l 501 204 l 446 204 l 446 315 l 292 701 l 42 701 l 363 42 l 363 -92 l 122 -87 l 122 -282 l 465 -292 b 585 -175 542 -294 585 -253 l 585 42 l 906 701 z "},"ŷ":{"ha":933,"x_min":0,"x_max":0,"o":"m 474 882 l 656 756 l 774 867 l 474 1076 l 174 867 l 292 756 z m 654 701 l 501 315 l 501 204 l 446 204 l 446 315 l 292 701 l 42 701 l 363 42 l 363 -92 l 122 -87 l 122 -282 l 465 -292 b 585 -175 542 -294 585 -253 l 585 42 l 906 701 z "},"ÿ":{"ha":933,"x_min":0,"x_max":0,"o":"m 292 771 b 432 882 381 771 432 810 b 292 993 432 953 381 993 b 154 882 203 993 154 953 b 292 771 154 810 203 771 z m 653 771 b 793 882 742 771 793 810 b 653 993 793 953 742 993 b 515 882 564 993 515 953 b 653 771 515 810 564 771 z m 654 701 l 501 315 l 501 204 l 446 204 l 446 315 l 292 701 l 42 701 l 363 42 l 363 -92 l 122 -87 l 122 -282 l 465 -292 b 585 -175 542 -294 585 -253 l 585 42 l 906 701 z "},"ỳ":{"ha":933,"x_min":0,"x_max":0,"o":"m 776 929 l 235 1049 l 197 890 l 739 771 z m 654 701 l 501 315 l 501 204 l 446 204 l 446 315 l 292 701 l 42 701 l 363 42 l 363 -92 l 122 -87 l 122 -282 l 465 -292 b 585 -175 542 -294 585 -253 l 585 42 l 906 701 z "},"z":{"ha":801,"x_min":0,"x_max":0,"o":"m 56 0 l 746 0 l 746 194 l 236 194 l 111 153 l 111 208 l 746 326 l 746 701 l 56 701 l 56 507 l 565 507 l 690 549 l 690 493 l 56 375 z "},"ź":{"ha":801,"x_min":0,"x_max":0,"o":"m 97 929 l 135 771 l 676 890 l 639 1049 z m 56 0 l 746 0 l 746 194 l 236 194 l 111 153 l 111 208 l 746 326 l 746 701 l 56 701 l 56 507 l 565 507 l 690 549 l 690 493 l 56 375 z "},"ž":{"ha":801,"x_min":0,"x_max":0,"o":"m 701 974 l 583 1085 l 401 958 l 219 1085 l 101 974 l 401 764 z m 56 0 l 746 0 l 746 194 l 236 194 l 111 153 l 111 208 l 746 326 l 746 701 l 56 701 l 56 507 l 565 507 l 690 549 l 690 493 l 56 375 z "},"ż":{"ha":801,"x_min":0,"x_max":0,"o":"m 400 771 b 540 882 489 771 540 810 b 400 993 540 953 489 993 b 263 882 311 993 263 953 b 400 771 263 810 311 771 z m 56 0 l 746 0 l 746 194 l 236 194 l 111 153 l 111 208 l 746 326 l 746 701 l 56 701 l 56 507 l 565 507 l 690 549 l 690 493 l 56 375 z "},"А":{"ha":1079,"x_min":0,"x_max":0,"o":"m 826 0 l 1051 0 l 768 979 l 310 979 l 28 0 l 253 0 l 340 314 l 738 314 z m 394 508 l 511 924 l 567 924 l 683 508 z "},"Б":{"ha":940,"x_min":0,"x_max":0,"o":"m 435 660 l 306 660 l 306 785 l 756 785 l 756 979 l 83 979 l 83 0 l 435 0 b 871 329 668 0 871 40 b 435 660 871 618 668 660 z m 435 194 l 306 194 l 306 465 l 435 465 b 649 329 594 465 649 450 b 435 194 649 208 594 194 z "},"В":{"ha":974,"x_min":0,"x_max":0,"o":"m 83 0 l 444 0 b 904 260 700 0 904 38 b 597 488 904 468 746 482 l 597 543 b 832 739 701 551 832 556 b 428 979 832 932 700 979 l 83 979 z m 306 607 l 306 785 l 456 785 b 610 696 546 785 610 785 b 456 607 610 607 546 607 z m 306 194 l 306 413 l 472 413 b 682 303 604 413 682 413 b 472 194 682 194 604 194 z "},"Г":{"ha":815,"x_min":0,"x_max":0,"o":"m 83 0 l 306 0 l 306 785 l 774 785 l 774 979 l 83 979 z "},"Ѓ":{"ha":815,"x_min":0,"x_max":0,"o":"m 143 1207 l 181 1049 l 722 1168 l 685 1326 z m 83 0 l 306 0 l 306 785 l 774 785 l 774 979 l 83 979 z "},"Ґ":{"ha":788,"x_min":0,"x_max":0,"o":"m 551 1132 l 551 979 l 83 979 l 83 0 l 306 0 l 306 785 l 774 785 l 774 1132 z "},"Д":{"ha":1075,"x_min":0,"x_max":0,"o":"m 956 194 l 956 979 l 264 979 b 119 194 264 568 208 308 l 28 194 l 28 -194 l 250 -194 l 250 0 l 825 0 l 825 -194 l 1047 -194 l 1047 194 z m 342 194 b 482 785 415 289 467 485 l 733 785 l 733 194 z "},"Е":{"ha":838,"x_min":0,"x_max":0,"o":"m 83 0 l 782 0 l 782 194 l 306 194 l 306 393 l 713 393 l 713 588 l 306 588 l 306 785 l 782 785 l 782 979 l 83 979 z "},"Ѐ":{"ha":838,"x_min":0,"x_max":0,"o":"m 736 1207 l 194 1326 l 157 1168 l 699 1049 z m 83 0 l 782 0 l 782 194 l 306 194 l 306 393 l 713 393 l 713 588 l 306 588 l 306 785 l 782 785 l 782 979 l 83 979 z "},"Ё":{"ha":838,"x_min":0,"x_max":0,"o":"m 251 1049 b 392 1160 340 1049 392 1088 b 251 1271 392 1231 340 1271 b 114 1160 163 1271 114 1231 b 251 1049 114 1088 163 1049 z m 613 1049 b 753 1160 701 1049 753 1088 b 613 1271 753 1231 701 1271 b 475 1160 524 1271 475 1231 b 613 1049 475 1088 524 1049 z m 83 0 l 782 0 l 782 194 l 306 194 l 306 393 l 713 393 l 713 588 l 306 588 l 306 785 l 782 785 l 782 979 l 83 979 z "},"Ж":{"ha":1489,"x_min":0,"x_max":0,"o":"m 1461 785 l 1461 979 l 1269 979 b 1125 913 1208 979 1164 957 l 856 603 l 856 979 l 633 979 l 633 603 l 364 913 b 219 979 325 957 281 979 l 28 979 l 28 785 l 196 785 l 439 507 l 28 0 l 303 0 l 585 357 b 633 339 599 349 615 342 l 633 0 l 856 0 l 856 339 b 904 357 874 342 890 349 l 1186 0 l 1461 0 l 1050 507 l 1293 785 z "},"З":{"ha":1017,"x_min":0,"x_max":0,"o":"m 69 374 b 526 -14 69 79 275 -14 b 947 265 761 -14 947 72 b 701 476 947 439 826 460 l 701 532 b 933 728 826 553 933 581 b 526 993 933 907 761 993 b 83 647 275 993 83 900 l 306 647 b 526 799 306 760 353 799 b 711 700 669 799 711 765 b 590 601 711 636 674 601 l 454 601 l 454 407 l 590 407 b 725 293 674 407 725 371 b 526 181 725 214 669 181 b 292 374 353 181 292 219 z "},"И":{"ha":1136,"x_min":0,"x_max":0,"o":"m 1053 0 l 1053 979 l 615 979 l 319 56 l 264 56 l 306 194 l 306 979 l 83 979 l 83 0 l 521 0 l 817 924 l 872 924 l 831 785 l 831 0 z "},"Й":{"ha":1136,"x_min":0,"x_max":0,"o":"m 844 1325 l 678 1325 b 590 1201 678 1228 644 1201 b 503 1325 536 1201 503 1228 l 336 1325 b 590 1049 336 1183 403 1049 b 844 1325 778 1049 844 1183 z m 1053 0 l 1053 979 l 615 979 l 319 56 l 264 56 l 306 194 l 306 979 l 83 979 l 83 0 l 521 0 l 817 924 l 872 924 l 831 785 l 831 0 z "},"Ѝ":{"ha":1136,"x_min":0,"x_max":0,"o":"m 893 1207 l 351 1326 l 314 1168 l 856 1049 z m 1053 0 l 1053 979 l 615 979 l 319 56 l 264 56 l 306 194 l 306 979 l 83 979 l 83 0 l 521 0 l 817 924 l 872 924 l 831 785 l 831 0 z "},"К":{"ha":967,"x_min":0,"x_max":0,"o":"m 675 0 l 939 0 l 524 535 l 743 785 l 911 785 l 911 979 l 719 979 b 575 913 658 979 614 957 l 306 603 l 306 979 l 83 979 l 83 0 l 306 0 l 306 339 b 382 376 335 344 358 357 z "},"Ќ":{"ha":967,"x_min":0,"x_max":0,"o":"m 744 1168 l 707 1326 l 165 1207 l 203 1049 z m 675 0 l 939 0 l 524 535 l 743 785 l 911 785 l 911 979 l 719 979 b 575 913 658 979 614 957 l 306 603 l 306 979 l 83 979 l 83 0 l 306 0 l 306 339 b 382 376 335 344 358 357 z "},"Л":{"ha":1022,"x_min":0,"x_max":0,"o":"m 939 979 l 233 979 b 28 194 233 518 233 194 l 28 0 b 454 785 403 0 449 340 l 717 785 l 717 0 l 939 0 z "},"М":{"ha":1383,"x_min":0,"x_max":0,"o":"m 83 0 l 306 0 l 306 785 l 264 924 l 319 924 l 476 0 l 907 0 l 1064 924 l 1119 924 l 1078 785 l 1078 0 l 1300 0 l 1300 979 l 863 979 l 719 56 l 664 56 l 521 979 l 83 979 z "},"Н":{"ha":1103,"x_min":0,"x_max":0,"o":"m 797 979 l 797 574 l 306 574 l 306 979 l 83 979 l 83 0 l 306 0 l 306 379 l 797 379 l 797 0 l 1019 0 l 1019 979 z "},"О":{"ha":1138,"x_min":0,"x_max":0,"o":"m 69 490 b 569 -14 69 204 258 -14 b 1068 490 879 -14 1068 204 b 569 993 1068 775 879 993 b 69 490 258 993 69 775 z m 292 490 b 569 799 292 678 385 799 b 846 490 754 799 846 678 b 569 181 846 301 754 181 b 292 490 385 181 292 301 z "},"П":{"ha":1019,"x_min":0,"x_max":0,"o":"m 936 979 l 83 979 l 83 0 l 306 0 l 306 785 l 714 785 l 714 0 l 936 0 z "},"Р":{"ha":926,"x_min":0,"x_max":0,"o":"m 435 979 l 83 979 l 83 0 l 306 0 l 306 292 l 435 292 b 871 636 682 292 871 339 b 435 979 871 932 682 979 z m 449 486 l 306 486 l 306 785 l 449 785 b 649 636 581 785 649 771 b 449 486 649 500 581 486 z "},"С":{"ha":1125,"x_min":0,"x_max":0,"o":"m 69 490 b 572 -14 69 204 261 -14 b 1056 379 846 -14 1026 136 l 833 379 b 575 181 811 250 708 181 b 292 490 404 181 292 288 b 575 799 292 692 404 799 b 833 601 708 799 811 731 l 1056 601 b 572 993 1026 843 846 993 b 69 490 261 993 69 775 z "},"Т":{"ha":946,"x_min":0,"x_max":0,"o":"m 904 979 l 42 979 l 42 785 l 363 785 l 363 0 l 585 0 l 585 785 l 904 785 z "},"У":{"ha":961,"x_min":0,"x_max":0,"o":"m 696 979 l 515 582 l 515 471 l 460 471 l 460 582 l 278 979 l 42 979 l 376 306 l 376 182 l 136 190 l 136 -4 l 479 -14 b 599 103 556 -17 599 25 l 599 306 l 933 979 z "},"Ф":{"ha":1207,"x_min":0,"x_max":0,"o":"m 1165 488 b 701 871 1165 711 999 847 l 701 979 l 507 979 l 507 871 b 42 488 208 847 42 711 b 507 103 42 263 208 126 l 507 0 l 701 0 l 701 103 b 1165 488 999 126 1165 263 z m 264 488 b 507 678 264 614 343 664 l 507 296 b 264 488 343 310 264 360 z m 701 296 l 701 678 b 943 488 864 664 943 614 b 701 296 943 361 864 310 z "},"Х":{"ha":1096,"x_min":0,"x_max":0,"o":"m 28 0 l 283 0 l 547 376 l 813 0 l 1068 0 l 736 463 l 736 518 l 1068 979 l 813 979 l 547 604 l 283 979 l 28 979 l 358 518 l 358 463 z "},"Ч":{"ha":1042,"x_min":0,"x_max":0,"o":"m 736 979 l 736 511 l 306 489 l 306 979 l 83 979 l 83 403 b 204 289 83 325 126 285 l 736 317 l 736 0 l 958 0 l 958 979 z "},"Ц":{"ha":1240,"x_min":0,"x_max":0,"o":"m 1081 194 l 936 194 l 936 979 l 714 979 l 714 194 l 306 194 l 306 979 l 83 979 l 83 0 l 976 0 l 976 -194 l 1199 -194 l 1199 76 b 1081 194 1199 153 1157 194 z "},"Ш":{"ha":1386,"x_min":0,"x_max":0,"o":"m 1081 979 l 1081 194 l 804 194 l 804 979 l 582 979 l 582 194 l 306 194 l 306 979 l 83 979 l 83 0 l 1303 0 l 1303 979 z "},"Щ":{"ha":1607,"x_min":0,"x_max":0,"o":"m 1447 194 l 1303 194 l 1303 979 l 1081 979 l 1081 194 l 804 194 l 804 979 l 582 979 l 582 194 l 306 194 l 306 979 l 83 979 l 83 0 l 1343 0 l 1343 -194 l 1565 -194 l 1565 76 b 1447 194 1565 153 1524 194 z "},"Џ":{"ha":1047,"x_min":0,"x_max":0,"o":"m 742 979 l 742 194 l 306 194 l 306 979 l 83 979 l 83 0 l 413 0 l 413 -194 l 635 -194 l 635 0 l 964 0 l 964 979 z "},"Ь":{"ha":926,"x_min":0,"x_max":0,"o":"m 306 979 l 83 979 l 83 0 l 435 0 b 871 329 668 0 871 40 b 435 660 871 618 668 660 l 306 660 z m 306 194 l 306 465 l 435 465 b 649 329 594 465 649 450 b 435 194 649 208 594 194 z "},"Ъ":{"ha":1093,"x_min":0,"x_max":0,"o":"m 601 660 l 472 660 l 472 979 l 28 979 l 28 785 l 250 785 l 250 0 l 601 0 b 1038 329 835 0 1038 40 b 601 660 1038 618 835 660 z m 601 194 l 472 194 l 472 465 l 601 465 b 815 329 761 465 815 450 b 601 194 815 208 761 194 z "},"Ы":{"ha":1300,"x_min":0,"x_max":0,"o":"m 306 979 l 83 979 l 83 0 l 435 0 b 871 329 668 0 871 40 b 435 660 871 618 668 660 l 306 660 z m 994 979 l 994 0 l 1217 0 l 1217 979 z m 306 194 l 306 465 l 435 465 b 649 329 594 465 649 450 b 435 194 649 208 594 194 z "},"Љ":{"ha":1560,"x_min":0,"x_max":0,"o":"m 1068 660 l 939 660 l 939 979 l 233 979 b 28 194 233 518 233 194 l 28 0 b 454 785 403 0 449 340 l 717 785 l 717 0 l 1068 0 b 1504 329 1301 0 1504 40 b 1068 660 1504 618 1301 660 z m 1068 194 l 939 194 l 939 465 l 1068 465 b 1282 329 1228 465 1282 450 b 1068 194 1282 208 1228 194 z "},"Њ":{"ha":1640,"x_min":0,"x_max":0,"o":"m 1149 660 l 1019 660 l 1019 979 l 797 979 l 797 574 l 306 574 l 306 979 l 83 979 l 83 0 l 306 0 l 306 379 l 797 379 l 797 0 l 1149 0 b 1585 329 1382 0 1585 40 b 1149 660 1585 618 1382 660 z m 1149 194 l 1019 194 l 1019 465 l 1149 465 b 1363 329 1308 465 1363 450 b 1149 194 1363 208 1308 194 z "},"Ѕ":{"ha":988,"x_min":0,"x_max":0,"o":"m 946 269 b 489 613 946 474 669 551 b 308 726 332 665 308 682 b 471 799 308 776 371 799 b 683 646 592 799 683 765 l 906 646 b 471 993 906 840 771 993 b 86 735 218 993 86 901 b 461 418 86 543 254 488 b 724 267 604 369 724 338 b 533 181 724 214 676 181 b 264 378 339 181 264 228 l 42 378 b 526 -14 42 131 174 -14 b 946 269 828 -14 946 101 z "},"Є":{"ha":1125,"x_min":0,"x_max":0,"o":"m 575 181 b 301 393 433 181 333 254 l 656 393 l 656 588 l 301 588 b 575 799 333 726 435 799 b 833 601 708 799 811 731 l 1056 601 b 572 993 1026 843 846 993 b 69 490 261 993 69 775 b 572 -14 69 204 261 -14 b 1056 379 846 -14 1026 136 l 833 379 b 575 181 811 250 708 181 z "},"Э":{"ha":1125,"x_min":0,"x_max":0,"o":"m 553 993 b 69 601 279 993 99 843 l 292 601 b 550 799 314 731 417 799 b 824 588 690 799 792 726 l 469 588 l 469 393 l 824 393 b 550 181 792 254 692 181 b 292 379 417 181 314 250 l 69 379 b 553 -14 99 136 279 -14 b 1056 490 864 -14 1056 204 b 553 993 1056 775 864 993 z "},"І":{"ha":806,"x_min":0,"x_max":0,"o":"m 736 785 l 736 979 l 69 979 l 69 785 l 292 785 l 292 194 l 69 194 l 69 0 l 736 0 l 736 194 l 514 194 l 514 785 z "},"Ї":{"ha":806,"x_min":0,"x_max":0,"o":"m 221 1049 b 361 1160 310 1049 361 1088 b 221 1271 361 1231 310 1271 b 83 1160 132 1271 83 1231 b 221 1049 83 1088 132 1049 z m 582 1049 b 722 1160 671 1049 722 1088 b 582 1271 722 1231 671 1271 b 444 1160 493 1271 444 1231 b 582 1049 444 1088 493 1049 z m 736 785 l 736 979 l 69 979 l 69 785 l 292 785 l 292 194 l 69 194 l 69 0 l 736 0 l 736 194 l 514 194 l 514 785 z "},"Ј":{"ha":743,"x_min":0,"x_max":0,"o":"m 276 -14 b 674 375 590 -32 674 99 l 674 875 b 556 993 674 951 632 996 l 157 979 l 157 785 l 451 799 l 451 450 b 276 181 451 282 439 171 l 28 194 l 28 0 z "},"Ћ":{"ha":1199,"x_min":0,"x_max":0,"o":"m 994 690 l 463 663 l 463 785 l 806 785 l 806 979 l 28 979 l 28 785 l 240 785 l 240 0 l 463 0 l 463 468 l 893 490 l 893 0 l 1115 0 l 1115 576 b 994 690 1115 654 1072 694 z "},"Ю":{"ha":1425,"x_min":0,"x_max":0,"o":"m 885 993 b 418 588 608 993 451 832 l 306 588 l 306 979 l 83 979 l 83 0 l 306 0 l 306 393 l 418 393 b 885 -14 450 147 608 -14 b 1356 490 1194 -14 1356 190 b 885 993 1356 789 1194 993 z m 885 181 b 635 490 728 181 635 264 b 885 799 635 715 728 799 b 1133 490 1042 799 1133 715 b 885 181 1133 264 1042 181 z "},"Я":{"ha":954,"x_min":0,"x_max":0,"o":"m 871 979 l 454 979 b 46 692 221 979 46 918 b 318 411 46 511 156 435 l 201 194 l 28 194 l 28 0 l 239 0 b 379 85 304 0 349 26 l 546 403 l 649 403 l 649 0 l 871 0 z m 649 597 l 426 597 b 268 692 322 597 268 611 b 426 785 268 771 322 785 l 649 785 z "},"Ђ":{"ha":1204,"x_min":0,"x_max":0,"o":"m 736 615 l 556 590 l 556 785 l 861 785 l 861 979 l 28 979 l 28 785 l 333 785 l 333 0 l 556 0 l 556 396 l 732 421 b 926 325 847 438 926 426 b 711 194 926 247 858 194 l 711 0 b 1149 339 919 0 1149 64 b 736 615 1149 589 989 650 z "},"а":{"ha":894,"x_min":0,"x_max":0,"o":"m 56 192 b 311 -14 56 119 93 -14 b 601 201 507 -14 575 85 l 657 201 l 622 118 l 622 104 b 726 0 622 38 660 0 l 881 0 l 881 194 l 779 194 l 779 392 b 417 715 779 622 610 715 b 69 433 221 715 69 611 l 278 433 b 417 535 278 497 328 535 b 557 443 513 535 557 500 l 336 413 b 56 192 128 383 56 313 z m 278 233 b 378 293 278 274 311 283 l 557 318 b 354 181 557 232 476 181 b 278 233 317 181 278 193 z "},"б":{"ha":967,"x_min":0,"x_max":0,"o":"m 69 454 b 489 -14 69 157 219 -14 b 907 360 781 -14 907 149 b 547 715 907 563 763 715 b 213 413 364 715 243 604 l 157 413 l 213 538 b 513 789 240 679 324 749 b 911 1076 700 829 886 881 l 661 1076 b 429 942 649 1024 603 997 b 69 454 204 869 69 746 z m 292 351 b 489 521 292 464 364 521 b 685 351 614 521 685 464 b 489 181 685 239 614 181 b 292 351 364 181 292 239 z "},"в":{"ha":800,"x_min":0,"x_max":0,"o":"m 83 0 l 461 0 b 758 182 639 0 758 47 b 553 335 758 314 644 333 l 553 390 b 707 536 608 394 707 411 b 410 701 707 668 588 701 l 83 701 z m 292 435 l 292 549 l 410 549 b 499 492 476 549 499 540 b 410 435 499 439 476 435 z m 292 153 l 292 282 l 461 282 b 550 218 526 282 550 271 b 461 153 550 169 526 153 z "},"г":{"ha":692,"x_min":0,"x_max":0,"o":"m 83 0 l 306 0 l 306 507 l 678 507 l 678 701 l 83 701 z "},"ѓ":{"ha":701,"x_min":0,"x_max":0,"o":"m 83 929 l 121 771 l 663 890 l 625 1049 z m 93 0 l 315 0 l 315 507 l 688 507 l 688 701 l 93 701 z "},"ґ":{"ha":692,"x_min":0,"x_max":0,"o":"m 456 881 l 456 701 l 83 701 l 83 0 l 306 0 l 306 507 l 678 507 l 678 881 z "},"д":{"ha":992,"x_min":0,"x_max":0,"o":"m 831 194 l 831 701 l 250 701 b 147 194 250 429 222 294 l 56 194 l 56 -194 l 278 -194 l 278 0 l 700 0 l 700 -194 l 922 -194 l 922 194 z m 369 194 b 465 507 424 267 454 358 l 608 507 l 608 194 z "},"е":{"ha":876,"x_min":0,"x_max":0,"o":"m 56 360 b 449 -14 56 161 179 -14 b 821 247 692 -14 807 146 l 599 247 b 449 167 585 194 526 167 b 264 304 322 167 264 224 l 796 304 l 796 374 b 425 715 796 586 643 715 b 56 360 207 715 56 582 z m 264 429 b 425 535 264 482 301 535 b 588 429 549 535 588 482 z "},"ѐ":{"ha":876,"x_min":0,"x_max":0,"o":"m 742 929 l 200 1049 l 163 890 l 704 771 z m 56 360 b 449 -14 56 161 179 -14 b 821 247 692 -14 807 146 l 599 247 b 449 167 585 194 526 167 b 264 304 322 167 264 224 l 796 304 l 796 374 b 425 715 796 586 643 715 b 56 360 207 715 56 582 z m 264 429 b 425 535 264 482 301 535 b 588 429 549 535 588 482 z "},"ё":{"ha":876,"x_min":0,"x_max":0,"o":"m 257 771 b 397 882 346 771 397 810 b 257 993 397 953 346 993 b 119 882 168 993 119 953 b 257 771 119 810 168 771 z m 618 771 b 758 882 707 771 758 810 b 618 993 758 953 707 993 b 481 882 529 993 481 953 b 618 771 481 810 529 771 z m 56 360 b 449 -14 56 161 179 -14 b 821 247 692 -14 807 146 l 599 247 b 449 167 585 194 526 167 b 264 304 322 167 264 224 l 796 304 l 796 374 b 425 715 796 586 643 715 b 56 360 207 715 56 582 z m 264 429 b 425 535 264 482 301 535 b 588 429 549 535 588 482 z "},"ж":{"ha":1222,"x_min":0,"x_max":0,"o":"m 1194 507 l 1194 701 l 1069 701 b 922 644 1010 701 957 690 l 782 456 l 722 456 l 722 701 l 500 701 l 500 456 l 440 456 l 300 644 b 153 701 265 690 213 701 l 28 701 l 28 507 l 140 507 l 242 375 l 28 0 l 268 0 l 417 261 l 429 261 l 500 261 l 500 0 l 722 0 l 722 261 l 793 261 l 806 261 l 954 0 l 1194 0 l 981 375 l 1082 507 z "},"з":{"ha":814,"x_min":0,"x_max":0,"o":"m 69 269 b 419 -14 69 72 199 -14 b 744 188 628 -14 744 67 b 583 332 744 297 658 332 l 583 388 b 731 524 658 388 731 419 b 414 715 731 636 622 715 b 83 475 193 715 83 631 l 292 475 b 414 563 292 544 318 563 b 522 500 489 563 522 549 b 432 436 522 457 493 436 l 363 436 l 363 283 l 432 283 b 536 214 493 283 536 274 b 419 139 536 160 493 139 b 278 269 322 139 278 158 z "},"и":{"ha":961,"x_min":0,"x_max":0,"o":"m 906 0 l 906 701 l 471 701 l 319 56 l 264 56 l 306 181 l 306 701 l 83 701 l 83 0 l 518 0 l 669 646 l 725 646 l 683 528 l 683 0 z "},"й":{"ha":961,"x_min":0,"x_max":0,"o":"m 756 1047 l 589 1047 b 501 924 589 950 556 924 b 414 1047 447 924 414 950 l 247 1047 b 501 771 247 906 314 771 b 756 1047 689 771 756 906 z m 906 0 l 906 701 l 471 701 l 319 56 l 264 56 l 306 181 l 306 701 l 83 701 l 83 0 l 518 0 l 669 646 l 725 646 l 683 528 l 683 0 z "},"к":{"ha":833,"x_min":0,"x_max":0,"o":"m 806 0 l 581 396 l 665 507 l 778 507 l 778 701 l 653 701 b 506 644 593 701 540 690 l 365 456 l 306 456 l 306 701 l 83 701 l 83 0 l 306 0 l 306 261 l 376 261 b 415 263 390 261 403 261 l 565 0 z "},"ќ":{"ha":833,"x_min":0,"x_max":0,"o":"m 718 890 l 681 1049 l 139 929 l 176 771 z m 806 0 l 581 396 l 665 507 l 778 507 l 778 701 l 653 701 b 506 644 593 701 540 690 l 365 456 l 306 456 l 306 701 l 83 701 l 83 0 l 306 0 l 306 261 l 376 261 b 415 263 390 261 403 261 l 565 0 z "},"л":{"ha":869,"x_min":0,"x_max":0,"o":"m 786 701 l 192 701 b 56 194 192 310 178 194 l 56 0 b 413 507 349 0 403 186 l 564 507 l 564 0 l 786 0 z "},"м":{"ha":1221,"x_min":0,"x_max":0,"o":"m 83 0 l 306 0 l 306 521 l 264 646 l 319 646 l 393 0 l 826 0 l 901 646 l 957 646 l 915 521 l 915 0 l 1138 0 l 1138 701 l 696 701 l 638 56 l 582 56 l 524 701 l 83 701 z "},"н":{"ha":942,"x_min":0,"x_max":0,"o":"m 636 701 l 636 449 l 306 449 l 306 701 l 83 701 l 83 0 l 306 0 l 306 254 l 636 254 l 636 0 l 858 0 l 858 701 z "},"о":{"ha":901,"x_min":0,"x_max":0,"o":"m 56 351 b 451 -14 56 106 231 -14 b 846 351 671 -14 846 106 b 451 715 846 596 671 715 b 56 351 231 715 56 596 z m 278 351 b 451 521 278 468 346 521 b 624 351 556 521 624 468 b 451 181 624 233 556 181 b 278 351 346 181 278 233 z "},"п":{"ha":881,"x_min":0,"x_max":0,"o":"m 797 701 l 83 701 l 83 0 l 306 0 l 306 507 l 575 507 l 575 0 l 797 0 z "},"р":{"ha":956,"x_min":0,"x_max":0,"o":"m 83 701 l 83 -264 l 306 -264 l 306 43 l 264 168 l 319 168 b 596 -14 356 75 422 -14 b 900 350 799 -14 900 151 b 596 715 900 549 799 715 b 319 533 422 715 356 626 l 264 533 l 306 658 l 306 701 z m 306 350 b 492 521 306 469 372 521 b 678 350 611 521 678 469 b 492 181 678 231 611 181 b 306 350 372 181 306 231 z "},"с":{"ha":871,"x_min":0,"x_max":0,"o":"m 56 351 b 439 -14 56 117 215 -14 b 815 290 631 -14 806 90 l 593 290 b 439 181 585 228 528 181 b 278 351 333 181 278 243 b 439 521 278 458 333 521 b 593 411 528 521 585 474 l 815 411 b 439 715 806 611 631 715 b 56 351 215 715 56 585 z "},"т":{"ha":833,"x_min":0,"x_max":0,"o":"m 792 701 l 42 701 l 42 507 l 306 507 l 306 0 l 528 0 l 528 507 l 792 507 z "},"у":{"ha":933,"x_min":0,"x_max":0,"o":"m 654 701 l 501 315 l 501 204 l 446 204 l 446 315 l 292 701 l 42 701 l 363 42 l 363 -92 l 122 -87 l 122 -282 l 465 -292 b 585 -175 542 -294 585 -253 l 585 42 l 906 701 z "},"ф":{"ha":1124,"x_min":0,"x_max":0,"o":"m 1068 353 b 660 711 1068 565 908 686 l 660 938 l 465 938 l 465 711 b 56 353 215 686 56 565 b 465 -10 56 136 215 15 l 465 -250 l 660 -250 l 660 -10 b 1068 353 908 15 1068 136 z m 278 353 b 465 515 278 454 347 500 l 465 186 b 278 353 347 201 278 249 z m 660 186 l 660 515 b 846 353 776 500 846 454 b 660 186 846 249 776 201 z "},"х":{"ha":936,"x_min":0,"x_max":0,"o":"m 42 0 l 306 0 l 468 226 l 631 0 l 894 0 l 628 324 l 628 379 l 894 701 l 631 701 l 468 476 l 306 701 l 42 701 l 308 379 l 308 324 z "},"ч":{"ha":917,"x_min":0,"x_max":0,"o":"m 611 701 l 611 444 l 306 419 l 306 701 l 83 701 l 83 338 b 206 224 83 260 128 218 l 611 250 l 611 0 l 833 0 l 833 701 z "},"ц":{"ha":1061,"x_min":0,"x_max":0,"o":"m 915 194 l 797 194 l 797 701 l 575 701 l 575 194 l 306 194 l 306 701 l 83 701 l 83 0 l 811 0 l 811 -194 l 1033 -194 l 1033 76 b 915 194 1033 153 992 194 z "},"ш":{"ha":1136,"x_min":0,"x_max":0,"o":"m 831 701 l 831 194 l 679 194 l 679 701 l 457 701 l 457 194 l 306 194 l 306 701 l 83 701 l 83 0 l 1053 0 l 1053 701 z "},"щ":{"ha":1317,"x_min":0,"x_max":0,"o":"m 1171 194 l 1053 194 l 1053 701 l 831 701 l 831 194 l 679 194 l 679 701 l 457 701 l 457 194 l 306 194 l 306 701 l 83 701 l 83 0 l 1067 0 l 1067 -194 l 1289 -194 l 1289 76 b 1171 194 1289 153 1247 194 z "},"џ":{"ha":936,"x_min":0,"x_max":0,"o":"m 631 688 l 631 194 l 306 194 l 306 688 l 83 688 l 83 0 l 357 0 l 357 -194 l 579 -194 l 579 0 l 853 0 l 853 688 z "},"ь":{"ha":800,"x_min":0,"x_max":0,"o":"m 406 550 l 306 550 l 306 701 l 83 701 l 83 0 l 406 0 b 744 275 569 0 744 47 b 406 550 744 503 569 550 z m 306 194 l 306 356 l 392 356 b 522 275 485 356 522 346 b 392 194 522 204 485 194 z "},"ъ":{"ha":928,"x_min":0,"x_max":0,"o":"m 533 550 l 433 550 l 433 701 l 28 701 l 28 507 l 211 507 l 211 0 l 533 0 b 872 275 697 0 872 47 b 533 550 872 503 697 550 z m 519 194 l 433 194 l 433 356 l 519 356 b 650 275 613 356 650 346 b 519 194 650 204 613 194 z "},"ы":{"ha":1157,"x_min":0,"x_max":0,"o":"m 406 550 l 306 550 l 306 701 l 83 701 l 83 0 l 406 0 b 744 275 569 0 744 47 b 406 550 744 503 569 550 z m 851 0 l 1074 0 l 1074 701 l 851 701 z m 306 194 l 306 356 l 392 356 b 522 275 485 356 522 346 b 392 194 522 204 485 194 z "},"љ":{"ha":1281,"x_min":0,"x_max":0,"o":"m 886 550 l 786 550 l 786 701 l 192 701 b 56 194 192 310 178 194 l 56 0 b 413 507 349 0 403 186 l 564 507 l 564 0 l 886 0 b 1225 275 1050 0 1225 47 b 886 550 1225 503 1050 550 z m 872 194 l 786 194 l 786 356 l 872 356 b 1003 275 965 356 1003 346 b 872 194 1003 204 965 194 z "},"њ":{"ha":1353,"x_min":0,"x_max":0,"o":"m 958 550 l 858 550 l 858 701 l 636 701 l 636 449 l 306 449 l 306 701 l 83 701 l 83 0 l 306 0 l 306 254 l 636 254 l 636 0 l 958 0 b 1297 275 1122 0 1297 47 b 958 550 1297 503 1122 550 z m 944 194 l 858 194 l 858 356 l 944 356 b 1075 275 1038 356 1075 346 b 944 194 1075 204 1038 194 z "},"ѕ":{"ha":765,"x_min":0,"x_max":0,"o":"m 738 193 b 476 418 738 339 613 374 b 296 508 365 454 296 475 b 378 549 296 536 325 549 b 492 461 454 549 492 511 l 714 461 b 379 715 714 597 617 715 b 74 518 186 715 74 643 b 364 283 74 361 233 326 b 515 200 476 246 515 236 b 418 153 515 167 478 153 b 264 254 301 153 264 200 l 42 254 b 411 -14 42 90 153 -14 b 738 193 653 -14 738 75 z "},"є":{"ha":871,"x_min":0,"x_max":0,"o":"m 439 181 b 288 282 358 181 307 217 l 496 282 l 496 421 l 288 421 b 439 521 307 485 358 521 b 593 411 528 521 585 474 l 815 411 b 439 715 806 611 631 715 b 56 351 215 715 56 585 b 439 -14 56 117 215 -14 b 815 290 631 -14 806 90 l 593 290 b 439 181 585 228 528 181 z "},"э":{"ha":871,"x_min":0,"x_max":0,"o":"m 432 715 b 56 411 240 715 65 611 l 278 411 b 432 521 286 474 343 521 b 583 421 513 521 564 485 l 375 421 l 375 282 l 583 282 b 432 181 564 217 513 181 b 278 290 343 181 286 228 l 56 290 b 432 -14 65 90 240 -14 b 815 351 656 -14 815 117 b 432 715 815 585 656 715 z "},"і":{"ha":694,"x_min":0,"x_max":0,"o":"m 343 771 b 476 882 425 771 476 810 b 343 993 476 953 425 993 b 213 882 261 993 213 953 b 343 771 213 810 261 771 z m 56 0 l 667 0 l 667 194 l 468 194 l 468 599 b 347 715 468 676 425 719 l 83 701 l 83 507 l 254 515 l 254 194 l 56 194 z "},"ї":{"ha":721,"x_min":0,"x_max":0,"o":"m 178 771 b 318 882 267 771 318 810 b 178 993 318 953 267 993 b 40 882 89 993 40 953 b 178 771 40 810 89 771 z m 539 771 b 679 882 628 771 679 810 b 539 993 679 953 628 993 b 401 882 450 993 401 953 b 539 771 401 810 450 771 z m 82 0 l 693 0 l 693 194 l 494 194 l 494 599 b 374 715 494 676 451 719 l 110 701 l 110 507 l 281 515 l 281 194 l 82 194 z "},"ј":{"ha":482,"x_min":0,"x_max":0,"o":"m 286 771 b 419 882 368 771 419 810 b 286 993 419 953 368 993 b 156 882 204 993 156 953 b 286 771 156 810 204 771 z m 14 -278 l 264 -278 l 392 -53 b 415 42 410 -19 415 6 l 415 596 b 296 711 415 672 372 714 l 14 701 l 14 507 l 185 515 l 185 58 b 161 -36 185 22 179 -7 z "},"ћ":{"ha":997,"x_min":0,"x_max":0,"o":"m 640 715 b 375 492 490 715 403 617 l 319 492 l 361 617 l 361 788 l 556 788 l 556 954 l 361 954 l 361 1021 l 139 1021 l 139 954 l 56 954 l 56 788 l 139 788 l 139 0 l 361 0 l 361 260 b 561 521 361 457 440 521 b 706 344 668 521 706 472 l 706 0 l 928 0 l 928 379 b 640 715 928 596 819 715 z "},"ю":{"ha":1165,"x_min":0,"x_max":0,"o":"m 757 715 b 413 449 560 715 444 608 l 306 449 l 306 701 l 83 701 l 83 0 l 306 0 l 306 254 l 413 254 b 757 -14 444 93 560 -14 b 1110 351 990 -14 1110 138 b 757 715 1110 564 990 715 z m 757 181 b 625 351 665 181 625 236 b 757 521 625 465 665 521 b 888 351 847 521 888 465 b 757 181 888 236 847 181 z "},"я":{"ha":763,"x_min":0,"x_max":0,"o":"m 679 701 l 301 701 b 32 490 165 701 32 647 b 194 283 32 344 103 299 l 121 181 l 14 181 l 14 0 l 117 0 b 258 75 179 0 221 22 l 401 278 l 457 278 l 457 0 l 679 0 z m 457 431 l 357 431 b 254 490 281 431 254 444 b 357 549 254 535 281 549 l 457 549 z "},"ђ":{"ha":1011,"x_min":0,"x_max":0,"o":"m 654 715 b 389 492 504 715 417 617 l 333 492 l 375 617 l 375 788 l 569 788 l 569 954 l 375 954 l 375 1021 l 153 1021 l 153 954 l 69 954 l 69 788 l 153 788 l 153 0 l 375 0 l 375 260 b 575 521 375 457 454 521 b 719 344 682 521 719 472 l 719 -82 l 479 -74 l 479 -268 l 822 -278 b 942 -161 899 -281 942 -239 l 942 379 b 654 715 942 596 833 715 z "},"⓿":{"ha":1522,"x_min":0,"x_max":0,"o":"m 761 -246 b 1453 446 1189 -246 1453 64 b 761 1138 1453 828 1189 1138 b 69 446 333 1138 69 828 b 761 -246 69 64 333 -246 z m 461 447 b 763 790 461 643 564 790 b 1063 447 960 790 1063 643 b 763 103 1063 249 960 103 b 461 447 564 103 461 249 z m 628 447 b 639 369 628 418 632 392 l 843 599 b 763 624 824 614 797 624 b 628 447 679 624 628 551 z m 682 299 b 763 269 704 281 731 269 b 896 447 858 269 896 342 b 888 525 896 476 893 503 z "},"❶":{"ha":1522,"x_min":0,"x_max":0,"o":"m 761 -246 b 69 446 333 -246 69 64 b 761 1138 69 828 333 1138 b 1453 446 1189 1138 1453 828 b 761 -246 1453 64 1189 -246 z m 493 540 l 564 388 b 742 719 701 446 733 596 l 783 719 l 756 622 l 756 115 l 922 115 l 922 775 l 608 775 b 493 540 593 633 578 611 z "},"❷":{"ha":1522,"x_min":0,"x_max":0,"o":"m 761 -246 b 69 446 333 -246 69 64 b 761 1138 69 828 333 1138 b 1453 446 1189 1138 1453 828 b 761 -246 1453 64 1189 -246 z m 476 524 l 643 524 b 763 679 643 624 669 679 b 865 590 840 679 865 635 b 513 401 865 432 572 410 l 513 144 l 1032 144 l 1032 283 l 665 283 l 568 263 l 568 304 b 1032 590 828 332 1032 392 b 775 818 1032 703 964 818 b 476 524 571 818 476 678 z "},"❸":{"ha":1522,"x_min":0,"x_max":0,"o":"m 761 -246 b 69 446 333 -246 69 64 b 761 1138 69 828 333 1138 b 1453 446 1189 1138 1453 828 b 761 -246 1453 64 1189 -246 z m 469 365 b 774 103 469 185 588 103 b 1054 297 963 103 1054 179 b 883 436 1054 403 969 419 l 883 478 b 1046 614 969 492 1046 515 b 774 790 1046 710 963 790 b 478 563 588 790 478 707 l 644 563 b 774 651 644 633 693 651 b 878 589 844 651 878 638 b 789 528 878 535 842 528 l 722 528 l 722 390 l 789 390 b 888 321 842 390 888 383 b 774 242 888 256 844 242 b 636 365 693 242 636 258 z "},"❹":{"ha":1522,"x_min":0,"x_max":0,"o":"m 761 -246 b 69 446 333 -246 69 64 b 761 1138 69 828 333 1138 b 1453 446 1189 1138 1453 828 b 761 -246 1453 64 1189 -246 z m 481 215 l 786 215 l 786 132 l 953 132 l 953 215 l 1043 215 l 1043 382 l 953 382 l 953 492 l 786 492 l 786 382 l 606 382 l 508 354 l 508 396 b 900 792 775 446 883 625 l 733 792 b 481 557 711 657 621 583 z "},"❺":{"ha":1522,"x_min":0,"x_max":0,"o":"m 761 -246 b 69 446 333 -246 69 64 b 761 1138 69 828 333 1138 b 1453 446 1189 1138 1453 828 b 761 -246 1453 64 1189 -246 z m 489 301 b 779 75 489 154 594 75 b 1065 326 979 75 1065 192 b 875 557 1065 450 1011 557 b 679 414 763 557 701 492 l 651 429 l 674 490 l 674 610 l 1025 610 l 1025 749 l 507 749 l 507 406 l 693 342 b 811 418 719 383 756 418 b 899 311 856 418 899 397 b 774 214 899 236 847 214 b 656 301 710 214 656 240 z "},"❻":{"ha":1522,"x_min":0,"x_max":0,"o":"m 761 -246 b 69 446 333 -246 69 64 b 761 1138 69 828 333 1138 b 1453 446 1189 1138 1453 828 b 761 -246 1453 64 1189 -246 z m 467 418 b 761 101 467 194 572 101 b 1028 336 900 101 1028 164 b 808 564 1028 504 921 564 b 581 385 664 564 599 465 l 539 385 l 582 482 b 825 650 582 592 636 669 l 957 636 l 957 775 l 839 789 b 467 418 543 824 467 633 z m 633 333 b 747 425 633 396 668 425 b 861 333 825 425 861 396 b 747 240 861 268 825 240 b 633 333 668 240 633 268 z "},"❼":{"ha":1522,"x_min":0,"x_max":0,"o":"m 761 -246 b 69 446 333 -246 69 64 b 761 1138 69 828 333 1138 b 1453 446 1189 1138 1453 828 b 761 -246 1453 64 1189 -246 z m 597 86 l 764 86 b 1032 464 764 293 826 401 l 1032 746 l 519 746 l 519 607 l 976 607 l 976 565 b 597 86 724 503 597 378 z "},"❽":{"ha":1522,"x_min":0,"x_max":0,"o":"m 761 -246 b 69 446 333 -246 69 64 b 761 1138 69 828 333 1138 b 1453 446 1189 1138 1453 828 b 761 -246 1453 64 1189 -246 z m 478 286 b 761 103 478 175 581 103 b 1044 286 942 103 1044 175 b 857 450 1044 399 944 438 l 857 478 b 1011 624 921 486 1011 521 b 761 790 1011 725 929 790 b 510 624 592 790 510 725 b 665 478 510 521 600 486 l 665 450 b 478 286 578 438 478 399 z m 676 596 b 761 651 676 625 689 651 b 844 596 833 651 844 625 b 761 533 844 565 833 533 b 676 596 689 533 676 565 z m 644 317 b 761 394 644 368 683 394 b 878 317 838 394 878 368 b 761 242 878 265 838 242 b 644 317 683 242 644 265 z "},"❾":{"ha":1522,"x_min":0,"x_max":0,"o":"m 761 -246 b 69 446 333 -246 69 64 b 761 1138 69 828 333 1138 b 1453 446 1189 1138 1453 828 b 761 -246 1453 64 1189 -246 z m 1060 476 b 765 793 1060 700 954 793 b 499 558 626 793 499 731 b 718 331 499 390 606 331 b 946 510 863 331 928 429 l 988 510 l 944 413 b 701 244 944 303 890 225 l 569 258 l 569 119 l 688 106 b 1060 476 983 71 1060 261 z m 893 561 b 779 469 893 499 858 469 b 665 561 701 469 665 499 b 779 654 665 626 701 654 b 893 561 858 654 893 626 z "},"⓪":{"ha":1522,"x_min":0,"x_max":0,"o":"m 761 1138 b 69 446 333 1138 69 828 b 761 -246 69 64 333 -246 b 1453 446 1189 -246 1453 64 b 761 1138 1453 828 1189 1138 z m 761 -107 b 208 446 419 -107 208 147 b 761 999 208 744 419 999 b 1314 446 1103 999 1314 744 b 761 -107 1314 147 1103 -107 z m 763 790 b 461 447 564 790 461 643 b 763 103 461 249 564 103 b 1063 447 960 103 1063 249 b 763 790 1063 643 960 790 z m 763 624 b 843 599 797 624 824 614 l 639 369 b 628 447 632 392 628 418 b 763 624 628 551 679 624 z m 763 269 b 682 299 731 269 704 281 l 888 525 b 896 447 893 503 896 476 b 763 269 896 342 858 269 z "},"①":{"ha":1522,"x_min":0,"x_max":0,"o":"m 761 -246 b 1453 446 1189 -246 1453 64 b 761 1138 1453 828 1189 1138 b 69 446 333 1138 69 828 b 761 -246 69 64 333 -246 z m 761 -107 b 208 446 419 -107 208 147 b 761 999 208 744 419 999 b 1314 446 1103 999 1314 744 b 761 -107 1314 147 1103 -107 z m 493 540 l 564 388 b 742 719 701 446 733 596 l 783 719 l 756 622 l 756 115 l 922 115 l 922 775 l 608 775 b 493 540 593 633 578 611 z "},"②":{"ha":1522,"x_min":0,"x_max":0,"o":"m 761 -246 b 1453 446 1189 -246 1453 64 b 761 1138 1453 828 1189 1138 b 69 446 333 1138 69 828 b 761 -246 69 64 333 -246 z m 761 -107 b 208 446 419 -107 208 147 b 761 999 208 744 419 999 b 1314 446 1103 999 1314 744 b 761 -107 1314 147 1103 -107 z m 476 524 l 643 524 b 763 679 643 624 669 679 b 865 590 840 679 865 635 b 513 401 865 432 572 410 l 513 144 l 1032 144 l 1032 283 l 665 283 l 568 263 l 568 304 b 1032 590 828 332 1032 392 b 775 818 1032 703 964 818 b 476 524 571 818 476 678 z "},"③":{"ha":1522,"x_min":0,"x_max":0,"o":"m 761 -246 b 1453 446 1189 -246 1453 64 b 761 1138 1453 828 1189 1138 b 69 446 333 1138 69 828 b 761 -246 69 64 333 -246 z m 761 -107 b 208 446 419 -107 208 147 b 761 999 208 744 419 999 b 1314 446 1103 999 1314 744 b 761 -107 1314 147 1103 -107 z m 469 365 b 774 103 469 185 588 103 b 1054 297 963 103 1054 179 b 883 436 1054 403 969 419 l 883 478 b 1046 614 969 492 1046 515 b 774 790 1046 710 963 790 b 478 563 588 790 478 707 l 644 563 b 774 651 644 633 693 651 b 878 589 844 651 878 638 b 789 528 878 535 842 528 l 722 528 l 722 390 l 789 390 b 888 321 842 390 888 383 b 774 242 888 256 844 242 b 636 365 693 242 636 258 z "},"④":{"ha":1522,"x_min":0,"x_max":0,"o":"m 761 -246 b 1453 446 1189 -246 1453 64 b 761 1138 1453 828 1189 1138 b 69 446 333 1138 69 828 b 761 -246 69 64 333 -246 z m 761 -107 b 208 446 419 -107 208 147 b 761 999 208 744 419 999 b 1314 446 1103 999 1314 744 b 761 -107 1314 147 1103 -107 z m 478 206 l 783 206 l 783 122 l 950 122 l 950 206 l 1040 206 l 1040 372 l 950 372 l 950 482 l 783 482 l 783 372 l 603 372 l 506 344 l 506 386 b 897 782 772 436 881 615 l 731 782 b 478 547 708 647 618 574 z "},"⑤":{"ha":1522,"x_min":0,"x_max":0,"o":"m 761 -246 b 1453 446 1189 -246 1453 64 b 761 1138 1453 828 1189 1138 b 69 446 333 1138 69 828 b 761 -246 69 64 333 -246 z m 761 -107 b 208 446 419 -107 208 147 b 761 999 208 744 419 999 b 1314 446 1103 999 1314 744 b 761 -107 1314 147 1103 -107 z m 489 301 b 779 75 489 154 594 75 b 1065 326 979 75 1065 192 b 875 557 1065 450 1011 557 b 679 414 763 557 701 492 l 651 429 l 674 490 l 674 610 l 1025 610 l 1025 749 l 507 749 l 507 406 l 693 342 b 811 418 719 383 756 418 b 899 311 856 418 899 397 b 774 214 899 236 847 214 b 656 301 710 214 656 240 z "},"⑥":{"ha":1522,"x_min":0,"x_max":0,"o":"m 761 -246 b 1453 446 1189 -246 1453 64 b 761 1138 1453 828 1189 1138 b 69 446 333 1138 69 828 b 761 -246 69 64 333 -246 z m 761 -107 b 208 446 419 -107 208 147 b 761 999 208 744 419 999 b 1314 446 1103 999 1314 744 b 761 -107 1314 147 1103 -107 z m 467 418 b 761 101 467 194 572 101 b 1028 336 900 101 1028 164 b 808 564 1028 504 921 564 b 581 385 664 564 599 465 l 539 385 l 582 482 b 825 650 582 592 636 669 l 957 636 l 957 775 l 839 789 b 467 418 543 824 467 633 z m 633 333 b 747 425 633 396 668 425 b 861 333 825 425 861 396 b 747 240 861 268 825 240 b 633 333 668 240 633 268 z "},"⑦":{"ha":1522,"x_min":0,"x_max":0,"o":"m 761 -246 b 1453 446 1189 -246 1453 64 b 761 1138 1453 828 1189 1138 b 69 446 333 1138 69 828 b 761 -246 69 64 333 -246 z m 761 -107 b 208 446 419 -107 208 147 b 761 999 208 744 419 999 b 1314 446 1103 999 1314 744 b 761 -107 1314 147 1103 -107 z m 597 86 l 764 86 b 1032 464 764 293 826 401 l 1032 746 l 519 746 l 519 607 l 976 607 l 976 565 b 597 86 724 503 597 378 z "},"⑧":{"ha":1522,"x_min":0,"x_max":0,"o":"m 761 -246 b 1453 446 1189 -246 1453 64 b 761 1138 1453 828 1189 1138 b 69 446 333 1138 69 828 b 761 -246 69 64 333 -246 z m 761 -107 b 208 446 419 -107 208 147 b 761 999 208 744 419 999 b 1314 446 1103 999 1314 744 b 761 -107 1314 147 1103 -107 z m 478 286 b 761 103 478 175 581 103 b 1044 286 942 103 1044 175 b 857 450 1044 399 944 438 l 857 478 b 1011 624 921 486 1011 521 b 761 790 1011 725 929 790 b 510 624 592 790 510 725 b 665 478 510 521 600 486 l 665 450 b 478 286 578 438 478 399 z m 676 596 b 761 651 676 625 689 651 b 844 596 833 651 844 625 b 761 533 844 565 833 533 b 676 596 689 533 676 565 z m 644 317 b 761 394 644 368 683 394 b 878 317 838 394 878 368 b 761 242 878 265 838 242 b 644 317 683 242 644 265 z "},"⑨":{"ha":1522,"x_min":0,"x_max":0,"o":"m 761 -246 b 1453 446 1189 -246 1453 64 b 761 1138 1453 828 1189 1138 b 69 446 333 1138 69 828 b 761 -246 69 64 333 -246 z m 761 -107 b 208 446 419 -107 208 147 b 761 999 208 744 419 999 b 1314 446 1103 999 1314 744 b 761 -107 1314 147 1103 -107 z m 1060 476 b 765 793 1060 700 954 793 b 499 558 626 793 499 731 b 718 331 499 390 606 331 b 946 510 863 331 928 429 l 988 510 l 944 413 b 701 244 944 303 890 225 l 569 258 l 569 119 l 688 106 b 1060 476 983 71 1060 261 z m 893 561 b 779 469 893 499 858 469 b 665 561 701 469 665 499 b 779 654 665 626 701 654 b 893 561 858 654 893 626 z "},"⁄":{"ha":599,"x_min":0,"x_max":0,"o":"m 456 1131 l -14 -90 l 143 -151 l 613 1069 z "},"½":{"ha":1639,"x_min":0,"x_max":0,"o":"m 940 1131 l 471 -90 l 628 -151 l 1097 1069 z m 42 828 l 113 675 b 290 1007 250 733 282 883 l 332 1007 l 304 910 l 304 403 l 471 403 l 471 1063 l 157 1063 b 42 828 142 921 126 899 z m 1042 379 l 1208 379 b 1328 535 1208 479 1235 535 b 1431 446 1406 535 1431 490 b 1078 257 1431 288 1138 265 l 1078 0 l 1597 0 l 1597 139 l 1231 139 l 1133 118 l 1133 160 b 1597 446 1393 188 1597 247 b 1340 674 1597 558 1529 674 b 1042 379 1136 674 1042 533 z "},"¼":{"ha":1660,"x_min":0,"x_max":0,"o":"m 940 1131 l 471 -90 l 628 -151 l 1097 1069 z m 42 828 l 113 675 b 290 1007 250 733 282 883 l 332 1007 l 304 910 l 304 403 l 471 403 l 471 1063 l 157 1063 b 42 828 142 921 126 899 z m 1056 83 l 1361 83 l 1361 0 l 1528 0 l 1528 83 l 1618 83 l 1618 250 l 1528 250 l 1528 360 l 1361 360 l 1361 250 l 1181 250 l 1083 222 l 1083 264 b 1475 660 1350 314 1458 493 l 1308 660 b 1056 425 1286 525 1196 451 z "},"¾":{"ha":1761,"x_min":0,"x_max":0,"o":"m 1042 1131 l 572 -90 l 729 -151 l 1199 1069 z m 42 657 b 346 394 42 476 160 394 b 626 589 535 394 626 471 b 456 728 626 694 542 711 l 456 769 b 618 906 542 783 618 807 b 346 1082 618 1001 535 1082 b 50 854 160 1082 50 999 l 217 854 b 346 943 217 925 265 943 b 450 881 417 943 450 929 b 361 819 450 826 414 819 l 294 819 l 294 682 l 361 682 b 460 613 414 682 460 675 b 346 533 460 547 417 533 b 208 657 265 533 208 550 z m 1157 83 l 1463 83 l 1463 0 l 1629 0 l 1629 83 l 1719 83 l 1719 250 l 1629 250 l 1629 360 l 1463 360 l 1463 250 l 1282 250 l 1185 222 l 1185 264 b 1576 660 1451 314 1560 493 l 1410 660 b 1157 425 1388 525 1297 451 z "},"⅛":{"ha":1649,"x_min":0,"x_max":0,"o":"m 939 1131 l 469 -90 l 626 -151 l 1096 1069 z m 42 828 l 113 675 b 290 1007 250 733 282 883 l 332 1007 l 304 910 l 304 403 l 471 403 l 471 1063 l 157 1063 b 42 828 142 921 126 899 z m 1040 169 b 1324 -14 1040 58 1143 -14 b 1607 169 1504 -14 1607 58 b 1419 333 1607 282 1507 321 l 1419 361 b 1574 507 1483 369 1574 404 b 1324 674 1574 608 1492 674 b 1072 507 1154 674 1072 608 b 1228 361 1072 404 1163 369 l 1228 333 b 1040 169 1140 321 1040 282 z m 1239 479 b 1324 535 1239 508 1251 535 b 1407 479 1396 535 1407 508 b 1324 417 1407 449 1396 417 b 1239 479 1251 417 1239 449 z m 1207 200 b 1324 278 1207 251 1246 278 b 1440 200 1400 278 1440 251 b 1324 125 1440 149 1400 125 b 1207 200 1246 125 1207 149 z "},"⅜":{"ha":1722,"x_min":0,"x_max":0,"o":"m 1014 1131 l 544 -90 l 701 -151 l 1171 1069 z m 42 657 b 346 394 42 476 160 394 b 626 589 535 394 626 471 b 456 728 626 694 542 711 l 456 769 b 618 906 542 783 618 807 b 346 1082 618 1001 535 1082 b 50 854 160 1082 50 999 l 217 854 b 346 943 217 925 265 943 b 450 881 417 943 450 929 b 361 819 450 826 414 819 l 294 819 l 294 682 l 361 682 b 460 613 414 682 460 675 b 346 533 460 547 417 533 b 208 657 265 533 208 550 z m 1114 169 b 1397 -14 1114 58 1217 -14 b 1681 169 1578 -14 1681 58 b 1493 333 1681 282 1581 321 l 1493 361 b 1647 507 1557 369 1647 404 b 1397 674 1647 608 1565 674 b 1146 507 1228 674 1146 608 b 1301 361 1146 404 1236 369 l 1301 333 b 1114 169 1214 321 1114 282 z m 1313 479 b 1397 535 1313 508 1325 535 b 1481 479 1469 535 1481 508 b 1397 417 1481 449 1469 417 b 1313 479 1325 417 1313 449 z m 1281 200 b 1397 278 1281 251 1319 278 b 1514 200 1474 278 1514 251 b 1397 125 1514 149 1474 125 b 1281 200 1319 125 1281 149 z "},"⅝":{"ha":1713,"x_min":0,"x_max":0,"o":"m 1004 1131 l 535 -90 l 692 -151 l 1161 1069 z m 42 621 b 332 394 42 474 147 394 b 618 646 532 394 618 511 b 428 876 618 769 564 876 b 232 733 315 876 254 811 l 204 749 l 226 810 l 226 929 l 578 929 l 578 1068 l 60 1068 l 60 725 l 246 661 b 364 738 272 703 308 738 b 451 631 408 738 451 717 b 326 533 451 556 400 533 b 208 621 263 533 208 560 z m 1104 169 b 1388 -14 1104 58 1207 -14 b 1671 169 1568 -14 1671 58 b 1483 333 1671 282 1571 321 l 1483 361 b 1638 507 1547 369 1638 404 b 1388 674 1638 608 1556 674 b 1136 507 1218 674 1136 608 b 1292 361 1136 404 1226 369 l 1292 333 b 1104 169 1204 321 1104 282 z m 1303 479 b 1388 535 1303 508 1315 535 b 1471 479 1460 535 1471 508 b 1388 417 1471 449 1460 417 b 1303 479 1315 417 1303 449 z m 1271 200 b 1388 278 1271 251 1310 278 b 1504 200 1464 278 1504 251 b 1388 125 1504 149 1464 125 b 1271 200 1310 125 1271 149 z "},"⅞":{"ha":1622,"x_min":0,"x_max":0,"o":"m 913 1131 l 443 -90 l 600 -151 l 1069 1069 z m 119 403 l 286 403 b 554 781 286 610 349 718 l 554 1063 l 42 1063 l 42 924 l 499 924 l 499 882 b 119 403 246 819 119 694 z m 1014 169 b 1297 -14 1014 58 1117 -14 b 1581 169 1478 -14 1581 58 b 1393 333 1581 282 1481 321 l 1393 361 b 1547 507 1457 369 1547 404 b 1297 674 1547 608 1465 674 b 1046 507 1128 674 1046 608 b 1201 361 1046 404 1136 369 l 1201 333 b 1014 169 1114 321 1014 282 z m 1213 479 b 1297 535 1213 508 1225 535 b 1381 479 1369 535 1381 508 b 1297 417 1381 449 1369 417 b 1213 479 1225 417 1213 449 z m 1181 200 b 1297 278 1181 251 1219 278 b 1414 200 1374 278 1414 251 b 1297 125 1414 149 1374 125 b 1181 200 1219 125 1181 149 z "},".":{"ha":500,"x_min":0,"x_max":0,"o":"m 249 -14 b 403 140 340 -14 403 53 b 249 292 403 225 340 292 b 97 140 154 292 97 225 b 249 -14 97 53 154 -14 z "},",":{"ha":436,"x_min":0,"x_max":0,"o":"m 178 253 l 42 -239 l 203 -282 l 339 210 z "},":":{"ha":500,"x_min":0,"x_max":0,"o":"m 249 410 b 403 564 340 410 403 476 b 249 715 403 649 340 715 b 97 564 154 715 97 649 b 249 410 97 476 154 410 z m 249 -14 b 403 140 340 -14 403 53 b 249 292 403 225 340 292 b 97 140 154 292 97 225 b 249 -14 97 53 154 -14 z "},";":{"ha":542,"x_min":0,"x_max":0,"o":"m 290 410 b 444 564 382 410 444 476 b 290 715 444 649 382 715 b 139 564 196 715 139 649 b 290 410 139 476 196 410 z m 178 253 l 42 -239 l 203 -282 l 339 210 z "},"…":{"ha":1264,"x_min":0,"x_max":0,"o":"m 249 -14 b 403 140 340 -14 403 53 b 249 292 403 225 340 292 b 97 140 154 292 97 225 b 249 -14 97 53 154 -14 z m 631 -14 b 785 140 722 -14 785 53 b 631 292 785 225 722 292 b 479 140 536 292 479 225 b 631 -14 479 53 536 -14 z m 1013 -14 b 1167 140 1104 -14 1167 53 b 1013 292 1167 225 1104 292 b 861 140 918 292 861 225 b 1013 -14 861 53 918 -14 z "},"!":{"ha":500,"x_min":0,"x_max":0,"o":"m 139 979 l 181 360 l 319 360 l 361 979 z m 249 -14 b 403 140 340 -14 403 53 b 249 292 403 225 340 292 b 97 140 154 292 97 225 b 249 -14 97 53 154 -14 z "},"¡":{"ha":501,"x_min":0,"x_max":0,"o":"m 250 715 b 99 561 156 715 99 649 b 250 410 99 476 156 410 b 404 561 342 410 404 476 b 250 715 404 649 342 715 z m 140 -278 l 363 -278 l 321 342 l 182 342 z "},"?":{"ha":757,"x_min":0,"x_max":0,"o":"m 69 750 l 236 750 b 396 896 236 843 281 896 b 521 806 468 896 521 869 b 144 635 521 683 342 639 l 144 360 l 622 360 l 622 499 l 306 499 l 200 461 l 200 508 b 688 811 421 532 688 589 b 399 1035 688 915 615 1035 b 69 750 164 1035 69 906 z m 382 -14 b 536 140 474 -14 536 53 b 382 292 536 225 474 292 b 231 140 288 292 231 225 b 382 -14 231 53 288 -14 z "},"¿":{"ha":771,"x_min":0,"x_max":0,"o":"m 389 715 b 235 561 297 715 235 649 b 389 410 235 476 297 410 b 540 561 483 410 540 476 b 389 715 540 649 483 715 z m 701 -49 l 535 -49 b 375 -194 535 -142 490 -194 b 250 -104 303 -194 250 -168 b 626 67 250 18 429 63 l 626 342 l 149 342 l 149 203 l 465 203 l 571 240 l 571 193 b 83 -110 350 169 83 113 b 372 -333 83 -214 156 -333 b 701 -49 607 -333 701 -204 z "},"·":{"ha":500,"x_min":0,"x_max":0,"o":"m 249 199 b 403 353 340 199 403 265 b 249 504 403 438 340 504 b 97 353 154 504 97 438 b 249 199 97 265 154 199 z "},"•":{"ha":1088,"x_min":0,"x_max":0,"o":"m 540 -96 b 990 354 808 -96 990 99 b 540 797 990 603 808 797 b 97 354 264 797 97 603 b 540 -96 97 99 264 -96 z "},"*":{"ha":719,"x_min":0,"x_max":0,"o":"m 69 761 l 204 718 l 290 717 l 218 665 l 135 551 l 247 469 l 331 583 l 357 665 l 385 581 l 467 467 l 579 549 l 496 663 l 426 713 l 515 713 l 650 757 l 607 889 l 472 846 l 403 794 l 431 879 l 431 1021 l 292 1021 l 292 879 l 318 796 l 247 850 l 113 893 z "},"#":{"ha":1549,"x_min":0,"x_max":0,"o":"m 1451 563 l 1451 701 l 1200 701 l 1321 1014 l 1164 1075 l 1021 701 l 742 701 l 863 1014 l 706 1075 l 563 701 l 246 701 l 246 563 l 508 563 l 401 285 l 97 285 l 97 146 l 349 146 l 236 -146 l 393 -207 l 529 146 l 807 146 l 694 -146 l 851 -207 l 988 146 l 1303 146 l 1303 285 l 1040 285 l 1147 563 z m 860 285 l 582 285 l 689 563 l 967 563 z "},"/":{"ha":765,"x_min":0,"x_max":0,"o":"m 539 1131 l 69 -90 l 226 -151 l 696 1069 z "},"\\":{"ha":765,"x_min":0,"x_max":0,"o":"m 226 1131 l 69 1069 l 539 -151 l 696 -90 z "},"(":{"ha":626,"x_min":0,"x_max":0,"o":"m 529 -69 b 264 386 307 0 264 164 b 529 840 264 608 307 771 l 529 979 b 97 386 229 924 97 692 b 529 -208 97 81 229 -153 z "},")":{"ha":626,"x_min":0,"x_max":0,"o":"m 97 -69 l 97 -208 b 529 386 397 -153 529 81 b 97 979 529 692 397 924 l 97 840 b 363 386 319 771 363 608 b 97 -69 363 164 319 0 z "},"{":{"ha":922,"x_min":0,"x_max":0,"o":"m 503 840 l 811 840 l 811 979 l 322 979 l 322 742 b 556 513 467 697 556 647 b 346 614 496 572 422 614 b 111 389 194 614 111 532 b 346 164 111 246 208 164 b 556 265 422 164 496 206 b 322 36 556 131 467 81 l 322 -201 l 811 -201 l 811 -62 l 503 -62 l 378 -104 l 378 -49 b 694 226 596 4 694 53 b 647 389 694 275 676 333 b 694 551 676 444 694 503 b 378 826 694 725 596 774 l 378 882 z m 372 289 b 278 389 321 289 278 322 b 372 489 278 456 321 489 b 510 389 418 489 472 443 b 372 289 472 335 418 289 z "},"}":{"ha":894,"x_min":0,"x_max":0,"o":"m 797 389 b 563 614 797 532 714 614 b 353 513 486 614 413 572 b 586 742 353 647 442 697 l 586 979 l 97 979 l 97 840 l 406 840 l 531 882 l 531 826 b 214 551 313 774 214 725 b 261 389 214 503 232 444 b 214 226 232 333 214 275 b 531 -49 214 53 313 4 l 531 -104 l 406 -62 l 97 -62 l 97 -201 l 586 -201 l 586 36 b 353 265 442 81 353 131 b 563 164 413 206 486 164 b 797 389 700 164 797 246 z m 399 389 b 536 489 436 443 490 489 b 631 389 588 489 631 456 b 536 289 631 322 588 289 b 399 389 490 289 436 335 z "},"[":{"ha":640,"x_min":0,"x_max":0,"o":"m 97 979 l 97 -208 l 543 -208 l 543 -69 l 265 -69 l 265 840 l 543 840 l 543 979 z "},"]":{"ha":640,"x_min":0,"x_max":0,"o":"m 543 979 l 97 979 l 97 840 l 375 840 l 375 -69 l 97 -69 l 97 -208 l 543 -208 z "},"-":{"ha":944,"x_min":0,"x_max":0,"o":"m 97 458 l 97 292 l 847 292 l 847 458 z "},"–":{"ha":1236,"x_min":0,"x_max":0,"o":"m 97 458 l 97 292 l 1139 292 l 1139 458 z "},"—":{"ha":1514,"x_min":0,"x_max":0,"o":"m 97 458 l 97 292 l 1417 292 l 1417 458 z "},"_":{"ha":889,"x_min":0,"x_max":0,"o":"m 69 -28 l 69 -194 l 819 -194 l 819 -28 z "},"‚":{"ha":492,"x_min":0,"x_max":0,"o":"m 233 253 l 97 -239 l 258 -282 l 394 210 z "},"„":{"ha":763,"x_min":0,"x_max":0,"o":"m 233 253 l 97 -239 l 258 -282 l 394 210 z m 504 253 l 368 -239 l 529 -282 l 665 210 z "},"“":{"ha":740,"x_min":0,"x_max":0,"o":"m 258 1081 l 97 1038 l 213 608 l 374 651 z m 528 1081 l 367 1038 l 482 608 l 643 651 z "},"”":{"ha":740,"x_min":0,"x_max":0,"o":"m 213 1081 l 97 651 l 258 608 l 374 1038 z m 482 1081 l 367 651 l 528 608 l 643 1038 z "},"‘":{"ha":471,"x_min":0,"x_max":0,"o":"m 258 1081 l 97 1038 l 213 608 l 374 651 z "},"’":{"ha":471,"x_min":0,"x_max":0,"o":"m 213 1081 l 97 651 l 258 608 l 374 1038 z "},"«":{"ha":1176,"x_min":0,"x_max":0,"o":"m 663 14 l 333 344 l 663 674 l 540 785 l 97 344 l 540 -97 z m 1079 14 l 750 344 l 1079 674 l 957 785 l 514 344 l 957 -97 z "},"»":{"ha":1176,"x_min":0,"x_max":0,"o":"m 97 14 l 219 -97 l 663 344 l 219 785 l 97 674 l 426 344 z m 514 14 l 636 -97 l 1079 344 l 636 785 l 514 674 l 843 344 z "},"‹":{"ha":760,"x_min":0,"x_max":0,"o":"m 663 14 l 333 344 l 663 674 l 540 785 l 97 344 l 540 -97 z "},"›":{"ha":760,"x_min":0,"x_max":0,"o":"m 97 14 l 219 -97 l 663 344 l 219 785 l 97 674 l 426 344 z "},"\"":{"ha":625,"x_min":0,"x_max":0,"o":"m 97 1076 l 97 632 l 264 632 l 264 1076 z m 361 1076 l 361 632 l 528 632 l 528 1076 z "},"'":{"ha":361,"x_min":0,"x_max":0,"o":"m 97 1076 l 97 632 l 264 632 l 264 1076 z "},"¢":{"ha":954,"x_min":0,"x_max":0,"o":"m 546 336 l 544 657 b 635 557 597 640 629 603 l 857 557 b 544 857 849 735 710 836 l 544 1183 l 407 1185 l 407 856 b 97 497 224 831 97 704 b 410 136 97 289 224 163 l 410 -204 l 546 -206 l 546 136 b 857 436 710 157 849 258 l 635 436 b 546 336 629 390 597 353 z m 319 497 b 408 654 319 576 350 631 l 408 339 b 319 497 350 363 319 417 z "},"¤":{"ha":1078,"x_min":0,"x_max":0,"o":"m 865 489 b 815 668 865 554 847 617 l 981 833 l 883 931 l 717 764 b 543 811 668 794 610 811 b 364 761 475 811 414 793 l 194 931 l 97 833 l 268 663 b 221 489 238 613 221 553 b 268 315 221 425 238 365 l 97 144 l 194 47 l 364 217 b 543 167 414 185 475 167 b 717 214 610 167 668 183 l 883 47 l 981 144 l 815 310 b 865 489 847 361 865 424 z m 543 333 b 388 489 451 333 388 404 b 543 644 388 574 451 644 b 699 489 635 644 699 574 b 543 333 699 404 635 333 z "},"$":{"ha":1099,"x_min":0,"x_max":0,"o":"m 1001 269 b 618 588 1001 447 792 529 l 618 790 b 739 646 690 774 739 732 l 961 646 b 618 988 961 819 854 960 l 618 1185 l 479 1185 l 479 992 b 142 735 257 981 142 890 b 479 431 142 554 290 494 l 479 188 b 319 378 365 206 319 260 l 97 378 b 479 -10 97 156 203 17 l 479 -206 l 618 -206 l 618 -14 b 1001 269 893 -4 1001 108 z m 364 726 b 479 797 364 768 407 790 l 479 635 b 364 726 381 671 364 689 z m 618 181 l 618 383 b 779 267 713 351 779 319 b 618 181 779 218 739 185 z "},"€":{"ha":1204,"x_min":0,"x_max":0,"o":"m 690 181 b 475 308 593 181 515 211 l 747 308 l 747 447 l 449 447 b 447 490 447 461 447 475 b 449 531 447 504 447 518 l 747 531 l 747 669 l 475 669 b 690 799 514 768 592 799 b 885 649 785 799 865 765 l 1107 649 b 690 993 1076 865 924 993 b 249 669 449 993 301 861 l 97 669 l 97 531 l 226 531 b 225 490 225 517 225 504 b 226 447 225 476 225 461 l 97 447 l 97 308 l 249 308 b 690 -14 303 117 450 -14 b 1107 332 924 -14 1076 115 l 888 332 b 690 181 867 215 785 181 z "},"£":{"ha":942,"x_min":0,"x_max":0,"o":"m 511 785 l 844 771 l 844 965 l 525 979 b 133 765 356 986 133 936 b 213 585 133 674 174 626 l 97 585 l 97 446 l 289 446 b 97 290 288 344 232 324 l 97 0 l 844 0 l 844 194 l 278 194 l 153 153 l 153 208 b 511 408 335 233 511 256 b 508 446 511 422 510 435 l 789 446 l 789 585 l 432 585 b 356 717 393 628 356 665 b 511 785 356 779 419 789 z "},"¥":{"ha":1143,"x_min":0,"x_max":0,"o":"m 1046 979 l 808 979 l 599 571 l 599 446 l 543 446 l 543 571 l 335 979 l 97 979 l 389 446 l 196 446 l 196 307 l 460 307 l 460 251 l 196 251 l 196 113 l 460 113 l 460 0 l 682 0 l 682 113 l 946 113 l 946 251 l 682 251 l 682 307 l 946 307 l 946 446 l 754 446 z "},"+":{"ha":944,"x_min":0,"x_max":0,"o":"m 847 458 l 556 458 l 556 750 l 389 750 l 389 458 l 97 458 l 97 292 l 389 292 l 389 0 l 556 0 l 556 292 l 847 292 z "},"−":{"ha":944,"x_min":0,"x_max":0,"o":"m 97 458 l 97 292 l 847 292 l 847 458 z "},"×":{"ha":843,"x_min":0,"x_max":0,"o":"m 746 567 l 628 685 l 422 479 l 215 685 l 97 567 l 304 361 l 97 154 l 215 36 l 422 243 l 628 36 l 746 154 l 540 361 z "},"÷":{"ha":944,"x_min":0,"x_max":0,"o":"m 471 514 b 625 668 563 514 625 581 b 471 819 625 753 563 819 b 319 668 376 819 319 753 b 471 514 319 581 376 514 z m 97 457 l 97 290 l 847 290 l 847 457 z m 471 -69 b 625 85 563 -69 625 -3 b 471 236 625 169 563 236 b 319 85 376 236 319 169 b 471 -69 319 -3 376 -69 z "},"=":{"ha":944,"x_min":0,"x_max":0,"o":"m 97 611 l 97 444 l 847 444 l 847 611 z m 97 306 l 97 139 l 847 139 l 847 306 z "},"≠":{"ha":944,"x_min":0,"x_max":0,"o":"m 847 444 l 847 611 l 689 611 l 775 761 l 656 831 l 529 611 l 97 611 l 97 444 l 432 444 l 353 306 l 97 306 l 97 139 l 256 139 l 169 -11 l 289 -81 l 415 139 l 847 139 l 847 306 l 513 306 l 592 444 z "},">":{"ha":954,"x_min":0,"x_max":0,"o":"m 857 260 l 857 426 l 150 701 l 97 543 l 663 343 l 97 158 l 150 0 z "},"<":{"ha":954,"x_min":0,"x_max":0,"o":"m 97 260 l 804 0 l 857 158 l 292 343 l 857 543 l 804 701 l 97 426 z "},"≥":{"ha":954,"x_min":0,"x_max":0,"o":"m 857 482 l 857 649 l 150 924 l 97 765 l 663 565 l 97 381 l 150 222 z m 97 167 l 97 0 l 847 0 l 847 167 z "},"≤":{"ha":954,"x_min":0,"x_max":0,"o":"m 97 482 l 804 222 l 857 381 l 292 565 l 857 765 l 804 924 l 97 649 z m 857 167 l 107 167 l 107 0 l 857 0 z "},"±":{"ha":944,"x_min":0,"x_max":0,"o":"m 556 611 l 556 804 l 389 804 l 389 611 l 97 611 l 97 444 l 389 444 l 389 250 l 556 250 l 556 444 l 847 444 l 847 611 z m 97 0 l 847 0 l 847 167 l 97 167 z "},"≈":{"ha":928,"x_min":0,"x_max":0,"o":"m 97 389 l 264 389 b 329 500 264 472 285 500 b 633 389 404 500 499 389 b 831 667 754 389 831 492 l 664 667 b 599 556 664 583 643 556 b 294 667 524 556 429 667 b 97 389 174 667 97 564 z m 97 56 l 264 56 b 329 167 264 139 285 167 b 633 56 404 167 499 56 b 831 333 754 56 831 158 l 664 333 b 599 222 664 250 643 222 b 294 333 524 222 429 333 b 97 56 174 333 97 231 z "},"~":{"ha":928,"x_min":0,"x_max":0,"o":"m 97 236 l 264 236 b 329 347 264 319 285 347 b 633 236 404 347 499 236 b 831 514 754 236 831 339 l 664 514 b 599 403 664 431 643 403 b 294 514 524 403 429 514 b 97 236 174 514 97 411 z "},"¬":{"ha":944,"x_min":0,"x_max":0,"o":"m 847 576 l 97 576 l 97 410 l 681 410 l 681 203 l 847 203 z "},"^":{"ha":793,"x_min":0,"x_max":0,"o":"m 518 508 l 696 508 l 564 979 l 231 979 l 97 508 l 275 508 l 369 924 l 425 924 z "},"∅":{"ha":1372,"x_min":0,"x_max":0,"o":"m 1054 860 l 1126 985 l 981 1068 l 907 940 b 686 979 840 965 767 979 b 97 390 333 979 97 715 b 318 -79 97 199 179 29 l 246 -204 l 392 -287 l 465 -160 b 686 -199 532 -185 606 -199 b 1275 390 1039 -199 1275 65 b 1054 860 1275 582 1193 751 z m 264 390 b 686 813 264 618 436 813 b 821 792 735 813 779 806 l 404 71 b 264 390 317 150 264 265 z m 686 -32 b 551 -11 638 -32 593 -25 l 968 710 b 1108 390 1056 631 1108 515 b 686 -32 1108 163 936 -32 z "},"∞":{"ha":1500,"x_min":0,"x_max":0,"o":"m 97 417 b 401 76 97 213 242 76 b 750 318 592 76 678 226 b 1099 76 822 226 908 76 b 1403 417 1258 76 1403 213 b 1099 757 1403 621 1258 757 b 750 515 908 757 822 607 b 401 757 678 607 592 757 b 97 417 242 757 97 621 z m 264 417 b 443 590 264 522 333 590 b 668 417 556 590 594 513 b 443 243 594 321 556 243 b 264 417 333 243 264 311 z m 832 417 b 1057 590 906 513 944 590 b 1236 417 1167 590 1236 522 b 1057 243 1236 311 1167 243 b 832 417 944 243 906 321 z "},"∫":{"ha":1028,"x_min":0,"x_max":0,"o":"m 97 -250 l 365 -250 b 497 -150 435 -250 481 -217 l 740 813 l 931 813 l 931 979 l 718 979 b 586 879 649 979 603 946 l 343 -83 l 97 -83 z "},"∏":{"ha":1139,"x_min":0,"x_max":0,"o":"m 1042 979 l 97 979 l 97 813 l 303 813 l 303 -250 l 469 -250 l 469 813 l 671 813 l 671 -250 l 838 -250 l 838 813 l 1042 813 z "},"∑":{"ha":907,"x_min":0,"x_max":0,"o":"m 97 -249 l 810 -249 l 810 -82 l 278 -82 l 153 -124 l 153 -68 l 682 265 l 682 465 l 153 799 l 153 854 l 278 813 l 810 813 l 810 979 l 97 979 l 97 651 l 511 393 l 511 338 l 97 79 z "},"√":{"ha":1157,"x_min":0,"x_max":0,"o":"m 658 875 l 421 -194 l 365 -194 l 264 285 l 97 285 l 217 -250 l 569 -250 l 804 813 l 1060 813 l 1060 979 l 789 979 b 658 875 718 979 674 946 z "},"∂":{"ha":1060,"x_min":0,"x_max":0,"o":"m 963 443 b 275 1079 963 857 675 1038 l 275 885 b 833 511 603 843 806 749 l 875 386 l 819 386 b 485 715 803 576 696 715 b 97 350 242 715 97 553 b 525 -14 97 139 261 -14 b 963 443 794 -14 963 157 z m 740 350 b 531 181 740 244 671 181 b 319 350 390 181 319 244 b 531 521 319 472 390 521 b 740 350 671 521 740 472 z "},"%":{"ha":1719,"x_min":0,"x_max":0,"o":"m 1018 1117 l 549 -104 l 706 -165 l 1175 1056 z m 419 390 b 742 713 613 390 742 536 b 419 1035 742 889 613 1035 b 97 713 226 1035 97 889 b 419 390 97 536 226 390 z m 419 557 b 264 713 328 557 264 628 b 419 868 264 797 328 868 b 575 713 511 868 575 797 b 419 557 575 628 511 557 z m 1300 -97 b 1622 225 1493 -97 1622 49 b 1300 547 1622 401 1493 547 b 978 225 1107 547 978 401 b 1300 -97 978 49 1107 -97 z m 1300 69 b 1144 225 1208 69 1144 140 b 1300 381 1144 310 1208 381 b 1456 225 1392 381 1456 310 b 1300 69 1456 140 1392 69 z "},"‰":{"ha":2432,"x_min":0,"x_max":0,"o":"m 1018 1117 l 549 -104 l 706 -165 l 1175 1056 z m 419 390 b 742 713 613 390 742 536 b 419 1035 742 889 613 1035 b 97 713 226 1035 97 889 b 419 390 97 536 226 390 z m 419 557 b 264 713 328 557 264 628 b 419 868 264 797 328 868 b 575 713 511 868 575 797 b 419 557 575 628 511 557 z m 1300 -97 b 1622 225 1493 -97 1622 49 b 1300 547 1622 401 1493 547 b 978 225 1107 547 978 401 b 1300 -97 978 49 1107 -97 z m 2013 -97 b 2335 225 2206 -97 2335 49 b 2013 547 2335 401 2206 547 b 1690 225 1819 547 1690 401 b 2013 -97 1690 49 1819 -97 z m 1300 69 b 1144 225 1208 69 1144 140 b 1300 381 1144 310 1208 381 b 1456 225 1392 381 1456 310 b 1300 69 1456 140 1392 69 z m 2013 69 b 1857 225 1921 69 1857 140 b 2013 381 1857 310 1921 381 b 2168 225 2104 381 2168 310 b 2013 69 2168 140 2104 69 z "},"↑":{"ha":1076,"x_min":0,"x_max":0,"o":"m 979 404 l 538 847 l 97 404 l 208 282 l 454 528 l 454 -167 l 621 -167 l 621 528 l 868 282 z "},"↗":{"ha":969,"x_min":0,"x_max":0,"o":"m 247 740 l 240 576 l 589 576 l 97 85 l 214 -33 l 706 458 l 707 110 l 871 117 l 872 743 z "},"→":{"ha":1208,"x_min":0,"x_max":0,"o":"m 668 785 l 546 674 l 792 428 l 97 428 l 97 261 l 792 261 l 546 14 l 668 -97 l 1111 344 z "},"↘":{"ha":969,"x_min":0,"x_max":0,"o":"m 871 553 l 707 560 l 706 211 l 214 703 l 97 585 l 589 93 l 240 93 l 247 -71 l 872 -74 z "},"↓":{"ha":1076,"x_min":0,"x_max":0,"o":"m 868 393 l 621 147 l 621 842 l 454 842 l 454 147 l 208 393 l 97 271 l 538 -172 l 979 271 z "},"↙":{"ha":969,"x_min":0,"x_max":0,"o":"m 872 585 l 756 703 l 264 211 l 263 560 l 99 553 l 97 -74 l 722 -71 l 729 93 l 381 93 z "},"←":{"ha":1208,"x_min":0,"x_max":0,"o":"m 1111 428 l 417 428 l 663 674 l 540 785 l 97 344 l 540 -97 l 663 14 l 417 261 l 1111 261 z "},"↖":{"ha":969,"x_min":0,"x_max":0,"o":"m 872 85 l 381 576 l 729 576 l 722 740 l 97 743 l 99 117 l 263 110 l 264 458 l 756 -33 z "},"↔":{"ha":1892,"x_min":0,"x_max":0,"o":"m 1351 910 l 1229 799 l 1475 553 l 781 553 l 781 386 l 1475 386 l 1229 139 l 1351 28 l 1794 469 z m 663 549 l 540 660 l 97 219 l 540 -222 l 663 -111 l 417 136 l 1111 136 l 1111 303 l 417 303 z "},"↕":{"ha":1326,"x_min":0,"x_max":0,"o":"m 440 163 l 607 163 l 607 857 l 854 611 l 965 733 l 524 1176 l 83 733 l 194 611 l 440 857 z m 1132 57 l 885 -189 l 885 506 l 718 506 l 718 -189 l 472 57 l 361 -65 l 801 -508 l 1243 -65 z "},"◊":{"ha":793,"x_min":0,"x_max":0,"o":"m 564 979 l 231 979 l 97 508 l 231 38 l 564 38 l 696 508 z m 425 93 l 369 93 l 275 508 l 369 924 l 425 924 l 518 508 z "},"@":{"ha":1536,"x_min":0,"x_max":0,"o":"m 250 390 b 789 915 250 688 464 915 b 1286 460 1114 915 1286 757 b 1151 167 1286 272 1244 167 l 1119 167 l 1119 735 l 953 735 l 953 664 l 994 539 l 939 539 b 674 749 911 664 814 749 b 367 392 488 749 367 611 b 674 33 367 171 488 33 b 939 243 814 33 911 118 l 994 243 l 953 132 l 953 118 b 1029 28 953 56 981 28 l 1104 28 b 1439 460 1328 28 1439 217 b 789 1054 1439 835 1164 1054 b 97 390 414 1054 97 821 b 789 -260 97 -26 415 -299 l 1325 -204 l 1325 -65 l 789 -121 b 250 390 465 -154 250 79 z m 706 172 b 533 392 586 172 533 250 b 706 610 533 532 586 610 b 878 392 825 610 878 532 b 706 172 878 250 825 172 z "},"&":{"ha":1404,"x_min":0,"x_max":0,"o":"m 1307 -19 l 1115 210 b 1260 660 1208 325 1260 479 l 1038 660 b 974 379 1038 550 1015 456 l 636 785 l 1089 785 l 1089 979 l 331 979 l 331 883 l 553 599 l 553 543 b 361 629 508 592 450 629 b 97 361 238 629 97 550 b 601 -14 97 114 297 -14 b 963 78 742 -14 864 18 l 1132 -139 z m 601 181 b 319 353 417 181 319 235 b 494 496 319 447 397 496 b 754 344 596 496 669 453 l 838 238 b 601 181 774 200 694 181 z "},"¶":{"ha":1033,"x_min":0,"x_max":0,"o":"m 518 1185 b 97 839 186 1185 97 1032 b 518 493 97 646 186 493 l 518 -206 l 685 -206 l 685 1185 z m 769 1185 l 769 -206 l 936 -206 l 936 1185 z "},"§":{"ha":858,"x_min":0,"x_max":0,"o":"m 97 494 b 358 281 97 363 222 325 b 539 192 469 244 539 232 b 457 153 539 168 510 153 b 343 240 381 153 343 190 l 121 240 b 456 -14 121 104 218 -14 b 761 183 649 -14 761 58 b 626 342 761 250 735 296 b 761 485 728 365 761 429 b 500 699 761 617 636 654 b 319 788 389 735 319 747 b 401 826 319 811 349 826 b 515 739 478 826 515 789 l 738 739 b 403 993 738 875 640 993 b 97 796 210 993 97 921 b 232 638 97 729 124 683 b 97 494 131 614 97 550 z m 306 518 b 433 553 306 572 357 581 b 553 460 504 528 553 506 b 424 424 553 407 501 399 b 306 518 353 446 306 474 z "},"©":{"ha":1578,"x_min":0,"x_max":0,"o":"m 789 -301 b 1481 390 1217 -301 1481 8 b 789 1082 1481 772 1217 1082 b 97 390 361 1082 97 772 b 789 -301 97 8 361 -301 z m 789 -162 b 236 390 447 -162 236 92 b 789 943 236 689 447 943 b 1342 390 1131 943 1342 689 b 789 -162 1342 92 1131 -162 z m 410 392 b 793 26 410 157 569 26 b 1169 331 985 26 1160 131 l 947 331 b 793 221 939 268 882 221 b 632 392 688 221 632 283 b 793 561 632 499 688 561 b 947 451 882 561 939 514 l 1169 451 b 793 756 1160 651 985 756 b 410 392 569 756 410 625 z "},"®":{"ha":1017,"x_min":0,"x_max":0,"o":"m 508 301 b 919 713 768 301 919 486 b 508 1124 919 939 768 1124 b 97 713 249 1124 97 939 b 508 301 97 486 249 301 z m 508 413 b 208 713 315 413 208 551 b 508 1013 208 874 315 1013 b 808 713 701 1013 808 874 b 508 413 808 551 701 413 z m 329 521 l 435 521 l 435 629 l 596 629 l 596 521 l 701 521 l 701 643 b 667 678 701 665 689 678 l 583 678 l 583 706 b 701 797 642 711 701 725 b 501 911 701 893 581 911 l 329 911 z m 435 735 l 435 806 l 501 806 b 596 771 560 806 596 806 b 501 735 596 735 560 735 z "},"™":{"ha":1344,"x_min":0,"x_max":0,"o":"m 514 979 l 97 979 l 97 854 l 238 854 l 238 515 l 376 515 l 376 854 l 514 854 z m 968 979 l 913 571 l 885 571 l 829 979 l 549 979 l 549 515 l 688 515 l 688 821 l 654 924 l 694 924 l 757 515 l 1040 515 l 1101 924 l 1143 924 l 1108 821 l 1108 515 l 1247 515 l 1247 979 z "},"°":{"ha":839,"x_min":0,"x_max":0,"o":"m 419 390 b 742 713 613 390 742 536 b 419 1035 742 889 613 1035 b 97 713 226 1035 97 889 b 419 390 97 536 226 390 z m 419 557 b 264 713 328 557 264 628 b 419 868 264 797 328 868 b 575 713 511 868 575 797 b 419 557 575 628 511 557 z "},"|":{"ha":361,"x_min":0,"x_max":0,"o":"m 97 1185 l 97 -206 l 264 -206 l 264 1185 z "},"¦":{"ha":361,"x_min":0,"x_max":0,"o":"m 97 671 l 264 671 l 264 1185 l 97 1185 z m 264 308 l 97 308 l 97 -206 l 264 -206 z "},"†":{"ha":806,"x_min":0,"x_max":0,"o":"m 708 953 l 486 953 l 486 1185 l 319 1185 l 319 953 l 97 953 l 97 786 l 319 786 l 319 210 l 486 210 l 486 786 l 708 786 z "},"‡":{"ha":806,"x_min":0,"x_max":0,"o":"m 708 786 l 708 953 l 486 953 l 486 1185 l 319 1185 l 319 953 l 97 953 l 97 786 l 319 786 l 319 608 l 97 608 l 97 442 l 319 442 l 319 210 l 486 210 l 486 442 l 708 442 l 708 608 l 486 608 l 486 786 z "},"̈":{"ha":0,"x_min":0,"x_max":0,"o":"m -599 771 b -458 882 -510 771 -458 810 b -599 993 -458 953 -510 993 b -736 882 -687 993 -736 953 b -599 771 -736 810 -687 771 z m -237 771 b -97 882 -149 771 -97 810 b -237 993 -97 953 -149 993 b -375 882 -326 993 -375 953 b -237 771 -375 810 -326 771 z "},"̇":{"ha":0,"x_min":0,"x_max":0,"o":"m -237 771 b -97 882 -149 771 -97 810 b -237 993 -97 953 -149 993 b -375 882 -326 993 -375 953 b -237 771 -375 810 -326 771 z "},"̀":{"ha":0,"x_min":0,"x_max":0,"o":"m -97 929 l -639 1049 l -676 890 l -135 771 z "},"́":{"ha":0,"x_min":0,"x_max":0,"o":"m -676 929 l -639 771 l -97 890 l -135 1049 z "},"̋":{"ha":0,"x_min":0,"x_max":0,"o":"m -839 879 l -722 771 l -444 1006 l -561 1114 z m -492 879 l -375 771 l -97 1006 l -214 1114 z "},"̂":{"ha":0,"x_min":0,"x_max":0,"o":"m -97 867 l -397 1076 l -697 867 l -579 756 l -397 882 l -215 756 z "},"̌":{"ha":0,"x_min":0,"x_max":0,"o":"m -97 974 l -215 1085 l -397 958 l -579 1085 l -697 974 l -397 764 z "},"̆":{"ha":0,"x_min":0,"x_max":0,"o":"m -97 1047 l -264 1047 b -351 924 -264 950 -297 924 b -439 1047 -406 924 -439 950 l -606 1047 b -351 771 -606 906 -539 771 b -97 1047 -164 771 -97 906 z "},"̊":{"ha":0,"x_min":0,"x_max":0,"o":"m -317 771 b -97 942 -182 771 -97 828 b -317 1113 -97 1056 -182 1113 b -535 942 -451 1113 -535 1056 b -317 771 -535 826 -451 771 z m -317 896 b -368 942 -346 896 -368 907 b -317 986 -368 975 -346 986 b -264 942 -287 986 -264 975 b -317 896 -264 907 -286 896 z "},"̃":{"ha":0,"x_min":0,"x_max":0,"o":"m -747 819 l -581 819 b -529 917 -581 903 -560 917 b -301 806 -468 917 -429 806 b -97 1069 -174 806 -97 908 l -264 1069 b -315 972 -264 986 -285 972 b -543 1083 -376 972 -415 1083 b -747 819 -671 1083 -747 981 z "},"̄":{"ha":0,"x_min":0,"x_max":0,"o":"m -694 1000 l -694 833 l -97 836 l -97 1000 z "},"̒":{"ha":0,"x_min":0,"x_max":0,"o":"m -258 1115 l -360 814 l -199 771 l -97 1072 z "},"̦":{"ha":0,"x_min":0,"x_max":0,"o":"m -262 -68 l -349 -306 l -190 -357 l -104 -119 z "},"̧":{"ha":0,"x_min":0,"x_max":0,"o":"m -217 -56 b -346 -83 -262 -56 -312 -68 l -271 0 l -437 0 l -475 -82 l -404 -136 b -296 -111 -349 -117 -321 -111 b -264 -135 -276 -111 -264 -121 b -485 -167 -264 -172 -336 -167 l -485 -292 b -97 -142 -287 -292 -97 -278 b -217 -56 -97 -72 -160 -56 z "},"̨":{"ha":0,"x_min":0,"x_max":0,"o":"m -97 -90 l -286 -110 l -233 1 l -386 1 l -472 -131 b -354 -278 -518 -200 -453 -286 l -97 -257 z "},"´":{"ha":774,"x_min":0,"x_max":0,"o":"m 97 929 l 135 771 l 676 890 l 639 1049 z "},"˘":{"ha":703,"x_min":0,"x_max":0,"o":"m 606 1047 l 439 1047 b 351 924 439 950 406 924 b 264 1047 297 924 264 950 l 97 1047 b 351 771 97 906 164 771 b 606 1047 539 771 606 906 z "},"ˇ":{"ha":794,"x_min":0,"x_max":0,"o":"m 697 974 l 579 1085 l 397 958 l 215 1085 l 97 974 l 397 764 z "},"¸":{"ha":582,"x_min":0,"x_max":0,"o":"m 365 -56 b 236 -83 319 -56 269 -68 l 311 0 l 144 0 l 107 -82 l 178 -136 b 286 -111 233 -117 261 -111 b 318 -135 306 -111 318 -121 b 97 -167 318 -172 246 -167 l 97 -292 b 485 -142 294 -292 485 -278 b 365 -56 485 -72 422 -56 z "},"ˆ":{"ha":794,"x_min":0,"x_max":0,"o":"m 697 867 l 397 1076 l 97 867 l 215 756 l 397 882 l 579 756 z "},"¨":{"ha":833,"x_min":0,"x_max":0,"o":"m 235 771 b 375 882 324 771 375 810 b 235 993 375 953 324 993 b 97 882 146 993 97 953 b 235 771 97 810 146 771 z m 596 771 b 736 882 685 771 736 810 b 596 993 736 953 685 993 b 458 882 507 993 458 953 b 596 771 458 810 507 771 z "},"˙":{"ha":472,"x_min":0,"x_max":0,"o":"m 235 771 b 375 882 324 771 375 810 b 235 993 375 953 324 993 b 97 882 146 993 97 953 b 235 771 97 810 146 771 z "},"`":{"ha":774,"x_min":0,"x_max":0,"o":"m 676 929 l 135 1049 l 97 890 l 639 771 z "},"˝":{"ha":936,"x_min":0,"x_max":0,"o":"m 97 879 l 214 771 l 492 1006 l 375 1114 z m 444 879 l 561 771 l 839 1006 l 722 1114 z "},"¯":{"ha":792,"x_min":0,"x_max":0,"o":"m 97 1000 l 97 833 l 694 836 l 694 1000 z "},"˛":{"ha":585,"x_min":0,"x_max":0,"o":"m 488 -90 l 299 -110 l 351 1 l 199 1 l 113 -131 b 231 -278 67 -200 132 -286 l 488 -257 z "},"˚":{"ha":604,"x_min":0,"x_max":0,"o":"m 315 771 b 535 942 450 771 535 828 b 315 1113 535 1056 450 1113 b 97 942 181 1113 97 1056 b 315 771 97 826 181 771 z m 315 896 b 264 942 286 896 264 907 b 315 986 264 975 286 986 b 368 942 344 986 368 975 b 315 896 368 907 346 896 z "},"˜":{"ha":844,"x_min":0,"x_max":0,"o":"m 97 819 l 264 819 b 315 917 264 903 285 917 b 543 806 376 917 415 806 b 747 1069 671 806 747 908 l 581 1069 b 529 972 581 986 560 972 b 301 1083 468 972 429 1083 b 97 819 174 1083 97 981 z "}}}
